  0
SECTION
  2
HEADER
  9
$ACADVER
  1
AC1009
  9
$DWGCODEPAGE
  3
ansi_1252
  9
$INSBASE
 10
0.0
 20
0.0
 30
0.0
  9
$EXTMIN
 10
85.01944607458175
 20
259.1244709215413
 30
0.0
  9
$EXTMAX
 10
249.7448654492
 20
328.3841146533
 30
0.0
  9
$LIMMIN
 10
0.0
 20
0.0
  9
$LIMMAX
 10
12.0
 20
9.0
  9
$ORTHOMODE
 70
     0
  9
$REGENMODE
 70
     1
  9
$FILLMODE
 70
     1
  9
$QTEXTMODE
 70
     0
  9
$MIRRTEXT
 70
     1
  9
$DRAGMODE
 70
     2
  9
$LTSCALE
 40
1.0
  9
$OSMODE
 70
    37
  9
$ATTMODE
 70
     1
  9
$TEXTSIZE
 40
0.2
  9
$TRACEWID
 40
0.05
  9
$TEXTSTYLE
  7
STANDARD
  9
$CLAYER
  8
0
  9
$CELTYPE
  6
BYLAYER
  9
$CECOLOR
 62
   256
  9
$DIMSCALE
 40
1.0
  9
$DIMASZ
 40
0.18
  9
$DIMEXO
 40
0.0625
  9
$DIMDLI
 40
0.38
  9
$DIMRND
 40
0.0
  9
$DIMDLE
 40
0.0
  9
$DIMEXE
 40
0.18
  9
$DIMTP
 40
0.0
  9
$DIMTM
 40
0.0
  9
$DIMTXT
 40
0.18
  9
$DIMCEN
 40
0.09
  9
$DIMTSZ
 40
0.0
  9
$DIMTOL
 70
     0
  9
$DIMLIM
 70
     0
  9
$DIMTIH
 70
     1
  9
$DIMTOH
 70
     1
  9
$DIMSE1
 70
     0
  9
$DIMSE2
 70
     0
  9
$DIMTAD
 70
     0
  9
$DIMZIN
 70
     0
  9
$DIMBLK
  1

  9
$DIMASO
 70
     1
  9
$DIMSHO
 70
     1
  9
$DIMPOST
  1

  9
$DIMAPOST
  1

  9
$DIMALT
 70
     0
  9
$DIMALTD
 70
     2
  9
$DIMALTF
 40
25.4
  9
$DIMLFAC
 40
1.0
  9
$DIMTOFL
 70
     0
  9
$DIMTVP
 40
0.0
  9
$DIMTIX
 70
     0
  9
$DIMSOXD
 70
     0
  9
$DIMSAH
 70
     0
  9
$DIMBLK1
  1

  9
$DIMBLK2
  1

  9
$DIMSTYLE
  2
STANDARD
  9
$DIMCLRD
 70
     0
  9
$DIMCLRE
 70
     0
  9
$DIMCLRT
 70
     0
  9
$DIMTFAC
 40
1.0
  9
$DIMGAP
 40
0.09
  9
$LUNITS
 70
     2
  9
$LUPREC
 70
     4
  9
$SKETCHINC
 40
0.1
  9
$FILLETRAD
 40
0.5
  9
$AUNITS
 70
     0
  9
$AUPREC
 70
     0
  9
$MENU
  1
.
  9
$ELEVATION
 40
0.0
  9
$PELEVATION
 40
0.0
  9
$THICKNESS
 40
0.0
  9
$LIMCHECK
 70
     0
  9
$CHAMFERA
 40
0.0
  9
$CHAMFERB
 40
0.0
  9
$SKPOLY
 70
     0
  9
$TDCREATE
 40
2454910.5
  9
$TDUPDATE
 40
2459153.600003044
  9
$TDINDWG
 40
0.0000000116
  9
$TDUSRTIMER
 40
0.0000000116
  9
$USRTIMER
 70
     1
  9
$ANGBASE
 50
0.0
  9
$ANGDIR
 70
     0
  9
$PDMODE
 70
     0
  9
$PDSIZE
 40
0.0
  9
$PLINEWID
 40
0.0
  9
$COORDS
 70
     1
  9
$SPLFRAME
 70
     0
  9
$SPLINETYPE
 70
     6
  9
$SPLINESEGS
 70
     8
  9
$ATTDIA
 70
     0
  9
$ATTREQ
 70
     1
  9
$HANDLING
 70
     1
  9
$HANDSEED
  5
57B
  9
$SURFTAB1
 70
     6
  9
$SURFTAB2
 70
     6
  9
$SURFTYPE
 70
     6
  9
$SURFU
 70
     6
  9
$SURFV
 70
     6
  9
$UCSNAME
  2

  9
$UCSORG
 10
0.0
 20
0.0
 30
0.0
  9
$UCSXDIR
 10
1.0
 20
0.0
 30
0.0
  9
$UCSYDIR
 10
0.0
 20
1.0
 30
0.0
  9
$PUCSNAME
  2

  9
$PUCSORG
 10
0.0
 20
0.0
 30
0.0
  9
$PUCSXDIR
 10
1.0
 20
0.0
 30
0.0
  9
$PUCSYDIR
 10
0.0
 20
1.0
 30
0.0
  9
$USERI1
 70
     0
  9
$USERI2
 70
     0
  9
$USERI3
 70
     0
  9
$USERI4
 70
     0
  9
$USERI5
 70
     0
  9
$USERR1
 40
0.0
  9
$USERR2
 40
0.0
  9
$USERR3
 40
0.0
  9
$USERR4
 40
0.0
  9
$USERR5
 40
0.0
  9
$WORLDVIEW
 70
     1
  9
$SHADEDGE
 70
     3
  9
$SHADEDIF
 70
    70
  9
$TILEMODE
 70
     1
  9
$MAXACTVP
 70
    64
  9
$PLIMCHECK
 70
     0
  9
$PEXTMIN
 10
1.000000000000000E+20
 20
1.000000000000000E+20
 30
1.000000000000000E+20
  9
$PEXTMAX
 10
-1.000000000000000E+20
 20
-1.000000000000000E+20
 30
-1.000000000000000E+20
  9
$PLIMMIN
 10
0.0
 20
0.0
  9
$PLIMMAX
 10
12.0
 20
9.0
  9
$UNITMODE
 70
     0
  9
$VISRETAIN
 70
     1
  9
$PLINEGEN
 70
     0
  9
$PSLTSCALE
 70
     1
  0
ENDSEC
  0
SECTION
  2
TABLES
  0
TABLE
  2
VPORT
 70
     1
  0
VPORT
  2
*ACTIVE
 70
     0
 10
0.0
 20
0.0
 11
1.0
 21
1.0
 12
10.42990654205607
 22
4.5
 13
0.0
 23
0.0
 14
0.5
 24
0.5
 15
0.5
 25
0.5
 16
0.0
 26
0.0
 36
1.0
 17
0.0
 27
0.0
 37
0.0
 40
9.0
 41
1.972972972850329
 42
50.0
 43
0.0
 44
0.0
 50
0.0
 51
0.0
 71
     0
 72
   100
 73
     1
 74
     3
 75
     0
 76
     0
 77
     0
 78
     0
  0
ENDTAB
  0
TABLE
  2
LTYPE
 70
     2
  0
LTYPE
  2
CONTINUOUS
 70
     0
  3
Solid line
 72
    65
 73
     0
 40
0.0
  0
LTYPE
  2
CONTINUOUS2
 70
     0
  3
Solid Line
 72
    65
 73
     0
 40
0.0
  0
ENDTAB
  0
TABLE
  2
LAYER
 70
     2
  0
LAYER
  2
0
 70
     0
 62
     7
  6
CONTINUOUS
  0
LAYER
  2
02___PRT_ALL_AXES
 70
     0
 62
    18
  6
CONTINUOUS
  0
ENDTAB
  0
TABLE
  2
STYLE
 70
     1
  0
STYLE
  2
STANDARD
 70
     0
 40
0.0
 41
1.0
 50
0.0
 71
     0
 42
0.2
  3
txt
  4

  0
ENDTAB
  0
TABLE
  2
VIEW
 70
     0
  0
ENDTAB
  0
TABLE
  2
UCS
 70
     0
  0
ENDTAB
  0
TABLE
  2
APPID
 70
     1
  0
APPID
  2
ACAD
 70
     0
  0
ENDTAB
  0
TABLE
  2
DIMSTYLE
 70
     1
  0
DIMSTYLE
  2
STANDARD
 70
     0
  3

  4

  5

  6

  7

 40
1.0
 41
0.18
 42
0.0625
 43
0.38
 44
0.18
 45
0.0
 46
0.0
 47
0.0
 48
0.0
140
0.18
141
0.09
142
0.0
143
25.4
144
1.0
145
0.0
146
1.0
147
0.09
 71
     0
 72
     0
 73
     1
 74
     1
 75
     0
 76
     0
 77
     0
 78
     0
170
     0
171
     2
172
     0
173
     0
174
     0
175
     0
176
     0
177
     0
178
     0
  0
ENDTAB
  0
ENDSEC
  0
SECTION
  2
BLOCKS
  0
BLOCK
  8
0
  2
$MODEL_SPACE
 70
     0
 10
0.0
 20
0.0
 30
0.0
  3
$MODEL_SPACE
  1

  0
ENDBLK
  5
21
  8
0
  0
BLOCK
 67
     1
  8
0
  2
$PAPER_SPACE
 70
     0
 10
0.0
 20
0.0
 30
0.0
  3
$PAPER_SPACE
  1

  0
ENDBLK
  5
1D
 67
     1
  8
0
  0
ENDSEC
  0
SECTION
  2
ENTITIES
  0
POLYLINE
  5
6F
  8
0
 66
     1
 10
0.0
 20
0.0
 30
0.0
  0
VERTEX
  5
1AE
  8
0
 10
113.6371478027774
 20
320.481638471287
 30
0.0
  0
VERTEX
  5
1AF
  8
0
 10
113.6371478027774
 20
308.981638471287
 30
0.0
  0
SEQEND
  5
444
  8
0
  0
POLYLINE
  5
70
  8
0
 66
     1
 10
0.0
 20
0.0
 30
0.0
  0
VERTEX
  5
1B0
  8
0
 10
126.6871478027774
 20
313.981638471287
 30
0.0
  0
VERTEX
  5
1B1
  8
0
 10
126.6871478027774
 20
312.081638471287
 30
0.0
  0
SEQEND
  5
445
  8
0
  0
POLYLINE
  5
71
  8
0
 66
     1
 10
0.0
 20
0.0
 30
0.0
  0
VERTEX
  5
1B2
  8
0
 10
128.1371478027774
 20
314.581638471287
 30
0.0
  0
VERTEX
  5
1B3
  8
0
 10
128.1371478027774
 20
313.981638471287
 30
0.0
  0
SEQEND
  5
446
  8
0
  0
POLYLINE
  5
72
  8
0
 66
     1
 10
0.0
 20
0.0
 30
0.0
  0
VERTEX
  5
1B4
  8
0
 10
128.1371478027774
 20
311.581638471287
 30
0.0
  0
VERTEX
  5
1B5
  8
0
 10
128.1371478027774
 20
308.981638471287
 30
0.0
  0
SEQEND
  5
447
  8
0
  0
POLYLINE
  5
73
  8
0
 66
     1
 10
0.0
 20
0.0
 30
0.0
  0
VERTEX
  5
1B6
  8
0
 10
131.1371478027774
 20
308.981638471287
 30
0.0
  0
VERTEX
  5
1B7
  8
0
 10
131.1371478027774
 20
311.581638471287
 30
0.0
  0
SEQEND
  5
448
  8
0
  0
POLYLINE
  5
74
  8
0
 66
     1
 10
0.0
 20
0.0
 30
0.0
  0
VERTEX
  5
1B8
  8
0
 10
131.1371478027774
 20
313.981638471287
 30
0.0
  0
VERTEX
  5
1B9
  8
0
 10
131.1371478027774
 20
314.581638471287
 30
0.0
  0
SEQEND
  5
449
  8
0
  0
POLYLINE
  5
75
  8
0
 66
     1
 10
0.0
 20
0.0
 30
0.0
  0
VERTEX
  5
1BA
  8
0
 10
132.5871478027774
 20
312.081638471287
 30
0.0
  0
VERTEX
  5
1BB
  8
0
 10
132.5871478027774
 20
313.981638471287
 30
0.0
  0
SEQEND
  5
44A
  8
0
  0
POLYLINE
  5
76
  8
0
 66
     1
 10
0.0
 20
0.0
 30
0.0
  0
VERTEX
  5
1BC
  8
0
 10
140.6371478027774
 20
305.981638471287
 30
0.0
  0
VERTEX
  5
1BD
  8
0
 10
150.6371478027774
 20
305.981638471287
 30
0.0
  0
SEQEND
  5
44B
  8
0
  0
POLYLINE
  5
77
  8
0
 66
     1
 10
0.0
 20
0.0
 30
0.0
  0
VERTEX
  5
1BE
  8
0
 10
140.6371478027774
 20
308.981638471287
 30
0.0
  0
VERTEX
  5
1BF
  8
0
 10
140.6371478027774
 20
305.981638471287
 30
0.0
  0
SEQEND
  5
44C
  8
0
  0
POLYLINE
  5
78
  8
0
 66
     1
 10
0.0
 20
0.0
 30
0.0
  0
VERTEX
  5
1C0
  8
0
 10
113.6371478027774
 20
308.981638471287
 30
0.0
  0
VERTEX
  5
1C1
  8
0
 10
128.1371478027774
 20
308.981638471287
 30
0.0
  0
SEQEND
  5
44D
  8
0
  0
POLYLINE
  5
79
  8
0
 66
     1
 10
0.0
 20
0.0
 30
0.0
  0
VERTEX
  5
1C2
  8
0
 10
131.1371478027774
 20
308.981638471287
 30
0.0
  0
VERTEX
  5
1C3
  8
0
 10
140.6371478027774
 20
308.981638471287
 30
0.0
  0
SEQEND
  5
44E
  8
0
  0
POLYLINE
  5
7A
  8
0
 66
     1
 10
0.0
 20
0.0
 30
0.0
  0
VERTEX
  5
1C4
  8
0
 10
150.6371478027774
 20
308.981638471287
 30
0.0
  0
VERTEX
  5
1C5
  8
0
 10
160.1371478027774
 20
308.981638471287
 30
0.0
  0
SEQEND
  5
44F
  8
0
  0
POLYLINE
  5
7B
  8
0
 66
     1
 10
0.0
 20
0.0
 30
0.0
  0
VERTEX
  5
1C6
  8
0
 10
163.1371478027774
 20
308.981638471287
 30
0.0
  0
VERTEX
  5
1C7
  8
0
 10
177.6371478027774
 20
308.981638471287
 30
0.0
  0
SEQEND
  5
450
  8
0
  0
POLYLINE
  5
7C
  8
0
 66
     1
 10
0.0
 20
0.0
 30
0.0
  0
VERTEX
  5
1C8
  8
0
 10
127.1871478027774
 20
311.581638471287
 30
0.0
  0
VERTEX
  5
1C9
  8
0
 10
128.1371478027774
 20
311.581638471287
 30
0.0
  0
SEQEND
  5
451
  8
0
  0
POLYLINE
  5
7D
  8
0
 66
     1
 10
0.0
 20
0.0
 30
0.0
  0
VERTEX
  5
1CA
  8
0
 10
131.1371478027774
 20
311.581638471287
 30
0.0
  0
VERTEX
  5
1CB
  8
0
 10
132.0871478027774
 20
311.581638471287
 30
0.0
  0
SEQEND
  5
452
  8
0
  0
POLYLINE
  5
7E
  8
0
 66
     1
 10
0.0
 20
0.0
 30
0.0
  0
VERTEX
  5
1CC
  8
0
 10
159.1871478027774
 20
311.581638471287
 30
0.0
  0
VERTEX
  5
1CD
  8
0
 10
160.1371478027774
 20
311.581638471287
 30
0.0
  0
SEQEND
  5
453
  8
0
  0
POLYLINE
  5
7F
  8
0
 66
     1
 10
0.0
 20
0.0
 30
0.0
  0
VERTEX
  5
1CE
  8
0
 10
163.1371478027774
 20
311.581638471287
 30
0.0
  0
VERTEX
  5
1CF
  8
0
 10
164.0871478027774
 20
311.581638471287
 30
0.0
  0
SEQEND
  5
454
  8
0
  0
POLYLINE
  5
80
  8
0
 66
     1
 10
0.0
 20
0.0
 30
0.0
  0
VERTEX
  5
1D0
  8
0
 10
164.5871478027774
 20
313.981638471287
 30
0.0
  0
VERTEX
  5
1D1
  8
0
 10
163.1371478027774
 20
313.981638471287
 30
0.0
  0
SEQEND
  5
455
  8
0
  0
POLYLINE
  5
81
  8
0
 66
     1
 10
0.0
 20
0.0
 30
0.0
  0
VERTEX
  5
1D2
  8
0
 10
160.1371478027774
 20
313.981638471287
 30
0.0
  0
VERTEX
  5
1D3
  8
0
 10
158.6871478027774
 20
313.981638471287
 30
0.0
  0
SEQEND
  5
456
  8
0
  0
POLYLINE
  5
82
  8
0
 66
     1
 10
0.0
 20
0.0
 30
0.0
  0
VERTEX
  5
1D4
  8
0
 10
132.5871478027774
 20
313.981638471287
 30
0.0
  0
VERTEX
  5
1D5
  8
0
 10
131.1371478027774
 20
313.981638471287
 30
0.0
  0
SEQEND
  5
457
  8
0
  0
POLYLINE
  5
83
  8
0
 66
     1
 10
0.0
 20
0.0
 30
0.0
  0
VERTEX
  5
1D6
  8
0
 10
128.1371478027774
 20
313.981638471287
 30
0.0
  0
VERTEX
  5
1D7
  8
0
 10
126.6871478027774
 20
313.981638471287
 30
0.0
  0
SEQEND
  5
458
  8
0
  0
POLYLINE
  5
84
  8
0
 66
     1
 10
0.0
 20
0.0
 30
0.0
  0
VERTEX
  5
1D8
  8
0
 10
163.1371478027774
 20
314.581638471287
 30
0.0
  0
VERTEX
  5
1D9
  8
0
 10
160.1371478027774
 20
314.581638471287
 30
0.0
  0
SEQEND
  5
459
  8
0
  0
POLYLINE
  5
85
  8
0
 66
     1
 10
0.0
 20
0.0
 30
0.0
  0
VERTEX
  5
1DA
  8
0
 10
131.1371478027774
 20
314.581638471287
 30
0.0
  0
VERTEX
  5
1DB
  8
0
 10
128.1371478027774
 20
314.581638471287
 30
0.0
  0
SEQEND
  5
45A
  8
0
  0
POLYLINE
  5
86
  8
0
 66
     1
 10
0.0
 20
0.0
 30
0.0
  0
VERTEX
  5
1DC
  8
0
 10
150.6371478027774
 20
305.981638471287
 30
0.0
  0
VERTEX
  5
1DD
  8
0
 10
150.6371478027774
 20
308.981638471287
 30
0.0
  0
SEQEND
  5
45B
  8
0
  0
POLYLINE
  5
87
  8
0
 66
     1
 10
0.0
 20
0.0
 30
0.0
  0
VERTEX
  5
1DE
  8
0
 10
175.1371478027774
 20
322.981638471287
 30
0.0
  0
VERTEX
  5
1DF
  8
0
 10
116.1371478027774
 20
322.981638471287
 30
0.0
  0
SEQEND
  5
45C
  8
0
  0
POLYLINE
  5
88
  8
0
 66
     1
 10
0.0
 20
0.0
 30
0.0
  0
VERTEX
  5
1E0
  8
0
 10
158.6871478027774
 20
313.981638471287
 30
0.0
  0
VERTEX
  5
1E1
  8
0
 10
158.6871478027774
 20
312.081638471287
 30
0.0
  0
SEQEND
  5
45D
  8
0
  0
POLYLINE
  5
89
  8
0
 66
     1
 10
0.0
 20
0.0
 30
0.0
  0
VERTEX
  5
1E2
  8
0
 10
160.1371478027774
 20
314.581638471287
 30
0.0
  0
VERTEX
  5
1E3
  8
0
 10
160.1371478027774
 20
313.981638471287
 30
0.0
  0
SEQEND
  5
45E
  8
0
  0
POLYLINE
  5
8A
  8
0
 66
     1
 10
0.0
 20
0.0
 30
0.0
  0
VERTEX
  5
1E4
  8
0
 10
160.1371478027774
 20
311.581638471287
 30
0.0
  0
VERTEX
  5
1E5
  8
0
 10
160.1371478027774
 20
308.981638471287
 30
0.0
  0
SEQEND
  5
45F
  8
0
  0
POLYLINE
  5
8B
  8
0
 66
     1
 10
0.0
 20
0.0
 30
0.0
  0
VERTEX
  5
1E6
  8
0
 10
163.1371478027774
 20
308.981638471287
 30
0.0
  0
VERTEX
  5
1E7
  8
0
 10
163.1371478027774
 20
311.581638471287
 30
0.0
  0
SEQEND
  5
460
  8
0
  0
POLYLINE
  5
8C
  8
0
 66
     1
 10
0.0
 20
0.0
 30
0.0
  0
VERTEX
  5
1E8
  8
0
 10
163.1371478027774
 20
313.981638471287
 30
0.0
  0
VERTEX
  5
1E9
  8
0
 10
163.1371478027774
 20
314.581638471287
 30
0.0
  0
SEQEND
  5
461
  8
0
  0
POLYLINE
  5
8D
  8
0
 66
     1
 10
0.0
 20
0.0
 30
0.0
  0
VERTEX
  5
1EA
  8
0
 10
164.5871478027774
 20
312.081638471287
 30
0.0
  0
VERTEX
  5
1EB
  8
0
 10
164.5871478027774
 20
313.981638471287
 30
0.0
  0
SEQEND
  5
462
  8
0
  0
POLYLINE
  5
8E
  8
0
 66
     1
 10
0.0
 20
0.0
 30
0.0
  0
VERTEX
  5
1EC
  8
0
 10
177.6371478027774
 20
308.981638471287
 30
0.0
  0
VERTEX
  5
1ED
  8
0
 10
177.6371478027774
 20
320.481638471287
 30
0.0
  0
SEQEND
  5
463
  8
0
  0
POLYLINE
  5
8F
  8
0
 66
     1
 10
0.0
 20
0.0
 30
0.0
  0
VERTEX
  5
1EE
  8
0
 10
116.1371478027774
 20
322.981638471287
 30
0.0
 42
0.4142135623731008
  0
VERTEX
  5
1EF
  8
0
 10
113.6371478027774
 20
320.481638471287
 30
0.0
  0
SEQEND
  5
464
  8
0
  0
POLYLINE
  5
90
  8
0
 66
     1
 10
0.0
 20
0.0
 30
0.0
  0
VERTEX
  5
1F0
  8
0
 10
177.6371478027774
 20
320.481638471287
 30
0.0
 42
0.4142135623731065
  0
VERTEX
  5
1F1
  8
0
 10
175.1371478027774
 20
322.981638471287
 30
0.0
  0
SEQEND
  5
465
  8
0
  0
POLYLINE
  5
91
  8
0
 66
     1
 10
0.0
 20
0.0
 30
0.0
  0
VERTEX
  5
1F2
  8
0
 10
164.0871478027774
 20
311.581638471287
 30
0.0
 42
0.4142135623731065
  0
VERTEX
  5
1F3
  8
0
 10
164.5871478027774
 20
312.081638471287
 30
0.0
  0
SEQEND
  5
466
  8
0
  0
POLYLINE
  5
92
  8
0
 66
     1
 10
0.0
 20
0.0
 30
0.0
  0
VERTEX
  5
1F4
  8
0
 10
158.6871478027774
 20
312.081638471287
 30
0.0
 42
0.4142135623731065
  0
VERTEX
  5
1F5
  8
0
 10
159.1871478027774
 20
311.581638471287
 30
0.0
  0
SEQEND
  5
467
  8
0
  0
POLYLINE
  5
93
  8
0
 66
     1
 10
0.0
 20
0.0
 30
0.0
  0
VERTEX
  5
1F6
  8
0
 10
132.0871478027774
 20
311.581638471287
 30
0.0
 42
0.4142135623731065
  0
VERTEX
  5
1F7
  8
0
 10
132.5871478027774
 20
312.081638471287
 30
0.0
  0
SEQEND
  5
468
  8
0
  0
POLYLINE
  5
94
  8
0
 66
     1
 10
0.0
 20
0.0
 30
0.0
  0
VERTEX
  5
1F8
  8
0
 10
126.6871478027774
 20
312.081638471287
 30
0.0
 42
0.4142135623731065
  0
VERTEX
  5
1F9
  8
0
 10
127.1871478027774
 20
311.581638471287
 30
0.0
  0
SEQEND
  5
469
  8
0
  0
POLYLINE
  5
96
  8
02___PRT_ALL_AXES
 66
     1
 10
0.0
 20
0.0
 30
0.0
  0
VERTEX
  5
1FA
  8
02___PRT_ALL_AXES
 10
85.4269817012
 20
281.4364654029
 30
0.0
  0
VERTEX
  5
1FB
  8
02___PRT_ALL_AXES
 10
85.0251844125
 20
275.6904964737
 30
0.0
  0
SEQEND
  5
46A
  8
02___PRT_ALL_AXES
  0
POLYLINE
  5
97
  8
02___PRT_ALL_AXES
 66
     1
 10
0.0
 20
0.0
 30
0.0
  0
VERTEX
  5
1FC
  8
02___PRT_ALL_AXES
 10
86.6812877651
 20
273.1606690641
 30
0.0
  0
VERTEX
  5
1FD
  8
02___PRT_ALL_AXES
 10
117.4002501496
 20
262.2342196563
 30
0.0
  0
SEQEND
  5
46B
  8
02___PRT_ALL_AXES
  0
POLYLINE
  5
98
  8
02___PRT_ALL_AXES
 66
     1
 10
0.0
 20
0.0
 30
0.0
  0
VERTEX
  5
1FE
  8
02___PRT_ALL_AXES
 10
149.9939984509
 20
273.4932354154
 30
0.0
  0
VERTEX
  5
1FF
  8
02___PRT_ALL_AXES
 10
151.0319127979
 20
273.6812053255
 30
0.0
  0
SEQEND
  5
46C
  8
02___PRT_ALL_AXES
  0
POLYLINE
  5
99
  8
02___PRT_ALL_AXES
 66
     1
 10
0.0
 20
0.0
 30
0.0
  0
VERTEX
  5
200
  8
02___PRT_ALL_AXES
 10
149.458266031
 20
279.9927577743
 30
0.0
  0
VERTEX
  5
201
  8
02___PRT_ALL_AXES
 10
148.4535955293
 20
279.6714540835
 30
0.0
  0
SEQEND
  5
46D
  8
02___PRT_ALL_AXES
  0
POLYLINE
  5
9A
  8
02___PRT_ALL_AXES
 66
     1
 10
0.0
 20
0.0
 30
0.0
  0
VERTEX
  5
202
  8
02___PRT_ALL_AXES
 10
117.1591151334
 20
276.2813768665
 30
0.0
  0
VERTEX
  5
203
  8
02___PRT_ALL_AXES
 10
115.1924625992
 20
280.645149619
 30
0.0
  0
SEQEND
  5
46E
  8
02___PRT_ALL_AXES
  0
POLYLINE
  5
9B
  8
02___PRT_ALL_AXES
 66
     1
 10
0.0
 20
0.0
 30
0.0
  0
VERTEX
  5
204
  8
02___PRT_ALL_AXES
 10
149.2018431352
 20
271.1189448119
 30
0.0
  0
VERTEX
  5
205
  8
02___PRT_ALL_AXES
 10
150.247044235
 20
270.9769816478
 30
0.0
  0
SEQEND
  5
46F
  8
02___PRT_ALL_AXES
  0
POLYLINE
  5
9C
  8
02___PRT_ALL_AXES
 66
     1
 10
0.0
 20
0.0
 30
0.0
  0
VERTEX
  5
206
  8
02___PRT_ALL_AXES
 10
150.7007941905
 20
277.4659083263
 30
0.0
  0
VERTEX
  5
207
  8
02___PRT_ALL_AXES
 10
149.6460074623
 20
277.4707906162
 30
0.0
  0
SEQEND
  5
470
  8
02___PRT_ALL_AXES
  0
POLYLINE
  5
9D
  8
02___PRT_ALL_AXES
 66
     1
 10
0.0
 20
0.0
 30
0.0
  0
VERTEX
  5
208
  8
02___PRT_ALL_AXES
 10
147.4957121066
 20
282.0119720903
 30
0.0
  0
VERTEX
  5
209
  8
02___PRT_ALL_AXES
 10
146.63950198
 20
281.3959338626
 30
0.0
  0
SEQEND
  5
471
  8
02___PRT_ALL_AXES
  0
POLYLINE
  5
9E
  8
02___PRT_ALL_AXES
 66
     1
 10
0.0
 20
0.0
 30
0.0
  0
VERTEX
  5
20A
  8
02___PRT_ALL_AXES
 10
113.5085948562
 20
281.8185217612
 30
0.0
  0
VERTEX
  5
20B
  8
02___PRT_ALL_AXES
 10
105.7043735431
 20
282.3642460777
 30
0.0
  0
SEQEND
  5
472
  8
02___PRT_ALL_AXES
  0
POLYLINE
  5
9F
  8
02___PRT_ALL_AXES
 66
     1
 10
0.0
 20
0.0
 30
0.0
  0
VERTEX
  5
20C
  8
02___PRT_ALL_AXES
 10
95.7287330408
 20
283.0618108155
 30
0.0
  0
VERTEX
  5
20D
  8
02___PRT_ALL_AXES
 10
87.9245117271
 20
283.6075351321
 30
0.0
  0
SEQEND
  5
473
  8
02___PRT_ALL_AXES
  0
POLYLINE
  5
A0
  8
02___PRT_ALL_AXES
 66
     1
 10
0.0
 20
0.0
 30
0.0
  0
VERTEX
  5
20E
  8
02___PRT_ALL_AXES
 10
147.7147625143
 20
269.1056497165
 30
0.0
  0
VERTEX
  5
20F
  8
02___PRT_ALL_AXES
 10
148.6649388008
 20
268.6476498219
 30
0.0
  0
SEQEND
  5
474
  8
02___PRT_ALL_AXES
  0
POLYLINE
  5
A1
  8
02___PRT_ALL_AXES
 66
     1
 10
0.0
 20
0.0
 30
0.0
  0
VERTEX
  5
210
  8
02___PRT_ALL_AXES
 10
150.0136867797
 20
275.9961094202
 30
0.0
  0
VERTEX
  5
211
  8
02___PRT_ALL_AXES
 10
150.9427160861
 20
276.4956126
 30
0.0
  0
SEQEND
  5
475
  8
02___PRT_ALL_AXES
  0
POLYLINE
  5
A2
  8
02___PRT_ALL_AXES
 66
     1
 10
0.0
 20
0.0
 30
0.0
  0
VERTEX
  5
212
  8
02___PRT_ALL_AXES
 10
151.1016692717
 20
274.6787693758
 30
0.0
  0
VERTEX
  5
213
  8
02___PRT_ALL_AXES
 10
150.100016191
 20
275.0093597339
 30
0.0
  0
SEQEND
  5
476
  8
02___PRT_ALL_AXES
  0
POLYLINE
  5
A3
  8
02___PRT_ALL_AXES
 66
     1
 10
0.0
 20
0.0
 30
0.0
  0
VERTEX
  5
214
  8
02___PRT_ALL_AXES
 10
145.0052408692
 20
283.3258965082
 30
0.0
  0
VERTEX
  5
215
  8
02___PRT_ALL_AXES
 10
144.3813029305
 20
282.4754258576
 30
0.0
  0
SEQEND
  5
477
  8
02___PRT_ALL_AXES
  0
POLYLINE
  5
A4
  8
02___PRT_ALL_AXES
 66
     1
 10
0.0
 20
0.0
 30
0.0
  0
VERTEX
  5
216
  8
02___PRT_ALL_AXES
 10
136.4903981775
 20
280.5080023349
 30
0.0
  0
VERTEX
  5
217
  8
02___PRT_ALL_AXES
 10
135.540221891
 20
280.9660022295
 30
0.0
  0
SEQEND
  5
478
  8
02___PRT_ALL_AXES
  0
POLYLINE
  5
A5
  8
02___PRT_ALL_AXES
 66
     1
 10
0.0
 20
0.0
 30
0.0
  0
VERTEX
  5
218
  8
02___PRT_ALL_AXES
 10
149.2589808909
 20
278.3825680801
 30
0.0
  0
VERTEX
  5
219
  8
02___PRT_ALL_AXES
 10
149.9881852953
 20
279.1447096782
 30
0.0
  0
SEQEND
  5
479
  8
02___PRT_ALL_AXES
  0
POLYLINE
  5
A6
  8
02___PRT_ALL_AXES
 66
     1
 10
0.0
 20
0.0
 30
0.0
  0
VERTEX
  5
21A
  8
02___PRT_ALL_AXES
 10
150.6216508284
 20
271.9041655024
 30
0.0
  0
VERTEX
  5
21B
  8
02___PRT_ALL_AXES
 10
149.7711801778
 20
272.528103441
 30
0.0
  0
SEQEND
  5
47A
  8
02___PRT_ALL_AXES
  0
POLYLINE
  5
A7
  8
02___PRT_ALL_AXES
 66
     1
 10
0.0
 20
0.0
 30
0.0
  0
VERTEX
  5
21C
  8
02___PRT_ALL_AXES
 10
134.8974342813
 20
280.1999577864
 30
0.0
  0
VERTEX
  5
21D
  8
02___PRT_ALL_AXES
 10
135.5080561455
 20
279.3512756752
 30
0.0
  0
SEQEND
  5
47B
  8
02___PRT_ALL_AXES
  0
POLYLINE
  5
A8
  8
02___PRT_ALL_AXES
 66
     1
 10
0.0
 20
0.0
 30
0.0
  0
VERTEX
  5
21E
  8
02___PRT_ALL_AXES
 10
142.2306369958
 20
283.8059149515
 30
0.0
  0
VERTEX
  5
21F
  8
02___PRT_ALL_AXES
 10
141.9000466377
 20
282.8042618709
 30
0.0
  0
SEQEND
  5
47C
  8
02___PRT_ALL_AXES
  0
POLYLINE
  5
A9
  8
02___PRT_ALL_AXES
 66
     1
 10
0.0
 20
0.0
 30
0.0
  0
VERTEX
  5
220
  8
02___PRT_ALL_AXES
 10
138.5268382915
 20
281.9632265707
 30
0.0
  0
VERTEX
  5
221
  8
02___PRT_ALL_AXES
 10
137.7646966934
 20
282.6924309751
 30
0.0
  0
SEQEND
  5
47D
  8
02___PRT_ALL_AXES
  0
POLYLINE
  5
AA
  8
02___PRT_ALL_AXES
 66
     1
 10
0.0
 20
0.0
 30
0.0
  0
VERTEX
  5
222
  8
02___PRT_ALL_AXES
 10
136.9166485973
 20
282.1625117109
 30
0.0
  0
VERTEX
  5
223
  8
02___PRT_ALL_AXES
 10
137.2379522881
 20
281.1578412091
 30
0.0
  0
SEQEND
  5
47E
  8
02___PRT_ALL_AXES
  0
POLYLINE
  5
AB
  8
02___PRT_ALL_AXES
 66
     1
 10
0.0
 20
0.0
 30
0.0
  0
VERTEX
  5
224
  8
02___PRT_ALL_AXES
 10
139.4434980453
 20
283.4050398704
 30
0.0
  0
VERTEX
  5
225
  8
02___PRT_ALL_AXES
 10
139.4386157554
 20
282.3502531421
 30
0.0
  0
SEQEND
  5
47F
  8
02___PRT_ALL_AXES
  0
POLYLINE
  5
AC
  8
02___PRT_ALL_AXES
 66
     1
 10
0.0
 20
0.0
 30
0.0
  0
VERTEX
  5
226
  8
02___PRT_ALL_AXES
 10
147.8037566551
 20
280.4190081941
 30
0.0
  0
VERTEX
  5
227
  8
02___PRT_ALL_AXES
 10
148.2617565497
 20
281.3691844806
 30
0.0
  0
SEQEND
  5
480
  8
02___PRT_ALL_AXES
  0
POLYLINE
  5
AD
  8
02___PRT_ALL_AXES
 66
     1
 10
0.0
 20
0.0
 30
0.0
  0
VERTEX
  5
228
  8
02___PRT_ALL_AXES
 10
149.3077264104
 20
269.413694265
 30
0.0
  0
VERTEX
  5
229
  8
02___PRT_ALL_AXES
 10
148.6916881828
 20
270.2699043916
 30
0.0
  0
SEQEND
  5
481
  8
02___PRT_ALL_AXES
  0
POLYLINE
  5
AE
  8
02___PRT_ALL_AXES
 66
     1
 10
0.0
 20
0.0
 30
0.0
  0
VERTEX
  5
22A
  8
02___PRT_ALL_AXES
 10
140.9132969514
 20
282.7179324596
 30
0.0
  0
VERTEX
  5
22B
  8
02___PRT_ALL_AXES
 10
140.4137937716
 20
283.646961766
 30
0.0
  0
SEQEND
  5
482
  8
02___PRT_ALL_AXES
  0
POLYLINE
  5
AF
  8
02___PRT_ALL_AXES
 66
     1
 10
0.0
 20
0.0
 30
0.0
  0
VERTEX
  5
22C
  8
02___PRT_ALL_AXES
 10
145.7904615597
 20
281.9060888151
 30
0.0
  0
VERTEX
  5
22D
  8
02___PRT_ALL_AXES
 10
145.9324247238
 20
282.9512899148
 30
0.0
  0
SEQEND
  5
483
  8
02___PRT_ALL_AXES
  0
POLYLINE
  5
B0
  8
02___PRT_ALL_AXES
 66
     1
 10
0.0
 20
0.0
 30
0.0
  0
VERTEX
  5
22E
  8
02___PRT_ALL_AXES
 10
143.4161709562
 20
282.6982441308
 30
0.0
  0
VERTEX
  5
22F
  8
02___PRT_ALL_AXES
 10
143.2282010461
 20
283.7361584778
 30
0.0
  0
SEQEND
  5
484
  8
02___PRT_ALL_AXES
  0
POLYLINE
  5
B1
  8
02___PRT_ALL_AXES
 66
     1
 10
0.0
 20
0.0
 30
0.0
  0
VERTEX
  5
230
  8
02___PRT_ALL_AXES
 10
122.7790252328
 20
276.8945655259
 30
0.0
  0
VERTEX
  5
231
  8
02___PRT_ALL_AXES
 10
122.7470930226
 20
275.8402509557
 30
0.0
  0
SEQEND
  5
485
  8
02___PRT_ALL_AXES
  0
POLYLINE
  5
B2
  8
02___PRT_ALL_AXES
 66
     1
 10
0.0
 20
0.0
 30
0.0
  0
VERTEX
  5
232
  8
02___PRT_ALL_AXES
 10
125.2231120018
 20
276.354930668
 30
0.0
  0
VERTEX
  5
233
  8
02___PRT_ALL_AXES
 10
125.5185437848
 20
275.3423503303
 30
0.0
  0
SEQEND
  5
486
  8
02___PRT_ALL_AXES
  0
POLYLINE
  5
B3
  8
02___PRT_ALL_AXES
 66
     1
 10
0.0
 20
0.0
 30
0.0
  0
VERTEX
  5
234
  8
02___PRT_ALL_AXES
 10
120.6213169266
 20
278.1630531212
 30
0.0
  0
VERTEX
  5
235
  8
02___PRT_ALL_AXES
 10
120.2651464704
 20
277.1702079747
 30
0.0
  0
SEQEND
  5
487
  8
02___PRT_ALL_AXES
  0
POLYLINE
  5
B4
  8
02___PRT_ALL_AXES
 66
     1
 10
0.0
 20
0.0
 30
0.0
  0
VERTEX
  5
236
  8
02___PRT_ALL_AXES
 10
127.7143329917
 20
276.5969717674
 30
0.0
  0
VERTEX
  5
237
  8
02___PRT_ALL_AXES
 10
128.3082098465
 20
275.7252440805
 30
0.0
  0
SEQEND
  5
488
  8
02___PRT_ALL_AXES
  0
POLYLINE
  5
B5
  8
02___PRT_ALL_AXES
 66
     1
 10
0.0
 20
0.0
 30
0.0
  0
VERTEX
  5
238
  8
02___PRT_ALL_AXES
 10
129.2479024673
 20
276.0672642239
 30
0.0
  0
VERTEX
  5
239
  8
02___PRT_ALL_AXES
 10
129.1425027757
 20
277.1167830583
 30
0.0
  0
SEQEND
  5
489
  8
02___PRT_ALL_AXES
  0
POLYLINE
  5
B6
  8
02___PRT_ALL_AXES
 66
     1
 10
0.0
 20
0.0
 30
0.0
  0
VERTEX
  5
23A
  8
02___PRT_ALL_AXES
 10
117.9752175221
 20
288.9508711417
 30
0.0
  0
VERTEX
  5
23B
  8
02___PRT_ALL_AXES
 10
118.6773793567
 20
288.1637449531
 30
0.0
  0
SEQEND
  5
48A
  8
02___PRT_ALL_AXES
  0
POLYLINE
  5
B7
  8
02___PRT_ALL_AXES
 66
     1
 10
0.0
 20
0.0
 30
0.0
  0
VERTEX
  5
23C
  8
02___PRT_ALL_AXES
 10
126.5179346118
 20
275.377249827
 30
0.0
  0
VERTEX
  5
23D
  8
02___PRT_ALL_AXES
 10
126.7420127041
 20
276.4079718494
 30
0.0
  0
SEQEND
  5
48B
  8
02___PRT_ALL_AXES
  0
POLYLINE
  5
B8
  8
02___PRT_ALL_AXES
 66
     1
 10
0.0
 20
0.0
 30
0.0
  0
VERTEX
  5
23E
  8
02___PRT_ALL_AXES
 10
118.9611986058
 20
280.0362250501
 30
0.0
  0
VERTEX
  5
23F
  8
02___PRT_ALL_AXES
 10
118.3156543494
 20
279.2020359276
 30
0.0
  0
SEQEND
  5
48C
  8
02___PRT_ALL_AXES
  0
POLYLINE
  5
B9
  8
02___PRT_ALL_AXES
 66
     1
 10
0.0
 20
0.0
 30
0.0
  0
VERTEX
  5
240
  8
02___PRT_ALL_AXES
 10
130.0088301346
 20
277.5969961548
 30
0.0
  0
VERTEX
  5
241
  8
02___PRT_ALL_AXES
 10
130.843019257
 20
276.9514518985
 30
0.0
  0
SEQEND
  5
48D
  8
02___PRT_ALL_AXES
  0
POLYLINE
  5
BA
  8
02___PRT_ALL_AXES
 66
     1
 10
0.0
 20
0.0
 30
0.0
  0
VERTEX
  5
242
  8
02___PRT_ALL_AXES
 10
131.6310300106
 20
277.5671133738
 30
0.0
  0
VERTEX
  5
243
  8
02___PRT_ALL_AXES
 10
131.2064697913
 20
278.5326948044
 30
0.0
  0
SEQEND
  5
48E
  8
02___PRT_ALL_AXES
  0
POLYLINE
  5
BB
  8
02___PRT_ALL_AXES
 66
     1
 10
0.0
 20
0.0
 30
0.0
  0
VERTEX
  5
244
  8
02___PRT_ALL_AXES
 10
123.7083547185
 20
275.5646135999
 30
0.0
  0
VERTEX
  5
245
  8
02___PRT_ALL_AXES
 10
124.2399762697
 20
276.4756445572
 30
0.0
  0
SEQEND
  5
48F
  8
02___PRT_ALL_AXES
  0
POLYLINE
  5
BC
  8
02___PRT_ALL_AXES
 66
     1
 10
0.0
 20
0.0
 30
0.0
  0
VERTEX
  5
246
  8
02___PRT_ALL_AXES
 10
116.9288160508
 20
286.3367004661
 30
0.0
  0
VERTEX
  5
247
  8
02___PRT_ALL_AXES
 10
117.8398470081
 20
285.8050789149
 30
0.0
  0
SEQEND
  5
490
  8
02___PRT_ALL_AXES
  0
POLYLINE
  5
BD
  8
02___PRT_ALL_AXES
 66
     1
 10
0.0
 20
0.0
 30
0.0
  0
VERTEX
  5
248
  8
02___PRT_ALL_AXES
 10
133.4340401135
 20
279.729981592
 30
0.0
  0
VERTEX
  5
249
  8
02___PRT_ALL_AXES
 10
132.7380518628
 20
280.5101871687
 30
0.0
  0
SEQEND
  5
491
  8
02___PRT_ALL_AXES
  0
POLYLINE
  5
BE
  8
02___PRT_ALL_AXES
 66
     1
 10
0.0
 20
0.0
 30
0.0
  0
VERTEX
  5
24A
  8
02___PRT_ALL_AXES
 10
131.8820020635
 20
279.2571144756
 30
0.0
  0
VERTEX
  5
24B
  8
02___PRT_ALL_AXES
 10
132.87484721
 20
278.9009440194
 30
0.0
  0
SEQEND
  5
492
  8
02___PRT_ALL_AXES
  0
POLYLINE
  5
BF
  8
02___PRT_ALL_AXES
 66
     1
 10
0.0
 20
0.0
 30
0.0
  0
VERTEX
  5
24C
  8
02___PRT_ALL_AXES
 10
117.9611742183
 20
282.330722193
 30
0.0
  0
VERTEX
  5
24D
  8
02___PRT_ALL_AXES
 10
117.0894465315
 20
281.7368453381
 30
0.0
  0
SEQEND
  5
493
  8
02___PRT_ALL_AXES
  0
POLYLINE
  5
C0
  8
02___PRT_ALL_AXES
 66
     1
 10
0.0
 20
0.0
 30
0.0
  0
VERTEX
  5
24E
  8
02___PRT_ALL_AXES
 10
121.0941840429
 20
276.6110150712
 30
0.0
  0
VERTEX
  5
24F
  8
02___PRT_ALL_AXES
 10
121.8813102316
 20
277.3131769058
 30
0.0
  0
SEQEND
  5
494
  8
02___PRT_ALL_AXES
  0
POLYLINE
  5
C1
  8
02___PRT_ALL_AXES
 66
     1
 10
0.0
 20
0.0
 30
0.0
  0
VERTEX
  5
250
  8
02___PRT_ALL_AXES
 10
116.7414522779
 20
283.5271205729
 30
0.0
  0
VERTEX
  5
251
  8
02___PRT_ALL_AXES
 10
117.7721743003
 20
283.3030424806
 30
0.0
  0
SEQEND
  5
495
  8
02___PRT_ALL_AXES
  0
POLYLINE
  5
C2
  8
02___PRT_ALL_AXES
 66
     1
 10
0.0
 20
0.0
 30
0.0
  0
VERTEX
  5
252
  8
02___PRT_ALL_AXES
 10
154.8748952432
 20
280.3560267962
 30
0.0
  0
VERTEX
  5
253
  8
02___PRT_ALL_AXES
 10
162.6934079396
 20
280.6290552755
 30
0.0
  0
SEQEND
  5
496
  8
02___PRT_ALL_AXES
  0
POLYLINE
  5
C3
  8
02___PRT_ALL_AXES
 66
     1
 10
0.0
 20
0.0
 30
0.0
  0
VERTEX
  5
254
  8
02___PRT_ALL_AXES
 10
172.6873162095
 20
280.9780502421
 30
0.0
  0
VERTEX
  5
255
  8
02___PRT_ALL_AXES
 10
180.5058289064
 20
281.2510787214
 30
0.0
  0
SEQEND
  5
497
  8
02___PRT_ALL_AXES
  0
POLYLINE
  5
C4
  8
02___PRT_ALL_AXES
 66
     1
 10
0.0
 20
0.0
 30
0.0
  0
VERTEX
  5
256
  8
02___PRT_ALL_AXES
 10
119.5272555721
 20
289.4237382581
 30
0.0
  0
VERTEX
  5
257
  8
02___PRT_ALL_AXES
 10
118.5344104256
 20
289.7799087143
 30
0.0
  0
SEQEND
  5
498
  8
02___PRT_ALL_AXES
  0
POLYLINE
  5
C5
  8
02___PRT_ALL_AXES
 66
     1
 10
0.0
 20
0.0
 30
0.0
  0
VERTEX
  5
258
  8
02___PRT_ALL_AXES
 10
117.719133119
 20
284.8219431829
 30
0.0
  0
VERTEX
  5
259
  8
02___PRT_ALL_AXES
 10
116.7065527812
 20
284.5265113999
 30
0.0
  0
SEQEND
  5
499
  8
02___PRT_ALL_AXES
  0
POLYLINE
  5
C6
  8
02___PRT_ALL_AXES
 66
     1
 10
0.0
 20
0.0
 30
0.0
  0
VERTEX
  5
25A
  8
02___PRT_ALL_AXES
 10
118.9313158247
 20
278.414025174
 30
0.0
  0
VERTEX
  5
25B
  8
02___PRT_ALL_AXES
 10
119.8968972553
 20
278.8385853933
 30
0.0
  0
SEQEND
  5
49A
  8
02___PRT_ALL_AXES
  0
POLYLINE
  5
C7
  8
02___PRT_ALL_AXES
 66
     1
 10
0.0
 20
0.0
 30
0.0
  0
VERTEX
  5
25C
  8
02___PRT_ALL_AXES
 10
117.4314666748
 20
280.7971527173
 30
0.0
  0
VERTEX
  5
25D
  8
02___PRT_ALL_AXES
 10
118.4809855092
 20
280.9025524089
 30
0.0
  0
SEQEND
  5
49B
  8
02___PRT_ALL_AXES
  0
POLYLINE
  5
C8
  8
02___PRT_ALL_AXES
 66
     1
 10
0.0
 20
0.0
 30
0.0
  0
VERTEX
  5
25E
  8
02___PRT_ALL_AXES
 10
118.2587679768
 20
287.2660299519
 30
0.0
  0
VERTEX
  5
25F
  8
02___PRT_ALL_AXES
 10
117.2044534066
 20
287.2979621621
 30
0.0
  0
SEQEND
  5
49C
  8
02___PRT_ALL_AXES
  0
POLYLINE
  5
C9
  8
02___PRT_ALL_AXES
 66
     1
 10
0.0
 20
0.0
 30
0.0
  0
VERTEX
  5
260
  8
02___PRT_ALL_AXES
 10
150.6655836514
 20
285.4812553571
 30
0.0
  0
VERTEX
  5
261
  8
02___PRT_ALL_AXES
 10
153.0776011171
 20
281.3469589755
 30
0.0
  0
SEQEND
  5
49D
  8
02___PRT_ALL_AXES
  0
POLYLINE
  5
CA
  8
02___PRT_ALL_AXES
 66
     1
 10
0.0
 20
0.0
 30
0.0
  0
VERTEX
  5
262
  8
02___PRT_ALL_AXES
 10
180.6502475015
 20
291.7706680542
 30
0.0
  0
VERTEX
  5
263
  8
02___PRT_ALL_AXES
 10
148.9574418415
 20
299.4262552977
 30
0.0
  0
SEQEND
  5
49E
  8
02___PRT_ALL_AXES
  0
POLYLINE
  5
CB
  8
02___PRT_ALL_AXES
 66
     1
 10
0.0
 20
0.0
 30
0.0
  0
VERTEX
  5
264
  8
02___PRT_ALL_AXES
 10
182.7627386191
 20
283.6713180789
 30
0.0
  0
VERTEX
  5
265
  8
02___PRT_ALL_AXES
 10
182.5617175181
 20
289.4278092423
 30
0.0
  0
SEQEND
  5
49F
  8
02___PRT_ALL_AXES
  0
POLYLINE
  5
CC
  8
02___PRT_ALL_AXES
 66
     1
 10
0.0
 20
0.0
 30
0.0
  0
VERTEX
  5
266
  8
02___PRT_ALL_AXES
 10
153.0323999144
 20
270.3518906874
 30
0.0
  0
VERTEX
  5
267
  8
02___PRT_ALL_AXES
 10
152.9318740533
 20
276.1110134115
 30
0.0
  0
SEQEND
  5
4A0
  8
02___PRT_ALL_AXES
  0
POLYLINE
  5
CD
  8
02___PRT_ALL_AXES
 66
     1
 10
0.0
 20
0.0
 30
0.0
  0
VERTEX
  5
268
  8
02___PRT_ALL_AXES
 10
186.4570605403
 20
259.7684919699
 30
0.0
  0
VERTEX
  5
269
  8
02___PRT_ALL_AXES
 10
154.9026902806
 20
267.9760289526
 30
0.0
  0
SEQEND
  5
4A1
  8
02___PRT_ALL_AXES
  0
POLYLINE
  5
CE
  8
02___PRT_ALL_AXES
 66
     1
 10
0.0
 20
0.0
 30
0.0
  0
VERTEX
  5
26A
  8
02___PRT_ALL_AXES
 10
218.7986777946
 20
272.7004482198
 30
0.0
  0
VERTEX
  5
26B
  8
02___PRT_ALL_AXES
 10
217.7501796366
 20
272.5853374398
 30
0.0
  0
SEQEND
  5
4A2
  8
02___PRT_ALL_AXES
  0
POLYLINE
  5
CF
  8
02___PRT_ALL_AXES
 66
     1
 10
0.0
 20
0.0
 30
0.0
  0
VERTEX
  5
26C
  8
02___PRT_ALL_AXES
 10
216.6444998074
 20
278.8559593537
 30
0.0
  0
VERTEX
  5
26D
  8
02___PRT_ALL_AXES
 10
217.6691359948
 20
279.1063980934
 30
0.0
  0
SEQEND
  5
4A3
  8
02___PRT_ALL_AXES
  0
POLYLINE
  5
D0
  8
02___PRT_ALL_AXES
 66
     1
 10
0.0
 20
0.0
 30
0.0
  0
VERTEX
  5
26E
  8
02___PRT_ALL_AXES
 10
182.653056025
 20
277.916941419
 30
0.0
  0
VERTEX
  5
26F
  8
02___PRT_ALL_AXES
 10
184.9925527079
 20
273.7411792017
 30
0.0
  0
SEQEND
  5
4A4
  8
02___PRT_ALL_AXES
  0
POLYLINE
  5
D1
  8
02___PRT_ALL_AXES
 66
     1
 10
0.0
 20
0.0
 30
0.0
  0
VERTEX
  5
270
  8
02___PRT_ALL_AXES
 10
214.9551189272
 20
280.7027831558
 30
0.0
  0
VERTEX
  5
271
  8
02___PRT_ALL_AXES
 10
215.8522160234
 20
281.2575945461
 30
0.0
  0
SEQEND
  5
4A5
  8
02___PRT_ALL_AXES
  0
POLYLINE
  5
D2
  8
02___PRT_ALL_AXES
 66
     1
 10
0.0
 20
0.0
 30
0.0
  0
VERTEX
  5
272
  8
02___PRT_ALL_AXES
 10
217.827084024
 20
270.0575615583
 30
0.0
  0
VERTEX
  5
273
  8
02___PRT_ALL_AXES
 10
216.7943318313
 20
270.2720884503
 30
0.0
  0
SEQEND
  5
4A6
  8
02___PRT_ALL_AXES
  0
POLYLINE
  5
D3
  8
02___PRT_ALL_AXES
 66
     1
 10
0.0
 20
0.0
 30
0.0
  0
VERTEX
  5
274
  8
02___PRT_ALL_AXES
 10
218.9060214886
 20
275.5142217876
 30
0.0
  0
VERTEX
  5
275
  8
02___PRT_ALL_AXES
 10
217.9444116705
 20
275.0807411809
 30
0.0
  0
SEQEND
  5
4A7
  8
02___PRT_ALL_AXES
  0
POLYLINE
  5
D4
  8
02___PRT_ALL_AXES
 66
     1
 10
0.0
 20
0.0
 30
0.0
  0
VERTEX
  5
276
  8
02___PRT_ALL_AXES
 10
155.2306790292
 20
278.4914956494
 30
0.0
  0
VERTEX
  5
277
  8
02___PRT_ALL_AXES
 10
163.0527659322
 20
278.6280306838
 30
0.0
  0
SEQEND
  5
4A8
  8
02___PRT_ALL_AXES
  0
POLYLINE
  5
D5
  8
02___PRT_ALL_AXES
 66
     1
 10
0.0
 20
0.0
 30
0.0
  0
VERTEX
  5
278
  8
02___PRT_ALL_AXES
 10
173.0512428836
 20
278.8025547477
 30
0.0
  0
VERTEX
  5
279
  8
02___PRT_ALL_AXES
 10
180.8733297865
 20
278.9390897821
 30
0.0
  0
SEQEND
  5
4A9
  8
02___PRT_ALL_AXES
  0
POLYLINE
  5
D6
  8
02___PRT_ALL_AXES
 66
     1
 10
0.0
 20
0.0
 30
0.0
  0
VERTEX
  5
27A
  8
02___PRT_ALL_AXES
 10
217.6804965615
 20
276.5774781403
 30
0.0
  0
VERTEX
  5
27B
  8
02___PRT_ALL_AXES
 10
218.732373311
 20
276.4990295407
 30
0.0
  0
SEQEND
  5
4AA
  8
02___PRT_ALL_AXES
  0
POLYLINE
  5
D7
  8
02___PRT_ALL_AXES
 66
     1
 10
0.0
 20
0.0
 30
0.0
  0
VERTEX
  5
27C
  8
02___PRT_ALL_AXES
 10
203.1580908229
 20
278.6418133666
 30
0.0
  0
VERTEX
  5
27D
  8
02___PRT_ALL_AXES
 10
203.7130386352
 20
279.4317085546
 30
0.0
  0
SEQEND
  5
4AB
  8
02___PRT_ALL_AXES
  0
POLYLINE
  5
D8
  8
02___PRT_ALL_AXES
 66
     1
 10
0.0
 20
0.0
 30
0.0
  0
VERTEX
  5
27E
  8
02___PRT_ALL_AXES
 10
216.0863465448
 20
267.8442659639
 30
0.0
  0
VERTEX
  5
27F
  8
02___PRT_ALL_AXES
 10
215.1691102132
 20
268.3681868803
 30
0.0
  0
SEQEND
  5
4AC
  8
02___PRT_ALL_AXES
  0
POLYLINE
  5
D9
  8
02___PRT_ALL_AXES
 66
     1
 10
0.0
 20
0.0
 30
0.0
  0
VERTEX
  5
280
  8
02___PRT_ALL_AXES
 10
212.7777222922
 20
281.9371695653
 30
0.0
  0
VERTEX
  5
281
  8
02___PRT_ALL_AXES
 10
213.459466183
 20
282.7420448017
 30
0.0
  0
SEQEND
  5
4AD
  8
02___PRT_ALL_AXES
  0
POLYLINE
  5
DA
  8
02___PRT_ALL_AXES
 66
     1
 10
0.0
 20
0.0
 30
0.0
  0
VERTEX
  5
282
  8
02___PRT_ALL_AXES
 10
218.1386075576
 20
278.2234505006
 30
0.0
  0
VERTEX
  5
283
  8
02___PRT_ALL_AXES
 10
217.3580151481
 20
277.514032169
 30
0.0
  0
SEQEND
  5
4AE
  8
02___PRT_ALL_AXES
  0
POLYLINE
  5
DB
  8
02___PRT_ALL_AXES
 66
     1
 10
0.0
 20
0.0
 30
0.0
  0
VERTEX
  5
284
  8
02___PRT_ALL_AXES
 10
217.9616986091
 20
274.090373132
 30
0.0
  0
VERTEX
  5
285
  8
02___PRT_ALL_AXES
 10
218.9378508955
 20
273.6907162886
 30
0.0
  0
SEQEND
  5
4AF
  8
02___PRT_ALL_AXES
  0
POLYLINE
  5
DC
  8
02___PRT_ALL_AXES
 66
     1
 10
0.0
 20
0.0
 30
0.0
  0
VERTEX
  5
286
  8
02___PRT_ALL_AXES
 10
210.3254486557
 20
282.4382882399
 30
0.0
  0
VERTEX
  5
287
  8
02___PRT_ALL_AXES
 10
210.7251054991
 20
283.4144405264
 30
0.0
  0
SEQEND
  5
4B0
  8
02___PRT_ALL_AXES
  0
POLYLINE
  5
DD
  8
02___PRT_ALL_AXES
 66
     1
 10
0.0
 20
0.0
 30
0.0
  0
VERTEX
  5
288
  8
02___PRT_ALL_AXES
 10
203.8528856121
 20
281.0481454546
 30
0.0
  0
VERTEX
  5
289
  8
02___PRT_ALL_AXES
 10
204.7687988592
 20
280.5249802776
 30
0.0
  0
SEQEND
  5
4B1
  8
02___PRT_ALL_AXES
  0
POLYLINE
  5
DE
  8
02___PRT_ALL_AXES
 66
     1
 10
0.0
 20
0.0
 30
0.0
  0
VERTEX
  5
28A
  8
02___PRT_ALL_AXES
 10
207.8383436474
 20
282.1570861924
 30
0.0
  0
VERTEX
  5
28B
  8
02___PRT_ALL_AXES
 10
207.9167922469
 20
283.2089629418
 30
0.0
  0
SEQEND
  5
4B2
  8
02___PRT_ALL_AXES
  0
POLYLINE
  5
DF
  8
02___PRT_ALL_AXES
 66
     1
 10
0.0
 20
0.0
 30
0.0
  0
VERTEX
  5
28C
  8
02___PRT_ALL_AXES
 10
215.1691102132
 20
268.3681868803
 30
0.0
  0
VERTEX
  5
28D
  8
02___PRT_ALL_AXES
 10
215.0539310371
 20
268.2696580166
 30
0.0
  0
SEQEND
  5
4B3
  8
02___PRT_ALL_AXES
  0
POLYLINE
  5
E0
  8
02___PRT_ALL_AXES
 66
     1
 10
0.0
 20
0.0
 30
0.0
  0
VERTEX
  5
28E
  8
02___PRT_ALL_AXES
 10
217.4605799344
 20
271.6380994955
 30
0.0
  0
VERTEX
  5
28F
  8
02___PRT_ALL_AXES
 10
218.2654551708
 20
270.9563556046
 30
0.0
  0
SEQEND
  5
4B4
  8
02___PRT_ALL_AXES
  0
POLYLINE
  5
E1
  8
02___PRT_ALL_AXES
 66
     1
 10
0.0
 20
0.0
 30
0.0
  0
VERTEX
  5
290
  8
02___PRT_ALL_AXES
 10
203.7130386352
 20
279.4317085546
 30
0.0
  0
VERTEX
  5
291
  8
02___PRT_ALL_AXES
 10
203.1582272423
 20
280.328805655
 30
0.0
  0
SEQEND
  5
4B5
  8
02___PRT_ALL_AXES
  0
POLYLINE
  5
E2
  8
02___PRT_ALL_AXES
 66
     1
 10
0.0
 20
0.0
 30
0.0
  0
VERTEX
  5
292
  8
02___PRT_ALL_AXES
 10
205.559862434
 20
281.1210894383
 30
0.0
  0
VERTEX
  5
293
  8
02___PRT_ALL_AXES
 10
205.3094236942
 20
282.1457256256
 30
0.0
  0
SEQEND
  5
4B6
  8
02___PRT_ALL_AXES
  0
POLYLINE
  5
E3
  8
02___PRT_ALL_AXES
 66
     1
 10
0.0
 20
0.0
 30
0.0
  0
VERTEX
  5
294
  8
02___PRT_ALL_AXES
 10
216.5715558238
 20
280.5629361756
 30
0.0
  0
VERTEX
  5
295
  8
02___PRT_ALL_AXES
 10
216.0483906467
 20
279.6470229284
 30
0.0
  0
SEQEND
  5
4B7
  8
02___PRT_ALL_AXES
  0
POLYLINE
  5
E4
  8
02___PRT_ALL_AXES
 66
     1
 10
0.0
 20
0.0
 30
0.0
  0
VERTEX
  5
296
  8
02___PRT_ALL_AXES
 10
206.1923712871
 20
282.6151971884
 30
0.0
  0
VERTEX
  5
297
  8
02___PRT_ALL_AXES
 10
206.9017896186
 20
281.8346047789
 30
0.0
  0
SEQEND
  5
4B8
  8
02___PRT_ALL_AXES
  0
POLYLINE
  5
E5
  8
02___PRT_ALL_AXES
 66
     1
 10
0.0
 20
0.0
 30
0.0
  0
VERTEX
  5
298
  8
02___PRT_ALL_AXES
 10
214.3582602293
 20
282.3036736549
 30
0.0
  0
VERTEX
  5
299
  8
02___PRT_ALL_AXES
 10
214.1437333373
 20
281.2709214622
 30
0.0
  0
SEQEND
  5
4B9
  8
02___PRT_ALL_AXES
  0
POLYLINE
  5
E6
  8
02___PRT_ALL_AXES
 66
     1
 10
0.0
 20
0.0
 30
0.0
  0
VERTEX
  5
29A
  8
02___PRT_ALL_AXES
 10
216.2261935249
 20
269.4607028604
 30
0.0
  0
VERTEX
  5
29B
  8
02___PRT_ALL_AXES
 10
216.7810049152
 20
268.5636057642
 30
0.0
  0
SEQEND
  5
4BA
  8
02___PRT_ALL_AXES
  0
POLYLINE
  5
E7
  8
02___PRT_ALL_AXES
 66
     1
 10
0.0
 20
0.0
 30
0.0
  0
VERTEX
  5
29C
  8
02___PRT_ALL_AXES
 10
208.9016
 20
283.3826111195
 30
0.0
  0
VERTEX
  5
29D
  8
02___PRT_ALL_AXES
 10
209.3350806067
 20
282.4210013013
 30
0.0
  0
SEQEND
  5
4BB
  8
02___PRT_ALL_AXES
  0
POLYLINE
  5
E8
  8
02___PRT_ALL_AXES
 66
     1
 10
0.0
 20
0.0
 30
0.0
  0
VERTEX
  5
29E
  8
02___PRT_ALL_AXES
 10
211.7153735679
 20
283.2752674254
 30
0.0
  0
VERTEX
  5
29F
  8
02___PRT_ALL_AXES
 10
211.8304843478
 20
282.2267692675
 30
0.0
  0
SEQEND
  5
4BC
  8
02___PRT_ALL_AXES
  0
POLYLINE
  5
E9
  8
02___PRT_ALL_AXES
 66
     1
 10
0.0
 20
0.0
 30
0.0
  0
VERTEX
  5
2A0
  8
02___PRT_ALL_AXES
 10
190.8452854734
 20
273.0147202016
 30
0.0
  0
VERTEX
  5
2A1
  8
02___PRT_ALL_AXES
 10
190.7484910414
 20
274.0650676283
 30
0.0
  0
SEQEND
  5
4BD
  8
02___PRT_ALL_AXES
  0
POLYLINE
  5
EA
  8
02___PRT_ALL_AXES
 66
     1
 10
0.0
 20
0.0
 30
0.0
  0
VERTEX
  5
2A2
  8
02___PRT_ALL_AXES
 10
188.2197579858
 20
274.0322907259
 30
0.0
  0
VERTEX
  5
2A3
  8
02___PRT_ALL_AXES
 10
188.4522762153
 20
275.0611416149
 30
0.0
  0
SEQEND
  5
4BE
  8
02___PRT_ALL_AXES
  0
POLYLINE
  5
EB
  8
02___PRT_ALL_AXES
 66
     1
 10
0.0
 20
0.0
 30
0.0
  0
VERTEX
  5
2A4
  8
02___PRT_ALL_AXES
 10
193.6567570842
 20
272.8582857365
 30
0.0
  0
VERTEX
  5
2A5
  8
02___PRT_ALL_AXES
 10
193.240124904
 20
273.8273143766
 30
0.0
  0
SEQEND
  5
4BF
  8
02___PRT_ALL_AXES
  0
POLYLINE
  5
EC
  8
02___PRT_ALL_AXES
 66
     1
 10
0.0
 20
0.0
 30
0.0
  0
VERTEX
  5
2A6
  8
02___PRT_ALL_AXES
 10
186.5762499317
 20
286.9059054047
 30
0.0
  0
VERTEX
  5
2A7
  8
02___PRT_ALL_AXES
 10
186.0371795449
 20
287.8125486626
 30
0.0
  0
SEQEND
  5
4C0
  8
02___PRT_ALL_AXES
  0
POLYLINE
  5
ED
  8
02___PRT_ALL_AXES
 66
     1
 10
0.0
 20
0.0
 30
0.0
  0
VERTEX
  5
2A8
  8
02___PRT_ALL_AXES
 10
194.7412398569
 20
274.0650676283
 30
0.0
  0
VERTEX
  5
2A9
  8
02___PRT_ALL_AXES
 10
194.6444454248
 20
273.0147202016
 30
0.0
  0
SEQEND
  5
4C1
  8
02___PRT_ALL_AXES
  0
POLYLINE
  5
EE
  8
02___PRT_ALL_AXES
 66
     1
 10
0.0
 20
0.0
 30
0.0
  0
VERTEX
  5
2AA
  8
02___PRT_ALL_AXES
 10
186.0371795449
 20
275.8113904167
 30
0.0
  0
VERTEX
  5
2AB
  8
02___PRT_ALL_AXES
 10
186.5762499317
 20
276.7180336745
 30
0.0
  0
SEQEND
  5
4C2
  8
02___PRT_ALL_AXES
  0
POLYLINE
  5
EF
  8
02___PRT_ALL_AXES
 66
     1
 10
0.0
 20
0.0
 30
0.0
  0
VERTEX
  5
2AC
  8
02___PRT_ALL_AXES
 10
187.6522392774
 20
287.9798063418
 30
0.0
  0
VERTEX
  5
2AD
  8
02___PRT_ALL_AXES
 10
187.7691204769
 20
288.0763100453
 30
0.0
  0
SEQEND
  5
4C3
  8
02___PRT_ALL_AXES
  0
POLYLINE
  5
F0
  8
02___PRT_ALL_AXES
 66
     1
 10
0.0
 20
0.0
 30
0.0
  0
VERTEX
  5
2AE
  8
02___PRT_ALL_AXES
 10
185.3040507141
 20
284.750383411
 30
0.0
  0
VERTEX
  5
2AF
  8
02___PRT_ALL_AXES
 10
184.5111961356
 20
285.4460704787
 30
0.0
  0
SEQEND
  5
4C4
  8
02___PRT_ALL_AXES
  0
POLYLINE
  5
F1
  8
02___PRT_ALL_AXES
 66
     1
 10
0.0
 20
0.0
 30
0.0
  0
VERTEX
  5
2B0
  8
02___PRT_ALL_AXES
 10
196.3789663883
 20
273.5783002261
 30
0.0
  0
VERTEX
  5
2B1
  8
02___PRT_ALL_AXES
 10
195.6832793206
 20
274.3711548047
 30
0.0
  0
SEQEND
  5
4C5
  8
02___PRT_ALL_AXES
  0
POLYLINE
  5
F2
  8
02___PRT_ALL_AXES
 66
     1
 10
0.0
 20
0.0
 30
0.0
  0
VERTEX
  5
2B2
  8
02___PRT_ALL_AXES
 10
197.0374546829
 20
275.0611416149
 30
0.0
  0
VERTEX
  5
2B3
  8
02___PRT_ALL_AXES
 10
197.2699729124
 20
274.0322907259
 30
0.0
  0
SEQEND
  5
4C6
  8
02___PRT_ALL_AXES
  0
POLYLINE
  5
F3
  8
02___PRT_ALL_AXES
 66
     1
 10
0.0
 20
0.0
 30
0.0
  0
VERTEX
  5
2B4
  8
02___PRT_ALL_AXES
 10
198.9134809665
 20
276.7180336745
 30
0.0
  0
VERTEX
  5
2B5
  8
02___PRT_ALL_AXES
 10
199.4525513533
 20
275.8113904166
 30
0.0
  0
SEQEND
  5
4C7
  8
02___PRT_ALL_AXES
  0
POLYLINE
  5
F4
  8
02___PRT_ALL_AXES
 66
     1
 10
0.0
 20
0.0
 30
0.0
  0
VERTEX
  5
2B6
  8
02___PRT_ALL_AXES
 10
192.2496059942
 20
273.8273143766
 30
0.0
  0
VERTEX
  5
2B7
  8
02___PRT_ALL_AXES
 10
191.832973814
 20
272.8582857365
 30
0.0
  0
SEQEND
  5
4C8
  8
02___PRT_ALL_AXES
  0
POLYLINE
  5
F5
  8
02___PRT_ALL_AXES
 66
     1
 10
0.0
 20
0.0
 30
0.0
  0
VERTEX
  5
2B8
  8
02___PRT_ALL_AXES
 10
184.5111961356
 20
278.1778686005
 30
0.0
  0
VERTEX
  5
2B9
  8
02___PRT_ALL_AXES
 10
185.3040507141
 20
278.8735556682
 30
0.0
  0
SEQEND
  5
4C9
  8
02___PRT_ALL_AXES
  0
POLYLINE
  5
F6
  8
02___PRT_ALL_AXES
 66
     1
 10
0.0
 20
0.0
 30
0.0
  0
VERTEX
  5
2BA
  8
02___PRT_ALL_AXES
 10
198.7454445721
 20
275.1042836355
 30
0.0
  0
VERTEX
  5
2BB
  8
02___PRT_ALL_AXES
 10
197.8388013142
 20
275.6433540222
 30
0.0
  0
SEQEND
  5
4CA
  8
02___PRT_ALL_AXES
  0
POLYLINE
  5
F7
  8
02___PRT_ALL_AXES
 66
     1
 10
0.0
 20
0.0
 30
0.0
  0
VERTEX
  5
2BC
  8
02___PRT_ALL_AXES
 10
184.7602102861
 20
282.3072289943
 30
0.0
  0
VERTEX
  5
2BD
  8
02___PRT_ALL_AXES
 10
183.791181646
 20
282.7238611745
 30
0.0
  0
SEQEND
  5
4CB
  8
02___PRT_ALL_AXES
  0
POLYLINE
  5
F8
  8
02___PRT_ALL_AXES
 66
     1
 10
0.0
 20
0.0
 30
0.0
  0
VERTEX
  5
2BE
  8
02___PRT_ALL_AXES
 10
189.8064515777
 20
274.3711548047
 30
0.0
  0
VERTEX
  5
2BF
  8
02___PRT_ALL_AXES
 10
189.11076451
 20
273.5783002261
 30
0.0
  0
SEQEND
  5
4CC
  8
02___PRT_ALL_AXES
  0
POLYLINE
  5
F9
  8
02___PRT_ALL_AXES
 66
     1
 10
0.0
 20
0.0
 30
0.0
  0
VERTEX
  5
2C0
  8
02___PRT_ALL_AXES
 10
192.4267469881
 20
285.4480801877
 30
0.0
  0
VERTEX
  5
2C1
  8
02___PRT_ALL_AXES
 10
203.1477564009
 20
291.5377013807
 30
0.0
  0
SEQEND
  5
4CD
  8
02___PRT_ALL_AXES
  0
POLYLINE
  5
FA
  8
02___PRT_ALL_AXES
 66
     1
 10
0.0
 20
0.0
 30
0.0
  0
VERTEX
  5
2C2
  8
02___PRT_ALL_AXES
 10
186.7442863261
 20
288.5196554438
 30
0.0
  0
VERTEX
  5
2C3
  8
02___PRT_ALL_AXES
 10
187.6522392774
 20
287.9798063418
 30
0.0
  0
SEQEND
  5
4CE
  8
02___PRT_ALL_AXES
  0
POLYLINE
  5
FB
  8
02___PRT_ALL_AXES
 66
     1
 10
0.0
 20
0.0
 30
0.0
  0
VERTEX
  5
2C4
  8
02___PRT_ALL_AXES
 10
199.4821298195
 20
277.4981233691
 30
0.0
  0
VERTEX
  5
2C5
  8
02___PRT_ALL_AXES
 10
198.9134809665
 20
276.7180336745
 30
0.0
  0
SEQEND
  5
4CF
  8
02___PRT_ALL_AXES
  0
POLYLINE
  5
FC
  8
02___PRT_ALL_AXES
 66
     1
 10
0.0
 20
0.0
 30
0.0
  0
VERTEX
  5
2C6
  8
02___PRT_ALL_AXES
 10
205.4420621463
 20
288.2610932036
 30
0.0
  0
VERTEX
  5
2C7
  8
02___PRT_ALL_AXES
 10
196.0528888718
 20
280.2694128843
 30
0.0
  0
SEQEND
  5
4D0
  8
02___PRT_ALL_AXES
  0
POLYLINE
  5
FD
  8
02___PRT_ALL_AXES
 66
     1
 10
0.0
 20
0.0
 30
0.0
  0
VERTEX
  5
2C8
  8
02___PRT_ALL_AXES
 10
183.791181646
 20
280.9000779047
 30
0.0
  0
VERTEX
  5
2C9
  8
02___PRT_ALL_AXES
 10
184.7602102861
 20
281.3167100849
 30
0.0
  0
SEQEND
  5
4D1
  8
02___PRT_ALL_AXES
  0
POLYLINE
  5
FE
  8
02___PRT_ALL_AXES
 66
     1
 10
0.0
 20
0.0
 30
0.0
  0
VERTEX
  5
2CA
  8
02___PRT_ALL_AXES
 10
187.650929584
 20
275.6433540222
 30
0.0
  0
VERTEX
  5
2CB
  8
02___PRT_ALL_AXES
 10
186.7442863261
 20
275.1042836355
 30
0.0
  0
SEQEND
  5
4D2
  8
02___PRT_ALL_AXES
  0
POLYLINE
  5
FF
  8
02___PRT_ALL_AXES
 66
     1
 10
0.0
 20
0.0
 30
0.0
  0
VERTEX
  5
2CC
  8
02___PRT_ALL_AXES
 10
247.4048654488
 20
276.8119695395
 30
0.0
  0
VERTEX
  5
2CD
  8
02___PRT_ALL_AXES
 10
239.5815870227
 20
276.8119695398
 30
0.0
  0
SEQEND
  5
4D3
  8
02___PRT_ALL_AXES
  0
POLYLINE
  5
100
  8
02___PRT_ALL_AXES
 66
     1
 10
0.0
 20
0.0
 30
0.0
  0
VERTEX
  5
2CE
  8
02___PRT_ALL_AXES
 10
229.5815870229
 20
276.8119695403
 30
0.0
  0
VERTEX
  5
2CF
  8
02___PRT_ALL_AXES
 10
221.7583085967
 20
276.8119695406
 30
0.0
  0
SEQEND
  5
4D4
  8
02___PRT_ALL_AXES
  0
POLYLINE
  5
101
  8
02___PRT_ALL_AXES
 66
     1
 10
0.0
 20
0.0
 30
0.0
  0
VERTEX
  5
2D0
  8
02___PRT_ALL_AXES
 10
184.9979635377
 20
279.8155951319
 30
0.0
  0
VERTEX
  5
2D1
  8
02___PRT_ALL_AXES
 10
183.947616111
 20
279.912389564
 30
0.0
  0
SEQEND
  5
4D5
  8
02___PRT_ALL_AXES
  0
POLYLINE
  5
102
  8
02___PRT_ALL_AXES
 66
     1
 10
0.0
 20
0.0
 30
0.0
  0
VERTEX
  5
2D2
  8
02___PRT_ALL_AXES
 10
184.9651866353
 20
286.3370770029
 30
0.0
  0
VERTEX
  5
2D3
  8
02___PRT_ALL_AXES
 10
185.9940375243
 20
286.1045587734
 30
0.0
  0
SEQEND
  5
4D6
  8
02___PRT_ALL_AXES
  0
POLYLINE
  5
103
  8
02___PRT_ALL_AXES
 66
     1
 10
0.0
 20
0.0
 30
0.0
  0
VERTEX
  5
2D4
  8
02___PRT_ALL_AXES
 10
185.9940375244
 20
277.5193803058
 30
0.0
  0
VERTEX
  5
2D5
  8
02___PRT_ALL_AXES
 10
184.9651866353
 20
277.2868620763
 30
0.0
  0
SEQEND
  5
4D7
  8
02___PRT_ALL_AXES
  0
POLYLINE
  5
104
  8
02___PRT_ALL_AXES
 66
     1
 10
0.0
 20
0.0
 30
0.0
  0
VERTEX
  5
2D6
  8
02___PRT_ALL_AXES
 10
219.9966923679
 20
277.8650227312
 30
0.0
  0
VERTEX
  5
2D7
  8
02___PRT_ALL_AXES
 10
217.730429101
 20
282.0809788067
 30
0.0
  0
SEQEND
  5
4D8
  8
02___PRT_ALL_AXES
  0
POLYLINE
  5
105
  8
02___PRT_ALL_AXES
 66
     1
 10
0.0
 20
0.0
 30
0.0
  0
VERTEX
  5
2D8
  8
02___PRT_ALL_AXES
 10
183.947616111
 20
283.7115495153
 30
0.0
  0
VERTEX
  5
2D9
  8
02___PRT_ALL_AXES
 10
184.9979635377
 20
283.8083439473
 30
0.0
  0
SEQEND
  5
4D9
  8
02___PRT_ALL_AXES
  0
POLYLINE
  5
106
  8
02___PRT_ALL_AXES
 66
     1
 10
0.0
 20
0.0
 30
0.0
  0
VERTEX
  5
2DA
  8
02___PRT_ALL_AXES
 10
216.5100013369
 20
296.0770971164
 30
0.0
  0
VERTEX
  5
2DB
  8
02___PRT_ALL_AXES
 10
247.9163244418
 20
287.3201104867
 30
0.0
  0
SEQEND
  5
4DA
  8
02___PRT_ALL_AXES
  0
POLYLINE
  5
107
  8
02___PRT_ALL_AXES
 66
     1
 10
0.0
 20
0.0
 30
0.0
  0
VERTEX
  5
2DC
  8
02___PRT_ALL_AXES
 10
249.7448654491
 20
284.9119695396
 30
0.0
  0
VERTEX
  5
2DD
  8
02___PRT_ALL_AXES
 10
249.7448654491
 20
279.1519695395
 30
0.0
  0
SEQEND
  5
4DB
  8
02___PRT_ALL_AXES
  0
POLYLINE
  5
108
  8
02___PRT_ALL_AXES
 66
     1
 10
0.0
 20
0.0
 30
0.0
  0
VERTEX
  5
2DE
  8
02___PRT_ALL_AXES
 10
182.9503635402
 20
326.8841146533
 30
0.0
  0
VERTEX
  5
2DF
  8
02___PRT_ALL_AXES
 10
182.9503635402
 20
302.5841146533
 30
0.0
  0
SEQEND
  5
4DC
  8
02___PRT_ALL_AXES
  0
POLYLINE
  5
109
  8
02___PRT_ALL_AXES
 66
     1
 10
0.0
 20
0.0
 30
0.0
  0
VERTEX
  5
2E0
  8
02___PRT_ALL_AXES
 10
190.1503635402
 20
309.5841146533
 30
0.0
  0
VERTEX
  5
2E1
  8
02___PRT_ALL_AXES
 10
190.1503635402
 20
320.0841146533
 30
0.0
  0
SEQEND
  5
4DD
  8
02___PRT_ALL_AXES
  0
POLYLINE
  5
10A
  8
02___PRT_ALL_AXES
 66
     1
 10
0.0
 20
0.0
 30
0.0
  0
VERTEX
  5
2E2
  8
02___PRT_ALL_AXES
 10
184.4503635402
 20
301.0841146533
 30
0.0
  0
VERTEX
  5
2E3
  8
02___PRT_ALL_AXES
 10
245.4503635402
 20
301.0841146533
 30
0.0
  0
SEQEND
  5
4DE
  8
02___PRT_ALL_AXES
  0
POLYLINE
  5
10B
  8
02___PRT_ALL_AXES
 66
     1
 10
0.0
 20
0.0
 30
0.0
  0
VERTEX
  5
2E4
  8
02___PRT_ALL_AXES
 10
209.9503635402
 20
323.0841146533
 30
0.0
  0
VERTEX
  5
2E5
  8
02___PRT_ALL_AXES
 10
209.9503635402
 20
326.3841146533
 30
0.0
  0
SEQEND
  5
4DF
  8
02___PRT_ALL_AXES
  0
POLYLINE
  5
10C
  8
02___PRT_ALL_AXES
 66
     1
 10
0.0
 20
0.0
 30
0.0
  0
VERTEX
  5
2E6
  8
02___PRT_ALL_AXES
 10
212.1503635402
 20
308.5841146533
 30
0.0
  0
VERTEX
  5
2E7
  8
02___PRT_ALL_AXES
 10
191.1503635402
 20
308.5841146533
 30
0.0
  0
SEQEND
  5
4E0
  8
02___PRT_ALL_AXES
  0
POLYLINE
  5
10D
  8
02___PRT_ALL_AXES
 66
     1
 10
0.0
 20
0.0
 30
0.0
  0
VERTEX
  5
2E8
  8
02___PRT_ALL_AXES
 10
213.1503635402
 20
320.0841146533
 30
0.0
  0
VERTEX
  5
2E9
  8
02___PRT_ALL_AXES
 10
213.1503635402
 20
309.5841146533
 30
0.0
  0
SEQEND
  5
4E1
  8
02___PRT_ALL_AXES
  0
POLYLINE
  5
10E
  8
02___PRT_ALL_AXES
 66
     1
 10
0.0
 20
0.0
 30
0.0
  0
VERTEX
  5
2EA
  8
02___PRT_ALL_AXES
 10
219.9503635402
 20
326.3841146533
 30
0.0
  0
VERTEX
  5
2EB
  8
02___PRT_ALL_AXES
 10
219.9503635402
 20
323.0841146533
 30
0.0
  0
SEQEND
  5
4E2
  8
02___PRT_ALL_AXES
  0
POLYLINE
  5
10F
  8
02___PRT_ALL_AXES
 66
     1
 10
0.0
 20
0.0
 30
0.0
  0
VERTEX
  5
2EC
  8
02___PRT_ALL_AXES
 10
191.1503635402
 20
321.0841146533
 30
0.0
  0
VERTEX
  5
2ED
  8
02___PRT_ALL_AXES
 10
212.1503635402
 20
321.0841146533
 30
0.0
  0
SEQEND
  5
4E3
  8
02___PRT_ALL_AXES
  0
POLYLINE
  5
110
  8
02___PRT_ALL_AXES
 66
     1
 10
0.0
 20
0.0
 30
0.0
  0
VERTEX
  5
2EE
  8
02___PRT_ALL_AXES
 10
219.9503635402
 20
323.0841146533
 30
0.0
  0
VERTEX
  5
2EF
  8
02___PRT_ALL_AXES
 10
209.9503635402
 20
323.0841146533
 30
0.0
  0
SEQEND
  5
4E4
  8
02___PRT_ALL_AXES
  0
POLYLINE
  5
111
  8
02___PRT_ALL_AXES
 66
     1
 10
0.0
 20
0.0
 30
0.0
  0
VERTEX
  5
2F0
  8
02___PRT_ALL_AXES
 10
209.9503635402
 20
326.3841146533
 30
0.0
  0
VERTEX
  5
2F1
  8
02___PRT_ALL_AXES
 10
219.9503635402
 20
326.3841146533
 30
0.0
  0
SEQEND
  5
4E5
  8
02___PRT_ALL_AXES
  0
POLYLINE
  5
112
  8
02___PRT_ALL_AXES
 66
     1
 10
0.0
 20
0.0
 30
0.0
  0
VERTEX
  5
2F2
  8
02___PRT_ALL_AXES
 10
245.4503635402
 20
328.3841146533
 30
0.0
  0
VERTEX
  5
2F3
  8
02___PRT_ALL_AXES
 10
184.4503635402
 20
328.3841146533
 30
0.0
  0
SEQEND
  5
4E6
  8
02___PRT_ALL_AXES
  0
POLYLINE
  5
113
  8
02___PRT_ALL_AXES
 66
     1
 10
0.0
 20
0.0
 30
0.0
  0
VERTEX
  5
2F4
  8
02___PRT_ALL_AXES
 10
246.9503635402
 20
302.5841146533
 30
0.0
  0
VERTEX
  5
2F5
  8
02___PRT_ALL_AXES
 10
246.9503635402
 20
326.8841146533
 30
0.0
  0
SEQEND
  5
4E7
  8
02___PRT_ALL_AXES
  0
POLYLINE
  5
114
  8
02___PRT_ALL_AXES
 66
     1
 10
0.0
 20
0.0
 30
0.0
  0
VERTEX
  5
2F6
  8
02___PRT_ALL_AXES
 10
85.02518441245014
 20
275.690496473656
 30
0.0
 42
0.3366343342493053
  0
VERTEX
  5
2F7
  8
02___PRT_ALL_AXES
 10
86.68128776501457
 20
273.1606690641026
 30
0.0
  0
SEQEND
  5
4E8
  8
02___PRT_ALL_AXES
  0
POLYLINE
  5
115
  8
02___PRT_ALL_AXES
 66
     1
 10
0.0
 20
0.0
 30
0.0
  0
VERTEX
  5
2F8
  8
02___PRT_ALL_AXES
 10
87.92451172712192
 20
283.6075351321319
 30
0.0
 42
0.4142135623301622
  0
VERTEX
  5
2F9
  8
02___PRT_ALL_AXES
 10
85.42698170119196
 20
281.4364654029641
 30
0.0
  0
SEQEND
  5
4E9
  8
02___PRT_ALL_AXES
  0
POLYLINE
  5
116
  8
02___PRT_ALL_AXES
 66
     1
 10
0.0
 20
0.0
 30
0.0
 70
     1
  0
VERTEX
  5
2FA
  8
02___PRT_ALL_AXES
 10
91.4624935913
 20
279.6273886314
 30
0.0
 42
0.4142135623730951
  0
VERTEX
  5
2FB
  8
02___PRT_ALL_AXES
 10
89.9624935913
 20
278.1273886314
 30
0.0
 42
0.4142135623730951
  0
VERTEX
  5
2FC
  8
02___PRT_ALL_AXES
 10
91.4624935913
 20
276.6273886314
 30
0.0
 42
0.4142135623730951
  0
VERTEX
  5
2FD
  8
02___PRT_ALL_AXES
 10
92.9624935913
 20
278.1273886314
 30
0.0
 42
0.4142135623730951
  0
SEQEND
  5
4EA
  8
02___PRT_ALL_AXES
  0
POLYLINE
  5
117
  8
02___PRT_ALL_AXES
 66
     1
 10
0.0
 20
0.0
 30
0.0
 70
     1
  0
VERTEX
  5
2FE
  8
02___PRT_ALL_AXES
 10
108.5745723009
 20
278.4307955216
 30
0.0
 42
0.4142135623730951
  0
VERTEX
  5
2FF
  8
02___PRT_ALL_AXES
 10
107.0745723009
 20
276.9307955216
 30
0.0
 42
0.4142135623730951
  0
VERTEX
  5
300
  8
02___PRT_ALL_AXES
 10
108.5745723009
 20
275.4307955216
 30
0.0
 42
0.4142135623730951
  0
VERTEX
  5
301
  8
02___PRT_ALL_AXES
 10
110.0745723009
 20
276.9307955216
 30
0.0
 42
0.4142135623730951
  0
SEQEND
  5
4EB
  8
02___PRT_ALL_AXES
  0
POLYLINE
  5
118
  8
02___PRT_ALL_AXES
 66
     1
 10
0.0
 20
0.0
 30
0.0
  0
VERTEX
  5
302
  8
02___PRT_ALL_AXES
 10
115.192462599228
 20
280.6451496190313
 30
0.0
 42
0.276103213370858
  0
VERTEX
  5
303
  8
02___PRT_ALL_AXES
 10
113.508594856209
 20
281.8185217612157
 30
0.0
  0
SEQEND
  5
4EC
  8
02___PRT_ALL_AXES
  0
POLYLINE
  5
119
  8
02___PRT_ALL_AXES
 66
     1
 10
0.0
 20
0.0
 30
0.0
  0
VERTEX
  5
304
  8
02___PRT_ALL_AXES
 10
95.72873304081762
 20
283.061810815535
 30
0.0
 42
0.267949192424107
  0
VERTEX
  5
305
  8
02___PRT_ALL_AXES
 10
105.7043735431574
 20
282.3642460776482
 30
0.0
  0
SEQEND
  5
4ED
  8
02___PRT_ALL_AXES
  0
POLYLINE
  5
11A
  8
02___PRT_ALL_AXES
 66
     1
 10
0.0
 20
0.0
 30
0.0
  0
VERTEX
  5
306
  8
02___PRT_ALL_AXES
 10
117.1591151334114
 20
276.2813768665767
 30
0.0
 42
0.1129793687631239
  0
VERTEX
  5
307
  8
02___PRT_ALL_AXES
 10
117.6658682806531
 20
275.6125871010514
 30
0.0
  0
SEQEND
  5
4EE
  8
02___PRT_ALL_AXES
  0
POLYLINE
  5
11B
  8
02___PRT_ALL_AXES
 66
     1
 10
0.0
 20
0.0
 30
0.0
  0
VERTEX
  5
308
  8
02___PRT_ALL_AXES
 10
117.4002501495683
 20
262.2342196563254
 30
0.0
 42
0.0680854890479159
  0
VERTEX
  5
309
  8
02___PRT_ALL_AXES
 10
122.7075748497407
 20
261.126428456511
 30
0.0
  0
SEQEND
  5
4EF
  8
02___PRT_ALL_AXES
  0
POLYLINE
  5
11C
  8
02___PRT_ALL_AXES
 66
     1
 10
0.0
 20
0.0
 30
0.0
  0
VERTEX
  5
30A
  8
02___PRT_ALL_AXES
 10
117.6658682806439
 20
275.612587100975
 30
0.0
 42
0.4854770180061741
  0
VERTEX
  5
30B
  8
02___PRT_ALL_AXES
 10
135.5080561455592
 20
279.3512756751746
 30
0.0
  0
SEQEND
  5
4F0
  8
02___PRT_ALL_AXES
  0
POLYLINE
  5
11D
  8
02___PRT_ALL_AXES
 66
     1
 10
0.0
 20
0.0
 30
0.0
  0
VERTEX
  5
30C
  8
02___PRT_ALL_AXES
 10
135.5402218910137
 20
280.9660022295102
 30
0.0
 42
0.027799244388414
  0
VERTEX
  5
30D
  8
02___PRT_ALL_AXES
 10
134.8974342813312
 20
280.1999577863961
 30
0.0
  0
SEQEND
  5
4F1
  8
02___PRT_ALL_AXES
  0
POLYLINE
  5
11E
  8
02___PRT_ALL_AXES
 66
     1
 10
0.0
 20
0.0
 30
0.0
  0
VERTEX
  5
30E
  8
02___PRT_ALL_AXES
 10
137.7646966934429
 20
282.6924309750837
 30
0.0
 42
0.0277992443884413
  0
VERTEX
  5
30F
  8
02___PRT_ALL_AXES
 10
136.9166485972919
 20
282.1625117108539
 30
0.0
  0
SEQEND
  5
4F2
  8
02___PRT_ALL_AXES
  0
POLYLINE
  5
11F
  8
02___PRT_ALL_AXES
 66
     1
 10
0.0
 20
0.0
 30
0.0
  0
VERTEX
  5
310
  8
02___PRT_ALL_AXES
 10
140.4137937715872
 20
283.6469617659712
 30
0.0
 42
0.027799244388402
  0
VERTEX
  5
311
  8
02___PRT_ALL_AXES
 10
139.4434980453174
 20
283.4050398703731
 30
0.0
  0
SEQEND
  5
4F3
  8
02___PRT_ALL_AXES
  0
POLYLINE
  5
120
  8
02___PRT_ALL_AXES
 66
     1
 10
0.0
 20
0.0
 30
0.0
  0
VERTEX
  5
312
  8
02___PRT_ALL_AXES
 10
143.2282010460932
 20
283.7361584777535
 30
0.0
 42
0.0277992443884506
  0
VERTEX
  5
313
  8
02___PRT_ALL_AXES
 10
142.2306369958398
 20
283.8059149514972
 30
0.0
  0
SEQEND
  5
4F4
  8
02___PRT_ALL_AXES
  0
POLYLINE
  5
121
  8
02___PRT_ALL_AXES
 66
     1
 10
0.0
 20
0.0
 30
0.0
  0
VERTEX
  5
314
  8
02___PRT_ALL_AXES
 10
145.9324247238037
 20
282.9512899148114
 30
0.0
 42
0.0277992443883721
  0
VERTEX
  5
315
  8
02___PRT_ALL_AXES
 10
145.0052408692429
 20
283.3258965082249
 30
0.0
  0
SEQEND
  5
4F5
  8
02___PRT_ALL_AXES
  0
POLYLINE
  5
122
  8
02___PRT_ALL_AXES
 66
     1
 10
0.0
 20
0.0
 30
0.0
  0
VERTEX
  5
316
  8
02___PRT_ALL_AXES
 10
148.2617565497102
 20
281.3691844805863
 30
0.0
 42
0.0277992443883998
  0
VERTEX
  5
317
  8
02___PRT_ALL_AXES
 10
147.4957121065961
 20
282.0119720902687
 30
0.0
  0
SEQEND
  5
4F6
  8
02___PRT_ALL_AXES
  0
POLYLINE
  5
123
  8
02___PRT_ALL_AXES
 66
     1
 10
0.0
 20
0.0
 30
0.0
  0
VERTEX
  5
318
  8
02___PRT_ALL_AXES
 10
149.9881852952838
 20
279.1447096781571
 30
0.0
 42
0.0277992443883148
  0
VERTEX
  5
319
  8
02___PRT_ALL_AXES
 10
149.4582660310539
 20
279.9927577743081
 30
0.0
  0
SEQEND
  5
4F7
  8
02___PRT_ALL_AXES
  0
POLYLINE
  5
124
  8
02___PRT_ALL_AXES
 66
     1
 10
0.0
 20
0.0
 30
0.0
  0
VERTEX
  5
31A
  8
02___PRT_ALL_AXES
 10
150.9427160861712
 20
276.4956126000128
 30
0.0
 42
0.0277992443883609
  0
VERTEX
  5
31B
  8
02___PRT_ALL_AXES
 10
150.7007941905731
 20
277.4659083262826
 30
0.0
  0
SEQEND
  5
4F8
  8
02___PRT_ALL_AXES
  0
POLYLINE
  5
125
  8
02___PRT_ALL_AXES
 66
     1
 10
0.0
 20
0.0
 30
0.0
  0
VERTEX
  5
31C
  8
02___PRT_ALL_AXES
 10
151.0319127979536
 20
273.6812053255068
 30
0.0
 42
0.0277992443883979
  0
VERTEX
  5
31D
  8
02___PRT_ALL_AXES
 10
151.1016692716972
 20
274.6787693757602
 30
0.0
  0
SEQEND
  5
4F9
  8
02___PRT_ALL_AXES
  0
POLYLINE
  5
126
  8
02___PRT_ALL_AXES
 66
     1
 10
0.0
 20
0.0
 30
0.0
  0
VERTEX
  5
31E
  8
02___PRT_ALL_AXES
 10
150.2470442350114
 20
270.9769816477963
 30
0.0
 42
0.0277992443884201
  0
VERTEX
  5
31F
  8
02___PRT_ALL_AXES
 10
150.6216508284249
 20
271.9041655023571
 30
0.0
  0
SEQEND
  5
4FA
  8
02___PRT_ALL_AXES
  0
POLYLINE
  5
127
  8
02___PRT_ALL_AXES
 66
     1
 10
0.0
 20
0.0
 30
0.0
  0
VERTEX
  5
320
  8
02___PRT_ALL_AXES
 10
148.6649388007863
 20
268.6476498218898
 30
0.0
 42
0.0277992443884353
  0
VERTEX
  5
321
  8
02___PRT_ALL_AXES
 10
149.3077264104688
 20
269.4136942650039
 30
0.0
  0
SEQEND
  5
4FB
  8
02___PRT_ALL_AXES
  0
POLYLINE
  5
128
  8
02___PRT_ALL_AXES
 66
     1
 10
0.0
 20
0.0
 30
0.0
  0
VERTEX
  5
322
  8
02___PRT_ALL_AXES
 10
146.8757415254906
 20
268.3867845652693
 30
0.0
 42
0.0345682424563065
  0
VERTEX
  5
323
  8
02___PRT_ALL_AXES
 10
147.7147625143056
 20
269.1056497164959
 30
0.0
  0
SEQEND
  5
4FC
  8
02___PRT_ALL_AXES
  0
POLYLINE
  5
129
  8
02___PRT_ALL_AXES
 66
     1
 10
0.0
 20
0.0
 30
0.0
  0
VERTEX
  5
324
  8
02___PRT_ALL_AXES
 10
137.237952288148
 20
281.1578412090964
 30
0.0
 42
0.0309834306631498
  0
VERTEX
  5
325
  8
02___PRT_ALL_AXES
 10
136.4903981775043
 20
280.5080023349138
 30
0.0
  0
SEQEND
  5
4FD
  8
02___PRT_ALL_AXES
  0
POLYLINE
  5
12A
  8
02___PRT_ALL_AXES
 66
     1
 10
0.0
 20
0.0
 30
0.0
  0
VERTEX
  5
326
  8
02___PRT_ALL_AXES
 10
139.4386157554256
 20
282.3502531421172
 30
0.0
 42
0.0309834306631312
  0
VERTEX
  5
327
  8
02___PRT_ALL_AXES
 10
138.5268382914867
 20
281.9632265706877
 30
0.0
  0
SEQEND
  5
4FE
  8
02___PRT_ALL_AXES
  0
POLYLINE
  5
12B
  8
02___PRT_ALL_AXES
 66
     1
 10
0.0
 20
0.0
 30
0.0
  0
VERTEX
  5
328
  8
02___PRT_ALL_AXES
 10
141.9000466377515
 20
282.8042618708358
 30
0.0
 42
0.0309834306631459
  0
VERTEX
  5
329
  8
02___PRT_ALL_AXES
 10
140.913296951415
 20
282.7179324595436
 30
0.0
  0
SEQEND
  5
4FF
  8
02___PRT_ALL_AXES
  0
POLYLINE
  5
12C
  8
02___PRT_ALL_AXES
 66
     1
 10
0.0
 20
0.0
 30
0.0
  0
VERTEX
  5
32A
  8
02___PRT_ALL_AXES
 10
144.3813029305662
 20
282.4754258576206
 30
0.0
 42
0.0309834306630595
  0
VERTEX
  5
32B
  8
02___PRT_ALL_AXES
 10
143.4161709562201
 20
282.6982441307353
 30
0.0
  0
SEQEND
  5
500
  8
02___PRT_ALL_AXES
  0
POLYLINE
  5
12D
  8
02___PRT_ALL_AXES
 66
     1
 10
0.0
 20
0.0
 30
0.0
  0
VERTEX
  5
32C
  8
02___PRT_ALL_AXES
 10
146.6395019800001
 20
281.3959338625801
 30
0.0
 42
0.0309834306630603
  0
VERTEX
  5
32D
  8
02___PRT_ALL_AXES
 10
145.7904615597631
 20
281.9060888150631
 30
0.0
  0
SEQEND
  5
501
  8
02___PRT_ALL_AXES
  0
POLYLINE
  5
12E
  8
02___PRT_ALL_AXES
 66
     1
 10
0.0
 20
0.0
 30
0.0
  0
VERTEX
  5
32E
  8
02___PRT_ALL_AXES
 10
148.4535955292965
 20
279.671454083452
 30
0.0
 42
0.0309834306631121
  0
VERTEX
  5
32F
  8
02___PRT_ALL_AXES
 10
147.8037566551139
 20
280.4190081940957
 30
0.0
  0
SEQEND
  5
502
  8
02___PRT_ALL_AXES
  0
POLYLINE
  5
12F
  8
02___PRT_ALL_AXES
 66
     1
 10
0.0
 20
0.0
 30
0.0
  0
VERTEX
  5
330
  8
02___PRT_ALL_AXES
 10
149.6460074623172
 20
277.4707906161744
 30
0.0
 42
0.030983430663044
  0
VERTEX
  5
331
  8
02___PRT_ALL_AXES
 10
149.2589808908877
 20
278.3825680801133
 30
0.0
  0
SEQEND
  5
503
  8
02___PRT_ALL_AXES
  0
POLYLINE
  5
130
  8
02___PRT_ALL_AXES
 66
     1
 10
0.0
 20
0.0
 30
0.0
  0
VERTEX
  5
332
  8
02___PRT_ALL_AXES
 10
150.1000161910358
 20
275.0093597338486
 30
0.0
 42
0.0309834306631206
  0
VERTEX
  5
333
  8
02___PRT_ALL_AXES
 10
150.0136867797436
 20
275.996109420185
 30
0.0
  0
SEQEND
  5
504
  8
02___PRT_ALL_AXES
  0
POLYLINE
  5
131
  8
02___PRT_ALL_AXES
 66
     1
 10
0.0
 20
0.0
 30
0.0
  0
VERTEX
  5
334
  8
02___PRT_ALL_AXES
 10
149.7711801778206
 20
272.5281034410337
 30
0.0
 42
0.0309834306630946
  0
VERTEX
  5
335
  8
02___PRT_ALL_AXES
 10
149.9939984509353
 20
273.4932354153799
 30
0.0
  0
SEQEND
  5
505
  8
02___PRT_ALL_AXES
  0
POLYLINE
  5
132
  8
02___PRT_ALL_AXES
 66
     1
 10
0.0
 20
0.0
 30
0.0
 70
     1
  0
VERTEX
  5
336
  8
02___PRT_ALL_AXES
 10
142.1025803459
 20
276.3068260257
 30
0.0
 42
0.4142135623730951
  0
VERTEX
  5
337
  8
02___PRT_ALL_AXES
 10
140.6025803459
 20
274.8068260257
 30
0.0
 42
0.4142135623730951
  0
VERTEX
  5
338
  8
02___PRT_ALL_AXES
 10
142.1025803459
 20
273.3068260257
 30
0.0
 42
0.4142135623730951
  0
VERTEX
  5
339
  8
02___PRT_ALL_AXES
 10
143.6025803459
 20
274.8068260257
 30
0.0
 42
0.4142135623730951
  0
SEQEND
  5
506
  8
02___PRT_ALL_AXES
  0
POLYLINE
  5
133
  8
02___PRT_ALL_AXES
 66
     1
 10
0.0
 20
0.0
 30
0.0
  0
VERTEX
  5
33A
  8
02___PRT_ALL_AXES
 10
148.6916881827801
 20
270.2699043915999
 30
0.0
 42
0.0309834306630895
  0
VERTEX
  5
33B
  8
02___PRT_ALL_AXES
 10
149.2018431352631
 20
271.1189448118369
 30
0.0
  0
SEQEND
  5
507
  8
02___PRT_ALL_AXES
  0
POLYLINE
  5
134
  8
02___PRT_ALL_AXES
 66
     1
 10
0.0
 20
0.0
 30
0.0
  0
VERTEX
  5
33C
  8
02___PRT_ALL_AXES
 10
122.7075748497845
 20
261.1264284565095
 30
0.0
 42
0.1828198883346495
  0
VERTEX
  5
33D
  8
02___PRT_ALL_AXES
 10
146.8757415255076
 20
268.3867845653294
 30
0.0
  0
SEQEND
  5
508
  8
02___PRT_ALL_AXES
  0
POLYLINE
  5
135
  8
02___PRT_ALL_AXES
 66
     1
 10
0.0
 20
0.0
 30
0.0
  0
VERTEX
  5
33E
  8
02___PRT_ALL_AXES
 10
143.5633955096671
 20
299.9732114064132
 30
0.0
 42
0.1828198883346495
  0
VERTEX
  5
33F
  8
02___PRT_ALL_AXES
 10
120.2865384465815
 20
290.2263669654112
 30
0.0
  0
SEQEND
  5
509
  8
02___PRT_ALL_AXES
  0
POLYLINE
  5
136
  8
02___PRT_ALL_AXES
 66
     1
 10
0.0
 20
0.0
 30
0.0
  0
VERTEX
  5
340
  8
02___PRT_ALL_AXES
 10
150.0916989844612
 20
286.0934112945502
 30
0.0
 42
0.4854770180061703
  0
VERTEX
  5
341
  8
02___PRT_ALL_AXES
 10
132.7380518628263
 20
280.5101871686932
 30
0.0
  0
SEQEND
  5
50A
  8
02___PRT_ALL_AXES
  0
POLYLINE
  5
137
  8
02___PRT_ALL_AXES
 66
     1
 10
0.0
 20
0.0
 30
0.0
  0
VERTEX
  5
342
  8
02___PRT_ALL_AXES
 10
132.8748472100185
 20
278.9009440194803
 30
0.0
 42
0.0277992443884388
  0
VERTEX
  5
343
  8
02___PRT_ALL_AXES
 10
133.4340401134857
 20
279.72998159203
 30
0.0
  0
SEQEND
  5
50B
  8
02___PRT_ALL_AXES
  0
POLYLINE
  5
138
  8
02___PRT_ALL_AXES
 66
     1
 10
0.0
 20
0.0
 30
0.0
  0
VERTEX
  5
344
  8
02___PRT_ALL_AXES
 10
130.8430192570236
 20
276.9514518985387
 30
0.0
 42
0.0277992443883891
  0
VERTEX
  5
345
  8
02___PRT_ALL_AXES
 10
131.6310300106253
 20
277.5671133738604
 30
0.0
  0
SEQEND
  5
50C
  8
02___PRT_ALL_AXES
  0
POLYLINE
  5
139
  8
02___PRT_ALL_AXES
 66
     1
 10
0.0
 20
0.0
 30
0.0
  0
VERTEX
  5
346
  8
02___PRT_ALL_AXES
 10
128.3082098465661
 20
275.7252440805726
 30
0.0
 42
0.0277992443884097
  0
VERTEX
  5
347
  8
02___PRT_ALL_AXES
 10
129.247902467346
 20
276.0672642238961
 30
0.0
  0
SEQEND
  5
50D
  8
02___PRT_ALL_AXES
  0
POLYLINE
  5
13A
  8
02___PRT_ALL_AXES
 66
     1
 10
0.0
 20
0.0
 30
0.0
  0
VERTEX
  5
348
  8
02___PRT_ALL_AXES
 10
125.5185437847972
 20
275.3423503302968
 30
0.0
 42
0.0277992443883561
  0
VERTEX
  5
349
  8
02___PRT_ALL_AXES
 10
126.5179346118099
 20
275.3772498269991
 30
0.0
  0
SEQEND
  5
50E
  8
02___PRT_ALL_AXES
  0
POLYLINE
  5
13B
  8
02___PRT_ALL_AXES
 66
     1
 10
0.0
 20
0.0
 30
0.0
  0
VERTEX
  5
34A
  8
02___PRT_ALL_AXES
 10
122.7470930225894
 20
275.840250955766
 30
0.0
 42
0.0277992443884332
  0
VERTEX
  5
34B
  8
02___PRT_ALL_AXES
 10
123.7083547185215
 20
275.5646135999507
 30
0.0
  0
SEQEND
  5
50F
  8
02___PRT_ALL_AXES
  0
POLYLINE
  5
13C
  8
02___PRT_ALL_AXES
 66
     1
 10
0.0
 20
0.0
 30
0.0
  0
VERTEX
  5
34C
  8
02___PRT_ALL_AXES
 10
120.2651464703803
 20
277.1702079746814
 30
0.0
 42
0.0277992443884071
  0
VERTEX
  5
34D
  8
02___PRT_ALL_AXES
 10
121.09418404293
 20
276.6110150712142
 30
0.0
  0
SEQEND
  5
510
  8
02___PRT_ALL_AXES
  0
POLYLINE
  5
13D
  8
02___PRT_ALL_AXES
 66
     1
 10
0.0
 20
0.0
 30
0.0
  0
VERTEX
  5
34E
  8
02___PRT_ALL_AXES
 10
118.3156543494387
 20
279.2020359276764
 30
0.0
 42
0.0277992443883651
  0
VERTEX
  5
34F
  8
02___PRT_ALL_AXES
 10
118.9313158247604
 20
278.4140251740747
 30
0.0
  0
SEQEND
  5
511
  8
02___PRT_ALL_AXES
  0
POLYLINE
  5
13E
  8
02___PRT_ALL_AXES
 66
     1
 10
0.0
 20
0.0
 30
0.0
  0
VERTEX
  5
350
  8
02___PRT_ALL_AXES
 10
117.0894465314726
 20
281.7368453381339
 30
0.0
 42
0.0277992443883983
  0
VERTEX
  5
351
  8
02___PRT_ALL_AXES
 10
117.4314666747961
 20
280.797152717354
 30
0.0
  0
SEQEND
  5
512
  8
02___PRT_ALL_AXES
  0
POLYLINE
  5
13F
  8
02___PRT_ALL_AXES
 66
     1
 10
0.0
 20
0.0
 30
0.0
  0
VERTEX
  5
352
  8
02___PRT_ALL_AXES
 10
116.7065527811968
 20
284.5265113999027
 30
0.0
 42
0.0277992443883864
  0
VERTEX
  5
353
  8
02___PRT_ALL_AXES
 10
116.7414522778991
 20
283.5271205728901
 30
0.0
  0
SEQEND
  5
513
  8
02___PRT_ALL_AXES
  0
POLYLINE
  5
140
  8
02___PRT_ALL_AXES
 66
     1
 10
0.0
 20
0.0
 30
0.0
  0
VERTEX
  5
354
  8
02___PRT_ALL_AXES
 10
117.204453406666
 20
287.2979621621106
 30
0.0
 42
0.0277992443884112
  0
VERTEX
  5
355
  8
02___PRT_ALL_AXES
 10
116.9288160508507
 20
286.3367004661785
 30
0.0
  0
SEQEND
  5
514
  8
02___PRT_ALL_AXES
  0
POLYLINE
  5
141
  8
02___PRT_ALL_AXES
 66
     1
 10
0.0
 20
0.0
 30
0.0
  0
VERTEX
  5
356
  8
02___PRT_ALL_AXES
 10
118.5344104255814
 20
289.7799087143197
 30
0.0
 42
0.0277992443884158
  0
VERTEX
  5
357
  8
02___PRT_ALL_AXES
 10
117.9752175221143
 20
288.9508711417699
 30
0.0
  0
SEQEND
  5
515
  8
02___PRT_ALL_AXES
  0
POLYLINE
  5
142
  8
02___PRT_ALL_AXES
 66
     1
 10
0.0
 20
0.0
 30
0.0
  0
VERTEX
  5
358
  8
02___PRT_ALL_AXES
 10
120.2865384466019
 20
290.226366965439
 30
0.0
 42
0.034568242456307
  0
VERTEX
  5
359
  8
02___PRT_ALL_AXES
 10
119.5272555721061
 20
289.4237382581167
 30
0.0
  0
SEQEND
  5
516
  8
02___PRT_ALL_AXES
  0
POLYLINE
  5
143
  8
02___PRT_ALL_AXES
 66
     1
 10
0.0
 20
0.0
 30
0.0
  0
VERTEX
  5
35A
  8
02___PRT_ALL_AXES
 10
131.2064697913671
 20
278.5326948044414
 30
0.0
 42
0.0309834306631416
  0
VERTEX
  5
35B
  8
02___PRT_ALL_AXES
 10
131.882002063485
 20
279.2571144756724
 30
0.0
  0
SEQEND
  5
517
  8
02___PRT_ALL_AXES
  0
POLYLINE
  5
144
  8
02___PRT_ALL_AXES
 66
     1
 10
0.0
 20
0.0
 30
0.0
  0
VERTEX
  5
35C
  8
02___PRT_ALL_AXES
 10
129.1425027757632
 20
277.1167830583501
 30
0.0
 42
0.0309834306630979
  0
VERTEX
  5
35D
  8
02___PRT_ALL_AXES
 10
130.0088301345985
 20
277.5969961548736
 30
0.0
  0
SEQEND
  5
518
  8
02___PRT_ALL_AXES
  0
POLYLINE
  5
145
  8
02___PRT_ALL_AXES
 66
     1
 10
0.0
 20
0.0
 30
0.0
  0
VERTEX
  5
35E
  8
02___PRT_ALL_AXES
 10
126.7420127040776
 20
276.407971849382
 30
0.0
 42
0.0309834306630878
  0
VERTEX
  5
35F
  8
02___PRT_ALL_AXES
 10
127.7143329916898
 20
276.5969717674689
 30
0.0
  0
SEQEND
  5
519
  8
02___PRT_ALL_AXES
  0
POLYLINE
  5
146
  8
02___PRT_ALL_AXES
 66
     1
 10
0.0
 20
0.0
 30
0.0
  0
VERTEX
  5
360
  8
02___PRT_ALL_AXES
 10
124.2399762697245
 20
276.475644557249
 30
0.0
 42
0.0309834306630851
  0
VERTEX
  5
361
  8
02___PRT_ALL_AXES
 10
125.2231120018084
 20
276.3549306680772
 30
0.0
  0
SEQEND
  5
51A
  8
02___PRT_ALL_AXES
  0
POLYLINE
  5
147
  8
02___PRT_ALL_AXES
 66
     1
 10
0.0
 20
0.0
 30
0.0
  0
VERTEX
  5
362
  8
02___PRT_ALL_AXES
 10
121.8813102316114
 20
277.3131769058018
 30
0.0
 42
0.0309834306631309
  0
VERTEX
  5
363
  8
02___PRT_ALL_AXES
 10
122.7790252328012
 20
276.8945655259063
 30
0.0
  0
SEQEND
  5
51B
  8
02___PRT_ALL_AXES
  0
POLYLINE
  5
148
  8
02___PRT_ALL_AXES
 66
     1
 10
0.0
 20
0.0
 30
0.0
  0
VERTEX
  5
364
  8
02___PRT_ALL_AXES
 10
119.8968972553414
 20
278.8385853933328
 30
0.0
 42
0.0309834306631429
  0
VERTEX
  5
365
  8
02___PRT_ALL_AXES
 10
120.6213169265725
 20
278.163053121215
 30
0.0
  0
SEQEND
  5
51C
  8
02___PRT_ALL_AXES
  0
POLYLINE
  5
149
  8
02___PRT_ALL_AXES
 66
     1
 10
0.0
 20
0.0
 30
0.0
  0
VERTEX
  5
366
  8
02___PRT_ALL_AXES
 10
118.4809855092501
 20
280.9025524089367
 30
0.0
 42
0.0309834306631372
  0
VERTEX
  5
367
  8
02___PRT_ALL_AXES
 10
118.9611986057736
 20
280.0362250501015
 30
0.0
  0
SEQEND
  5
51D
  8
02___PRT_ALL_AXES
  0
POLYLINE
  5
14A
  8
02___PRT_ALL_AXES
 66
     1
 10
0.0
 20
0.0
 30
0.0
  0
VERTEX
  5
368
  8
02___PRT_ALL_AXES
 10
117.772174300282
 20
283.3030424806224
 30
0.0
 42
0.0309834306631028
  0
VERTEX
  5
369
  8
02___PRT_ALL_AXES
 10
117.9611742183689
 20
282.3307221930102
 30
0.0
  0
SEQEND
  5
51E
  8
02___PRT_ALL_AXES
  0
POLYLINE
  5
14B
  8
02___PRT_ALL_AXES
 66
     1
 10
0.0
 20
0.0
 30
0.0
  0
VERTEX
  5
36A
  8
02___PRT_ALL_AXES
 10
117.8398470081491
 20
285.8050789149755
 30
0.0
 42
0.0309834306631184
  0
VERTEX
  5
36B
  8
02___PRT_ALL_AXES
 10
117.7191331189772
 20
284.8219431828916
 30
0.0
  0
SEQEND
  5
51F
  8
02___PRT_ALL_AXES
  0
POLYLINE
  5
14C
  8
02___PRT_ALL_AXES
 66
     1
 10
0.0
 20
0.0
 30
0.0
 70
     1
  0
VERTEX
  5
36C
  8
02___PRT_ALL_AXES
 10
125.7046288178
 20
285.8404263669
 30
0.0
 42
0.4142135623730951
  0
VERTEX
  5
36D
  8
02___PRT_ALL_AXES
 10
124.2046288178
 20
284.3404263669
 30
0.0
 42
0.4142135623730951
  0
VERTEX
  5
36E
  8
02___PRT_ALL_AXES
 10
125.7046288178
 20
282.8404263669
 30
0.0
 42
0.4142135623730951
  0
VERTEX
  5
36F
  8
02___PRT_ALL_AXES
 10
127.2046288178
 20
284.3404263669
 30
0.0
 42
0.4142135623730951
  0
SEQEND
  5
520
  8
02___PRT_ALL_AXES
  0
POLYLINE
  5
14D
  8
02___PRT_ALL_AXES
 66
     1
 10
0.0
 20
0.0
 30
0.0
  0
VERTEX
  5
370
  8
02___PRT_ALL_AXES
 10
118.6773793567018
 20
288.1637449530886
 30
0.0
 42
0.030983430663142
  0
VERTEX
  5
371
  8
02___PRT_ALL_AXES
 10
118.2587679768064
 20
287.2660299518988
 30
0.0
  0
SEQEND
  5
521
  8
02___PRT_ALL_AXES
  0
POLYLINE
  5
14E
  8
02___PRT_ALL_AXES
 66
     1
 10
0.0
 20
0.0
 30
0.0
  0
VERTEX
  5
372
  8
02___PRT_ALL_AXES
 10
148.9574418415127
 20
299.4262552976954
 30
0.0
 42
0.0680854890479081
  0
VERTEX
  5
373
  8
02___PRT_ALL_AXES
 10
143.5633955096243
 20
299.9732114064357
 30
0.0
  0
SEQEND
  5
522
  8
02___PRT_ALL_AXES
  0
POLYLINE
  5
14F
  8
02___PRT_ALL_AXES
 66
     1
 10
0.0
 20
0.0
 30
0.0
  0
VERTEX
  5
374
  8
02___PRT_ALL_AXES
 10
150.6655836514078
 20
285.4812553570285
 30
0.0
 42
0.1129793687630755
  0
VERTEX
  5
375
  8
02___PRT_ALL_AXES
 10
150.0916989844897
 20
286.0934112945044
 30
0.0
  0
SEQEND
  5
523
  8
02___PRT_ALL_AXES
  0
POLYLINE
  5
150
  8
02___PRT_ALL_AXES
 66
     1
 10
0.0
 20
0.0
 30
0.0
  0
VERTEX
  5
376
  8
02___PRT_ALL_AXES
 10
172.6873162095517
 20
280.9780502420336
 30
0.0
 42
0.2679491924241128
  0
VERTEX
  5
377
  8
02___PRT_ALL_AXES
 10
162.6934079395712
 20
280.6290552754787
 30
0.0
  0
SEQEND
  5
524
  8
02___PRT_ALL_AXES
  0
POLYLINE
  5
151
  8
02___PRT_ALL_AXES
 66
     1
 10
0.0
 20
0.0
 30
0.0
  0
VERTEX
  5
378
  8
02___PRT_ALL_AXES
 10
182.5617175180476
 20
289.4278092423606
 30
0.0
 42
0.3366343342493165
  0
VERTEX
  5
379
  8
02___PRT_ALL_AXES
 10
180.6502475014765
 20
291.7706680542083
 30
0.0
  0
SEQEND
  5
525
  8
02___PRT_ALL_AXES
  0
POLYLINE
  5
152
  8
02___PRT_ALL_AXES
 66
     1
 10
0.0
 20
0.0
 30
0.0
  0
VERTEX
  5
37A
  8
02___PRT_ALL_AXES
 10
180.5058289064343
 20
281.2510787213875
 30
0.0
 42
0.4142135623301726
  0
VERTEX
  5
37B
  8
02___PRT_ALL_AXES
 10
182.7627386191245
 20
283.6713180789914
 30
0.0
  0
SEQEND
  5
526
  8
02___PRT_ALL_AXES
  0
POLYLINE
  5
153
  8
02___PRT_ALL_AXES
 66
     1
 10
0.0
 20
0.0
 30
0.0
 70
     1
  0
VERTEX
  5
37C
  8
02___PRT_ALL_AXES
 10
176.4143971849
 20
287.8313845987
 30
0.0
 42
0.4142135623730951
  0
VERTEX
  5
37D
  8
02___PRT_ALL_AXES
 10
174.9143971849
 20
286.3313845987
 30
0.0
 42
0.4142135623730951
  0
VERTEX
  5
37E
  8
02___PRT_ALL_AXES
 10
176.4143971849
 20
284.8313845987
 30
0.0
 42
0.4142135623730951
  0
VERTEX
  5
37F
  8
02___PRT_ALL_AXES
 10
177.9143971849
 20
286.3313845987
 30
0.0
 42
0.4142135623730951
  0
SEQEND
  5
527
  8
02___PRT_ALL_AXES
  0
POLYLINE
  5
154
  8
02___PRT_ALL_AXES
 66
     1
 10
0.0
 20
0.0
 30
0.0
 70
     1
  0
VERTEX
  5
380
  8
02___PRT_ALL_AXES
 10
159.270982194
 20
287.2327233555
 30
0.0
 42
0.4142135623730951
  0
VERTEX
  5
381
  8
02___PRT_ALL_AXES
 10
157.770982194
 20
285.7327233555
 30
0.0
 42
0.4142135623730951
  0
VERTEX
  5
382
  8
02___PRT_ALL_AXES
 10
159.270982194
 20
284.2327233555
 30
0.0
 42
0.4142135623730951
  0
VERTEX
  5
383
  8
02___PRT_ALL_AXES
 10
160.770982194
 20
285.7327233555
 30
0.0
 42
0.4142135623730951
  0
SEQEND
  5
528
  8
02___PRT_ALL_AXES
  0
POLYLINE
  5
155
  8
02___PRT_ALL_AXES
 66
     1
 10
0.0
 20
0.0
 30
0.0
  0
VERTEX
  5
384
  8
02___PRT_ALL_AXES
 10
153.077601117079
 20
281.3469589754519
 30
0.0
 42
0.2761032133708133
  0
VERTEX
  5
385
  8
02___PRT_ALL_AXES
 10
154.8748952432794
 20
280.356026796158
 30
0.0
  0
SEQEND
  5
529
  8
02___PRT_ALL_AXES
  0
POLYLINE
  5
156
  8
02___PRT_ALL_AXES
 66
     1
 10
0.0
 20
0.0
 30
0.0
  0
VERTEX
  5
386
  8
02___PRT_ALL_AXES
 10
153.0323999144091
 20
270.3518906874024
 30
0.0
 42
0.33663433424932
  0
VERTEX
  5
387
  8
02___PRT_ALL_AXES
 10
154.9026902806287
 20
267.9760289526778
 30
0.0
  0
SEQEND
  5
52A
  8
02___PRT_ALL_AXES
  0
POLYLINE
  5
157
  8
02___PRT_ALL_AXES
 66
     1
 10
0.0
 20
0.0
 30
0.0
  0
VERTEX
  5
388
  8
02___PRT_ALL_AXES
 10
155.2306790292392
 20
278.4914956493695
 30
0.0
 42
0.414213562399159
  0
VERTEX
  5
389
  8
02___PRT_ALL_AXES
 10
152.9318740533341
 20
276.111013411531
 30
0.0
  0
SEQEND
  5
52B
  8
02___PRT_ALL_AXES
  0
POLYLINE
  5
158
  8
02___PRT_ALL_AXES
 66
     1
 10
0.0
 20
0.0
 30
0.0
 70
     1
  0
VERTEX
  5
38A
  8
02___PRT_ALL_AXES
 10
159.2328240423
 20
274.8405581979
 30
0.0
 42
0.4142135623730951
  0
VERTEX
  5
38B
  8
02___PRT_ALL_AXES
 10
157.7328240423
 20
273.3405581979
 30
0.0
 42
0.4142135623730951
  0
VERTEX
  5
38C
  8
02___PRT_ALL_AXES
 10
159.2328240423
 20
271.8405581979
 30
0.0
 42
0.4142135623730951
  0
VERTEX
  5
38D
  8
02___PRT_ALL_AXES
 10
160.7328240423
 20
273.3405581979
 30
0.0
 42
0.4142135623730951
  0
SEQEND
  5
52C
  8
02___PRT_ALL_AXES
  0
POLYLINE
  5
159
  8
02___PRT_ALL_AXES
 66
     1
 10
0.0
 20
0.0
 30
0.0
 70
     1
  0
VERTEX
  5
38E
  8
02___PRT_ALL_AXES
 10
176.3840760874
 20
275.1399344159
 30
0.0
 42
0.4142135623730951
  0
VERTEX
  5
38F
  8
02___PRT_ALL_AXES
 10
174.8840760874
 20
273.6399344159
 30
0.0
 42
0.4142135623730951
  0
VERTEX
  5
390
  8
02___PRT_ALL_AXES
 10
176.3840760874
 20
272.1399344159
 30
0.0
 42
0.4142135623730951
  0
VERTEX
  5
391
  8
02___PRT_ALL_AXES
 10
177.8840760874
 20
273.6399344159
 30
0.0
 42
0.4142135623730951
  0
SEQEND
  5
52D
  8
02___PRT_ALL_AXES
  0
POLYLINE
  5
15A
  8
02___PRT_ALL_AXES
 66
     1
 10
0.0
 20
0.0
 30
0.0
  0
VERTEX
  5
392
  8
02___PRT_ALL_AXES
 10
182.6530560249883
 20
277.9169414190135
 30
0.0
 42
0.276103213370789
  0
VERTEX
  5
393
  8
02___PRT_ALL_AXES
 10
180.8733297865336
 20
278.9390897821145
 30
0.0
  0
SEQEND
  5
52E
  8
02___PRT_ALL_AXES
  0
POLYLINE
  5
15B
  8
02___PRT_ALL_AXES
 66
     1
 10
0.0
 20
0.0
 30
0.0
  0
VERTEX
  5
394
  8
02___PRT_ALL_AXES
 10
163.0527659322313
 20
278.6280306837753
 30
0.0
 42
0.2679491924250444
  0
VERTEX
  5
395
  8
02___PRT_ALL_AXES
 10
173.0512428836068
 20
278.8025547476822
 30
0.0
  0
SEQEND
  5
52F
  8
02___PRT_ALL_AXES
  0
POLYLINE
  5
15C
  8
02___PRT_ALL_AXES
 66
     1
 10
0.0
 20
0.0
 30
0.0
  0
VERTEX
  5
396
  8
02___PRT_ALL_AXES
 10
184.9925527079537
 20
273.7411792016215
 30
0.0
 42
0.1129793687635669
  0
VERTEX
  5
397
  8
02___PRT_ALL_AXES
 10
185.5556663752363
 20
273.1191008300029
 30
0.0
  0
SEQEND
  5
530
  8
02___PRT_ALL_AXES
  0
POLYLINE
  5
15D
  8
02___PRT_ALL_AXES
 66
     1
 10
0.0
 20
0.0
 30
0.0
  0
VERTEX
  5
398
  8
02___PRT_ALL_AXES
 10
186.4570605402625
 20
259.7684919699402
 30
0.0
 42
0.0680854891781019
  0
VERTEX
  5
399
  8
02___PRT_ALL_AXES
 10
191.8407396424457
 20
259.1274800733722
 30
0.0
  0
SEQEND
  5
531
  8
02___PRT_ALL_AXES
  0
POLYLINE
  5
15E
  8
02___PRT_ALL_AXES
 66
     1
 10
0.0
 20
0.0
 30
0.0
  0
VERTEX
  5
39A
  8
02___PRT_ALL_AXES
 10
203.8528856121128
 20
281.0481454546319
 30
0.0
 42
0.0277992443617333
  0
VERTEX
  5
39B
  8
02___PRT_ALL_AXES
 10
203.158227242291
 20
280.3288056550323
 30
0.0
  0
SEQEND
  5
532
  8
02___PRT_ALL_AXES
  0
POLYLINE
  5
15F
  8
02___PRT_ALL_AXES
 66
     1
 10
0.0
 20
0.0
 30
0.0
  0
VERTEX
  5
39C
  8
02___PRT_ALL_AXES
 10
216.0863465447667
 20
267.8442659639053
 30
0.0
 42
0.0277992443884213
  0
VERTEX
  5
39D
  8
02___PRT_ALL_AXES
 10
216.7810049152212
 20
268.5636057642394
 30
0.0
  0
SEQEND
  5
533
  8
02___PRT_ALL_AXES
  0
POLYLINE
  5
160
  8
02___PRT_ALL_AXES
 66
     1
 10
0.0
 20
0.0
 30
0.0
  0
VERTEX
  5
39E
  8
02___PRT_ALL_AXES
 10
217.8270840240255
 20
270.0575615583728
 30
0.0
 42
0.0277992443888343
  0
VERTEX
  5
39F
  8
02___PRT_ALL_AXES
 10
218.2654551708179
 20
270.9563556046807
 30
0.0
  0
SEQEND
  5
534
  8
02___PRT_ALL_AXES
  0
POLYLINE
  5
161
  8
02___PRT_ALL_AXES
 66
     1
 10
0.0
 20
0.0
 30
0.0
  0
VERTEX
  5
3A0
  8
02___PRT_ALL_AXES
 10
218.7986777945682
 20
272.7004482198147
 30
0.0
 42
0.0277992443897256
  0
VERTEX
  5
3A1
  8
02___PRT_ALL_AXES
 10
218.9378508955313
 20
273.6907162885969
 30
0.0
  0
SEQEND
  5
535
  8
02___PRT_ALL_AXES
  0
POLYLINE
  5
162
  8
02___PRT_ALL_AXES
 66
     1
 10
0.0
 20
0.0
 30
0.0
  0
VERTEX
  5
3A2
  8
02___PRT_ALL_AXES
 10
218.9060214886477
 20
275.5142217876884
 30
0.0
 42
0.0277992443897094
  0
VERTEX
  5
3A3
  8
02___PRT_ALL_AXES
 10
218.7323733109763
 20
276.499029540741
 30
0.0
  0
SEQEND
  5
536
  8
02___PRT_ALL_AXES
  0
POLYLINE
  5
163
  8
02___PRT_ALL_AXES
 66
     1
 10
0.0
 20
0.0
 30
0.0
  0
VERTEX
  5
3A4
  8
02___PRT_ALL_AXES
 10
218.1386075575705
 20
278.2234505005785
 30
0.0
 42
0.0277992443888351
  0
VERTEX
  5
3A5
  8
02___PRT_ALL_AXES
 10
217.669135994781
 20
279.106398093446
 30
0.0
  0
SEQEND
  5
537
  8
02___PRT_ALL_AXES
  0
POLYLINE
  5
164
  8
02___PRT_ALL_AXES
 66
     1
 10
0.0
 20
0.0
 30
0.0
  0
VERTEX
  5
3A6
  8
02___PRT_ALL_AXES
 10
216.5715558237947
 20
280.5629361756667
 30
0.0
 42
0.0277992443884419
  0
VERTEX
  5
3A7
  8
02___PRT_ALL_AXES
 10
215.8522160234606
 20
281.2575945461213
 30
0.0
  0
SEQEND
  5
538
  8
02___PRT_ALL_AXES
  0
POLYLINE
  5
165
  8
02___PRT_ALL_AXES
 66
     1
 10
0.0
 20
0.0
 30
0.0
  0
VERTEX
  5
3A8
  8
02___PRT_ALL_AXES
 10
214.3582602293272
 20
282.3036736549255
 30
0.0
 42
0.0277992443884319
  0
VERTEX
  5
3A9
  8
02___PRT_ALL_AXES
 10
213.4594661830338
 20
282.7420448017118
 30
0.0
  0
SEQEND
  5
539
  8
02___PRT_ALL_AXES
  0
POLYLINE
  5
166
  8
02___PRT_ALL_AXES
 66
     1
 10
0.0
 20
0.0
 30
0.0
  0
VERTEX
  5
3AA
  8
02___PRT_ALL_AXES
 10
211.7153735678853
 20
283.2752674254681
 30
0.0
 42
0.0277992443883732
  0
VERTEX
  5
3AB
  8
02___PRT_ALL_AXES
 10
210.7251054991501
 20
283.4144405264273
 30
0.0
  0
SEQEND
  5
53A
  8
02___PRT_ALL_AXES
  0
POLYLINE
  5
167
  8
02___PRT_ALL_AXES
 66
     1
 10
0.0
 20
0.0
 30
0.0
  0
VERTEX
  5
3AC
  8
02___PRT_ALL_AXES
 10
208.9015999999648
 20
283.382611119542
 30
0.0
 42
0.0277992443883453
  0
VERTEX
  5
3AD
  8
02___PRT_ALL_AXES
 10
207.9167922469589
 20
283.2089629418763
 30
0.0
  0
SEQEND
  5
53B
  8
02___PRT_ALL_AXES
  0
POLYLINE
  5
168
  8
02___PRT_ALL_AXES
 66
     1
 10
0.0
 20
0.0
 30
0.0
  0
VERTEX
  5
3AE
  8
02___PRT_ALL_AXES
 10
206.1923712871072
 20
282.6151971884639
 30
0.0
 42
0.0277992443884066
  0
VERTEX
  5
3AF
  8
02___PRT_ALL_AXES
 10
205.309423694254
 20
282.1457256256809
 30
0.0
  0
SEQEND
  5
53C
  8
02___PRT_ALL_AXES
  0
POLYLINE
  5
169
  8
02___PRT_ALL_AXES
 66
     1
 10
0.0
 20
0.0
 30
0.0
  0
VERTEX
  5
3B0
  8
02___PRT_ALL_AXES
 10
216.2261935249086
 20
269.4607028604551
 30
0.0
 42
0.0309834306630973
  0
VERTEX
  5
3B1
  8
02___PRT_ALL_AXES
 10
216.7943318313496
 20
270.2720884503528
 30
0.0
  0
SEQEND
  5
53D
  8
02___PRT_ALL_AXES
  0
POLYLINE
  5
16A
  8
02___PRT_ALL_AXES
 66
     1
 10
0.0
 20
0.0
 30
0.0
  0
VERTEX
  5
3B2
  8
02___PRT_ALL_AXES
 10
217.4605799344051
 20
271.6380994954922
 30
0.0
 42
0.0309834306635386
  0
VERTEX
  5
3B3
  8
02___PRT_ALL_AXES
 10
217.7501796366367
 20
272.5853374398516
 30
0.0
  0
SEQEND
  5
53E
  8
02___PRT_ALL_AXES
  0
POLYLINE
  5
16B
  8
02___PRT_ALL_AXES
 66
     1
 10
0.0
 20
0.0
 30
0.0
  0
VERTEX
  5
3B4
  8
02___PRT_ALL_AXES
 10
217.9616986090634
 20
274.0903731320051
 30
0.0
 42
0.0309834306604964
  0
VERTEX
  5
3B5
  8
02___PRT_ALL_AXES
 10
217.9444116704666
 20
275.0807411809281
 30
0.0
  0
SEQEND
  5
53F
  8
02___PRT_ALL_AXES
  0
POLYLINE
  5
16C
  8
02___PRT_ALL_AXES
 66
     1
 10
0.0
 20
0.0
 30
0.0
  0
VERTEX
  5
3B6
  8
02___PRT_ALL_AXES
 10
217.6804965615074
 20
276.5774781403219
 30
0.0
 42
0.0309834306635428
  0
VERTEX
  5
3B7
  8
02___PRT_ALL_AXES
 10
217.358015148074
 20
277.514032169066
 30
0.0
  0
SEQEND
  5
540
  8
02___PRT_ALL_AXES
  0
POLYLINE
  5
16D
  8
02___PRT_ALL_AXES
 66
     1
 10
0.0
 20
0.0
 30
0.0
  0
VERTEX
  5
3B8
  8
02___PRT_ALL_AXES
 10
216.6444998074038
 20
278.8559593536979
 30
0.0
 42
0.0309834306635248
  0
VERTEX
  5
3B9
  8
02___PRT_ALL_AXES
 10
216.0483906467417
 20
279.6470229284765
 30
0.0
  0
SEQEND
  5
541
  8
02___PRT_ALL_AXES
  0
POLYLINE
  5
16E
  8
02___PRT_ALL_AXES
 66
     1
 10
0.0
 20
0.0
 30
0.0
  0
VERTEX
  5
3BA
  8
02___PRT_ALL_AXES
 10
214.9551189272449
 20
280.7027831558086
 30
0.0
 42
0.0309834306631135
  0
VERTEX
  5
3BB
  8
02___PRT_ALL_AXES
 10
214.1437333373472
 20
281.2709214622496
 30
0.0
  0
SEQEND
  5
542
  8
02___PRT_ALL_AXES
  0
POLYLINE
  5
16F
  8
02___PRT_ALL_AXES
 66
     1
 10
0.0
 20
0.0
 30
0.0
  0
VERTEX
  5
3BC
  8
02___PRT_ALL_AXES
 10
212.7777222922078
 20
281.9371695653051
 30
0.0
 42
0.0309834306630646
  0
VERTEX
  5
3BD
  8
02___PRT_ALL_AXES
 10
211.830484347862
 20
282.2267692675334
 30
0.0
  0
SEQEND
  5
543
  8
02___PRT_ALL_AXES
  0
POLYLINE
  5
170
  8
02___PRT_ALL_AXES
 66
     1
 10
0.0
 20
0.0
 30
0.0
  0
VERTEX
  5
3BE
  8
02___PRT_ALL_AXES
 10
210.3254486557367
 20
282.4382882399615
 30
0.0
 42
0.0309834306635876
  0
VERTEX
  5
3BF
  8
02___PRT_ALL_AXES
 10
209.3350806067162
 20
282.4210013013622
 30
0.0
  0
SEQEND
  5
544
  8
02___PRT_ALL_AXES
  0
POLYLINE
  5
171
  8
02___PRT_ALL_AXES
 66
     1
 10
0.0
 20
0.0
 30
0.0
  0
VERTEX
  5
3C0
  8
02___PRT_ALL_AXES
 10
207.8383436473647
 20
282.1570861924037
 30
0.0
 42
0.0309834306630614
  0
VERTEX
  5
3C1
  8
02___PRT_ALL_AXES
 10
206.901789618634
 20
281.834604778974
 30
0.0
  0
SEQEND
  5
545
  8
02___PRT_ALL_AXES
  0
POLYLINE
  5
172
  8
02___PRT_ALL_AXES
 66
     1
 10
0.0
 20
0.0
 30
0.0
 70
     1
  0
VERTEX
  5
3C2
  8
02___PRT_ALL_AXES
 10
209.9696160784
 20
275.6962057093
 30
0.0
 42
0.4142135623730951
  0
VERTEX
  5
3C3
  8
02___PRT_ALL_AXES
 10
208.7196160784
 20
274.4462057093
 30
0.0
 42
0.4142135623730951
  0
VERTEX
  5
3C4
  8
02___PRT_ALL_AXES
 10
209.9696160784
 20
273.1962057093
 30
0.0
 42
0.4142135623730951
  0
VERTEX
  5
3C5
  8
02___PRT_ALL_AXES
 10
211.2196160784
 20
274.4462057093
 30
0.0
 42
0.4142135623730951
  0
SEQEND
  5
546
  8
02___PRT_ALL_AXES
  0
POLYLINE
  5
173
  8
02___PRT_ALL_AXES
 66
     1
 10
0.0
 20
0.0
 30
0.0
  0
VERTEX
  5
3C6
  8
02___PRT_ALL_AXES
 10
205.5598624339905
 20
281.1210894382961
 30
0.0
 42
0.03098343066349
  0
VERTEX
  5
3C7
  8
02___PRT_ALL_AXES
 10
204.7687988592129
 20
280.5249802776326
 30
0.0
  0
SEQEND
  5
547
  8
02___PRT_ALL_AXES
  0
POLYLINE
  5
174
  8
02___PRT_ALL_AXES
 66
     1
 10
0.0
 20
0.0
 30
0.0
  0
VERTEX
  5
3C8
  8
02___PRT_ALL_AXES
 10
191.8407396424784
 20
259.1274800733509
 30
0.0
 42
0.1807959260452089
  0
VERTEX
  5
3C9
  8
02___PRT_ALL_AXES
 10
215.0539310370572
 20
268.2696580165557
 30
0.0
  0
SEQEND
  5
548
  8
02___PRT_ALL_AXES
  0
POLYLINE
  5
175
  8
02___PRT_ALL_AXES
 66
     1
 10
0.0
 20
0.0
 30
0.0
  0
VERTEX
  5
3CA
  8
02___PRT_ALL_AXES
 10
185.5556663752093
 20
273.11910083
 30
0.0
 42
0.4917951934266236
  0
VERTEX
  5
3CB
  8
02___PRT_ALL_AXES
 10
203.1580908229337
 20
278.6418133665618
 30
0.0
  0
SEQEND
  5
549
  8
02___PRT_ALL_AXES
  0
POLYLINE
  5
176
  8
02___PRT_ALL_AXES
 66
     1
 10
0.0
 20
0.0
 30
0.0
  0
VERTEX
  5
3CC
  8
02___PRT_ALL_AXES
 10
211.1383293953
 20
296.8119695396
 30
0.0
 42
0.1807959260456619
  0
VERTEX
  5
3CD
  8
02___PRT_ALL_AXES
 10
187.7691204769725
 20
288.0763100452609
 30
0.0
  0
SEQEND
  5
54A
  8
02___PRT_ALL_AXES
  0
POLYLINE
  5
177
  8
02___PRT_ALL_AXES
 66
     1
 10
0.0
 20
0.0
 30
0.0
  0
VERTEX
  5
3CE
  8
02___PRT_ALL_AXES
 10
217.1782579632437
 20
282.7127901214248
 30
0.0
 42
0.4917951939229691
  0
VERTEX
  5
3CF
  8
02___PRT_ALL_AXES
 10
199.4821298194627
 20
277.4981233691169
 30
0.0
  0
SEQEND
  5
54B
  8
02___PRT_ALL_AXES
  0
POLYLINE
  5
178
  8
02___PRT_ALL_AXES
 66
     1
 10
0.0
 20
0.0
 30
0.0
  0
VERTEX
  5
3D0
  8
02___PRT_ALL_AXES
 10
198.7454445720785
 20
275.1042836354395
 30
0.0
 42
0.0277992443879825
  0
VERTEX
  5
3D1
  8
02___PRT_ALL_AXES
 10
199.4525513532501
 20
275.8113904166098
 30
0.0
  0
SEQEND
  5
54C
  8
02___PRT_ALL_AXES
  0
POLYLINE
  5
179
  8
02___PRT_ALL_AXES
 66
     1
 10
0.0
 20
0.0
 30
0.0
  0
VERTEX
  5
3D2
  8
02___PRT_ALL_AXES
 10
186.7442863261215
 20
288.5196554437605
 30
0.0
 42
0.0277992443893074
  0
VERTEX
  5
3D3
  8
02___PRT_ALL_AXES
 10
186.0371795449185
 20
287.8125486625551
 30
0.0
  0
SEQEND
  5
54D
  8
02___PRT_ALL_AXES
  0
POLYLINE
  5
17A
  8
02___PRT_ALL_AXES
 66
     1
 10
0.0
 20
0.0
 30
0.0
  0
VERTEX
  5
3D4
  8
02___PRT_ALL_AXES
 10
184.9651866353159
 20
286.337077002894
 30
0.0
 42
0.0277992443888398
  0
VERTEX
  5
3D5
  8
02___PRT_ALL_AXES
 10
184.511196135576
 20
285.4460704786954
 30
0.0
  0
SEQEND
  5
54E
  8
02___PRT_ALL_AXES
  0
POLYLINE
  5
17B
  8
02___PRT_ALL_AXES
 66
     1
 10
0.0
 20
0.0
 30
0.0
  0
VERTEX
  5
3D6
  8
02___PRT_ALL_AXES
 10
183.9476161110299
 20
283.7115495152329
 30
0.0
 42
0.0277992443923186
  0
VERTEX
  5
3D7
  8
02___PRT_ALL_AXES
 10
183.7911816459832
 20
282.7238611745023
 30
0.0
  0
SEQEND
  5
54F
  8
02___PRT_ALL_AXES
  0
POLYLINE
  5
17C
  8
02___PRT_ALL_AXES
 66
     1
 10
0.0
 20
0.0
 30
0.0
  0
VERTEX
  5
3D8
  8
02___PRT_ALL_AXES
 10
183.7911816459848
 20
280.9000779046821
 30
0.0
 42
0.0277992443918859
  0
VERTEX
  5
3D9
  8
02___PRT_ALL_AXES
 10
183.9476161110299
 20
279.9123895639671
 30
0.0
  0
SEQEND
  5
550
  8
02___PRT_ALL_AXES
  0
POLYLINE
  5
17D
  8
02___PRT_ALL_AXES
 66
     1
 10
0.0
 20
0.0
 30
0.0
  0
VERTEX
  5
3DA
  8
02___PRT_ALL_AXES
 10
184.5111961355887
 20
278.1778686004758
 30
0.0
 42
0.0277992443887899
  0
VERTEX
  5
3DB
  8
02___PRT_ALL_AXES
 10
184.9651866353317
 20
277.2868620762789
 30
0.0
  0
SEQEND
  5
551
  8
02___PRT_ALL_AXES
  0
POLYLINE
  5
17E
  8
02___PRT_ALL_AXES
 66
     1
 10
0.0
 20
0.0
 30
0.0
  0
VERTEX
  5
3DC
  8
02___PRT_ALL_AXES
 10
186.0371795449185
 20
275.8113904166449
 30
0.0
 42
0.0277992443893073
  0
VERTEX
  5
3DD
  8
02___PRT_ALL_AXES
 10
186.7442863261215
 20
275.1042836354395
 30
0.0
  0
SEQEND
  5
552
  8
02___PRT_ALL_AXES
  0
POLYLINE
  5
17F
  8
02___PRT_ALL_AXES
 66
     1
 10
0.0
 20
0.0
 30
0.0
  0
VERTEX
  5
3DE
  8
02___PRT_ALL_AXES
 10
188.2197579857788
 20
274.0322907258317
 30
0.0
 42
0.027799244388399
  0
VERTEX
  5
3DF
  8
02___PRT_ALL_AXES
 10
189.1107645099615
 20
273.5783002260951
 30
0.0
  0
SEQEND
  5
553
  8
02___PRT_ALL_AXES
  0
POLYLINE
  5
180
  8
02___PRT_ALL_AXES
 66
     1
 10
0.0
 20
0.0
 30
0.0
  0
VERTEX
  5
3E0
  8
02___PRT_ALL_AXES
 10
190.8452854734211
 20
273.0147202015398
 30
0.0
 42
0.0277992443879065
  0
VERTEX
  5
3E1
  8
02___PRT_ALL_AXES
 10
191.8329738139945
 20
272.8582857365039
 30
0.0
  0
SEQEND
  5
554
  8
02___PRT_ALL_AXES
  0
POLYLINE
  5
181
  8
02___PRT_ALL_AXES
 66
     1
 10
0.0
 20
0.0
 30
0.0
  0
VERTEX
  5
3E2
  8
02___PRT_ALL_AXES
 10
193.6567570842055
 20
272.8582857365039
 30
0.0
 42
0.0277992443888322
  0
VERTEX
  5
3E3
  8
02___PRT_ALL_AXES
 10
194.6444454248096
 20
273.0147202015465
 30
0.0
  0
SEQEND
  5
555
  8
02___PRT_ALL_AXES
  0
POLYLINE
  5
182
  8
02___PRT_ALL_AXES
 66
     1
 10
0.0
 20
0.0
 30
0.0
  0
VERTEX
  5
3E4
  8
02___PRT_ALL_AXES
 10
196.3789663882385
 20
273.5783002260951
 30
0.0
 42
0.0277992443883976
  0
VERTEX
  5
3E5
  8
02___PRT_ALL_AXES
 10
197.2699729124212
 20
274.0322907258317
 30
0.0
  0
SEQEND
  5
556
  8
02___PRT_ALL_AXES
  0
POLYLINE
  5
183
  8
02___PRT_ALL_AXES
 66
     1
 10
0.0
 20
0.0
 30
0.0
  0
VERTEX
  5
3E6
  8
02___PRT_ALL_AXES
 10
186.5762499316354
 20
286.9059054046944
 30
0.0
 42
0.0309834306635753
  0
VERTEX
  5
3E7
  8
02___PRT_ALL_AXES
 10
185.9940375243133
 20
286.1045587733749
 30
0.0
  0
SEQEND
  5
557
  8
02___PRT_ALL_AXES
  0
POLYLINE
  5
184
  8
02___PRT_ALL_AXES
 66
     1
 10
0.0
 20
0.0
 30
0.0
  0
VERTEX
  5
3E8
  8
02___PRT_ALL_AXES
 10
185.3040507141205
 20
284.7503834110131
 30
0.0
 42
0.0309834306639553
  0
VERTEX
  5
3E9
  8
02___PRT_ALL_AXES
 10
184.99796353773
 20
283.808343947273
 30
0.0
  0
SEQEND
  5
558
  8
02___PRT_ALL_AXES
  0
POLYLINE
  5
185
  8
02___PRT_ALL_AXES
 66
     1
 10
0.0
 20
0.0
 30
0.0
  0
VERTEX
  5
3EA
  8
02___PRT_ALL_AXES
 10
184.7602102860696
 20
282.307228994322
 30
0.0
 42
0.0309834306513103
  0
VERTEX
  5
3EB
  8
02___PRT_ALL_AXES
 10
184.7602102860704
 20
281.316710084864
 30
0.0
  0
SEQEND
  5
559
  8
02___PRT_ALL_AXES
  0
POLYLINE
  5
186
  8
02___PRT_ALL_AXES
 66
     1
 10
0.0
 20
0.0
 30
0.0
  0
VERTEX
  5
3EC
  8
02___PRT_ALL_AXES
 10
184.99796353773
 20
279.815595131927
 30
0.0
 42
0.0309834306648533
  0
VERTEX
  5
3ED
  8
02___PRT_ALL_AXES
 10
185.3040507141308
 20
278.873555668161
 30
0.0
  0
SEQEND
  5
55A
  8
02___PRT_ALL_AXES
  0
POLYLINE
  5
187
  8
02___PRT_ALL_AXES
 66
     1
 10
0.0
 20
0.0
 30
0.0
  0
VERTEX
  5
3EE
  8
02___PRT_ALL_AXES
 10
185.9940375243283
 20
277.5193803058015
 30
0.0
 42
0.0309834306631388
  0
VERTEX
  5
3EF
  8
02___PRT_ALL_AXES
 10
186.5762499316443
 20
276.7180336744948
 30
0.0
  0
SEQEND
  5
55B
  8
02___PRT_ALL_AXES
  0
POLYLINE
  5
188
  8
02___PRT_ALL_AXES
 66
     1
 10
0.0
 20
0.0
 30
0.0
  0
VERTEX
  5
3F0
  8
02___PRT_ALL_AXES
 10
187.650929583984
 20
275.6433540221532
 30
0.0
 42
0.0309834306631381
  0
VERTEX
  5
3F1
  8
02___PRT_ALL_AXES
 10
188.4522762152897
 20
275.0611416148358
 30
0.0
  0
SEQEND
  5
55C
  8
02___PRT_ALL_AXES
  0
POLYLINE
  5
189
  8
02___PRT_ALL_AXES
 66
     1
 10
0.0
 20
0.0
 30
0.0
  0
VERTEX
  5
3F2
  8
02___PRT_ALL_AXES
 10
189.8064515776479
 20
274.3711548046359
 30
0.0
 42
0.0309834306635291
  0
VERTEX
  5
3F3
  8
02___PRT_ALL_AXES
 10
190.7484910413729
 20
274.0650676282439
 30
0.0
  0
SEQEND
  5
55D
  8
02___PRT_ALL_AXES
  0
POLYLINE
  5
18A
  8
02___PRT_ALL_AXES
 66
     1
 10
0.0
 20
0.0
 30
0.0
  0
VERTEX
  5
3F4
  8
02___PRT_ALL_AXES
 10
192.2496059941829
 20
273.8273143765817
 30
0.0
 42
0.0309834306635527
  0
VERTEX
  5
3F5
  8
02___PRT_ALL_AXES
 10
193.240124904031
 20
273.8273143765825
 30
0.0
  0
SEQEND
  5
55E
  8
02___PRT_ALL_AXES
  0
POLYLINE
  5
18B
  8
02___PRT_ALL_AXES
 66
     1
 10
0.0
 20
0.0
 30
0.0
  0
VERTEX
  5
3F6
  8
02___PRT_ALL_AXES
 10
194.7412398568541
 20
274.0650676282509
 30
0.0
 42
0.0309834306626672
  0
VERTEX
  5
3F7
  8
02___PRT_ALL_AXES
 10
195.683279320552
 20
274.3711548046359
 30
0.0
  0
SEQEND
  5
55F
  8
02___PRT_ALL_AXES
  0
POLYLINE
  5
18C
  8
02___PRT_ALL_AXES
 66
     1
 10
0.0
 20
0.0
 30
0.0
  0
VERTEX
  5
3F8
  8
02___PRT_ALL_AXES
 10
197.0374546829103
 20
275.0611416148358
 30
0.0
 42
0.0309834306631381
  0
VERTEX
  5
3F9
  8
02___PRT_ALL_AXES
 10
197.8388013142159
 20
275.6433540221532
 30
0.0
  0
SEQEND
  5
560
  8
02___PRT_ALL_AXES
  0
POLYLINE
  5
18D
  8
02___PRT_ALL_AXES
 66
     1
 10
0.0
 20
0.0
 30
0.0
  0
VERTEX
  5
3FA
  8
02___PRT_ALL_AXES
 10
192.426746988071
 20
285.4480801876348
 30
0.0
 42
0.5773502691896242
  0
VERTEX
  5
3FB
  8
02___PRT_ALL_AXES
 10
189.7549604874452
 20
279.7184155469187
 30
0.0
 42
0.5773502691896285
  0
VERTEX
  5
3FC
  8
02___PRT_ALL_AXES
 10
196.0528888717838
 20
280.2694128842464
 30
0.0
  0
SEQEND
  5
561
  8
02___PRT_ALL_AXES
  0
POLYLINE
  5
18E
  8
02___PRT_ALL_AXES
 66
     1
 10
0.0
 20
0.0
 30
0.0
  0
VERTEX
  5
3FD
  8
02___PRT_ALL_AXES
 10
205.4420621463021
 20
288.261093203622
 30
0.0
 42
0.4142135623730914
  0
VERTEX
  5
3FE
  8
02___PRT_ALL_AXES
 10
205.933213362178
 20
291.0465501649021
 30
0.0
 42
0.4142135623730915
  0
VERTEX
  5
3FF
  8
02___PRT_ALL_AXES
 10
203.1477564008979
 20
291.5377013807779
 30
0.0
  0
SEQEND
  5
562
  8
02___PRT_ALL_AXES
  0
POLYLINE
  5
18F
  8
02___PRT_ALL_AXES
 66
     1
 10
0.0
 20
0.0
 30
0.0
  0
VERTEX
  5
400
  8
02___PRT_ALL_AXES
 10
216.5100013369294
 20
296.0770971164293
 30
0.0
 42
0.0680854891780973
  0
VERTEX
  5
401
  8
02___PRT_ALL_AXES
 10
211.1383293953
 20
296.8119695396
 30
0.0
  0
SEQEND
  5
563
  8
02___PRT_ALL_AXES
  0
POLYLINE
  5
190
  8
02___PRT_ALL_AXES
 66
     1
 10
0.0
 20
0.0
 30
0.0
  0
VERTEX
  5
402
  8
02___PRT_ALL_AXES
 10
217.7304291010429
 20
282.0809788067322
 30
0.0
 42
0.1129793687636212
  0
VERTEX
  5
403
  8
02___PRT_ALL_AXES
 10
217.1782579632767
 20
282.7127901213935
 30
0.0
  0
SEQEND
  5
564
  8
02___PRT_ALL_AXES
  0
POLYLINE
  5
191
  8
02___PRT_ALL_AXES
 66
     1
 10
0.0
 20
0.0
 30
0.0
  0
VERTEX
  5
404
  8
02___PRT_ALL_AXES
 10
239.5815870227023
 20
276.8119695397698
 30
0.0
 42
0.2679491924250459
  0
VERTEX
  5
405
  8
02___PRT_ALL_AXES
 10
229.5815870228988
 20
276.8119695402323
 30
0.0
  0
SEQEND
  5
565
  8
02___PRT_ALL_AXES
  0
POLYLINE
  5
192
  8
02___PRT_ALL_AXES
 66
     1
 10
0.0
 20
0.0
 30
0.0
  0
VERTEX
  5
406
  8
02___PRT_ALL_AXES
 10
249.7448654491
 20
284.9119695396044
 30
0.0
 42
0.3366343342493134
  0
VERTEX
  5
407
  8
02___PRT_ALL_AXES
 10
247.9163244417953
 20
287.320110486706
 30
0.0
  0
SEQEND
  5
566
  8
02___PRT_ALL_AXES
  0
POLYLINE
  5
193
  8
02___PRT_ALL_AXES
 66
     1
 10
0.0
 20
0.0
 30
0.0
  0
VERTEX
  5
408
  8
02___PRT_ALL_AXES
 10
247.4048654488917
 20
276.8119695394
 30
0.0
 42
0.4142135623991696
  0
VERTEX
  5
409
  8
02___PRT_ALL_AXES
 10
249.7448654492
 20
279.1519695395
 30
0.0
  0
SEQEND
  5
567
  8
02___PRT_ALL_AXES
  0
POLYLINE
  5
194
  8
02___PRT_ALL_AXES
 66
     1
 10
0.0
 20
0.0
 30
0.0
 70
     1
  0
VERTEX
  5
40A
  8
02___PRT_ALL_AXES
 10
243.4932262358
 20
283.5319695396
 30
0.0
 42
0.4142135623730951
  0
VERTEX
  5
40B
  8
02___PRT_ALL_AXES
 10
241.9932262358
 20
282.0319695396
 30
0.0
 42
0.4142135623730951
  0
VERTEX
  5
40C
  8
02___PRT_ALL_AXES
 10
243.4932262358
 20
280.5319695396
 30
0.0
 42
0.4142135623730951
  0
VERTEX
  5
40D
  8
02___PRT_ALL_AXES
 10
244.9932262358
 20
282.0319695396
 30
0.0
 42
0.4142135623730951
  0
SEQEND
  5
568
  8
02___PRT_ALL_AXES
  0
POLYLINE
  5
195
  8
02___PRT_ALL_AXES
 66
     1
 10
0.0
 20
0.0
 30
0.0
 70
     1
  0
VERTEX
  5
40E
  8
02___PRT_ALL_AXES
 10
226.339361574
 20
283.5319695396
 30
0.0
 42
0.4142135623730951
  0
VERTEX
  5
40F
  8
02___PRT_ALL_AXES
 10
224.839361574
 20
282.0319695396
 30
0.0
 42
0.4142135623730951
  0
VERTEX
  5
410
  8
02___PRT_ALL_AXES
 10
226.339361574
 20
280.5319695396
 30
0.0
 42
0.4142135623730951
  0
VERTEX
  5
411
  8
02___PRT_ALL_AXES
 10
227.839361574
 20
282.0319695396
 30
0.0
 42
0.4142135623730951
  0
SEQEND
  5
569
  8
02___PRT_ALL_AXES
  0
POLYLINE
  5
196
  8
02___PRT_ALL_AXES
 66
     1
 10
0.0
 20
0.0
 30
0.0
 70
     1
  0
VERTEX
  5
412
  8
02___PRT_ALL_AXES
 10
145.6371478027774
 20
321.656638471287
 30
0.0
 42
0.4142135623730951
  0
VERTEX
  5
413
  8
02___PRT_ALL_AXES
 10
141.9621478027774
 20
317.981638471287
 30
0.0
 42
0.4142135623730951
  0
VERTEX
  5
414
  8
02___PRT_ALL_AXES
 10
145.6371478027774
 20
314.306638471287
 30
0.0
 42
0.4142135623730951
  0
VERTEX
  5
415
  8
02___PRT_ALL_AXES
 10
149.3121478027774
 20
317.981638471287
 30
0.0
 42
0.4142135623730951
  0
SEQEND
  5
56A
  8
02___PRT_ALL_AXES
  0
POLYLINE
  5
197
  8
02___PRT_ALL_AXES
 66
     1
 10
0.0
 20
0.0
 30
0.0
  0
VERTEX
  5
416
  8
02___PRT_ALL_AXES
 10
219.996692367853
 20
277.865022731215
 30
0.0
 42
0.2761032133708041
  0
VERTEX
  5
417
  8
02___PRT_ALL_AXES
 10
221.7583085967092
 20
276.8119695406
 30
0.0
  0
SEQEND
  5
56B
  8
02___PRT_ALL_AXES
  0
POLYLINE
  5
198
  8
02___PRT_ALL_AXES
 66
     1
 10
0.0
 20
0.0
 30
0.0
 70
     1
  0
VERTEX
  5
418
  8
02___PRT_ALL_AXES
 10
132.8371478027774
 20
319.081638471287
 30
0.0
 42
0.4142135623730951
  0
VERTEX
  5
419
  8
02___PRT_ALL_AXES
 10
131.7371478027774
 20
317.981638471287
 30
0.0
 42
0.4142135623730951
  0
VERTEX
  5
41A
  8
02___PRT_ALL_AXES
 10
132.8371478027774
 20
316.881638471287
 30
0.0
 42
0.4142135623730951
  0
VERTEX
  5
41B
  8
02___PRT_ALL_AXES
 10
133.9371478027774
 20
317.981638471287
 30
0.0
 42
0.4142135623730951
  0
SEQEND
  5
56C
  8
02___PRT_ALL_AXES
  0
POLYLINE
  5
199
  8
02___PRT_ALL_AXES
 66
     1
 10
0.0
 20
0.0
 30
0.0
 70
     1
  0
VERTEX
  5
41C
  8
02___PRT_ALL_AXES
 10
158.4371478027774
 20
319.081638471287
 30
0.0
 42
0.4142135623730951
  0
VERTEX
  5
41D
  8
02___PRT_ALL_AXES
 10
157.3371478027774
 20
317.981638471287
 30
0.0
 42
0.4142135623730951
  0
VERTEX
  5
41E
  8
02___PRT_ALL_AXES
 10
158.4371478027774
 20
316.881638471287
 30
0.0
 42
0.4142135623730951
  0
VERTEX
  5
41F
  8
02___PRT_ALL_AXES
 10
159.5371478027774
 20
317.981638471287
 30
0.0
 42
0.4142135623730951
  0
SEQEND
  5
56D
  8
02___PRT_ALL_AXES
  0
POLYLINE
  5
19A
  8
02___PRT_ALL_AXES
 66
     1
 10
0.0
 20
0.0
 30
0.0
  0
VERTEX
  5
420
  8
02___PRT_ALL_AXES
 10
182.9503635402
 20
302.5841146533
 30
0.0
 42
0.4142135623731065
  0
VERTEX
  5
421
  8
02___PRT_ALL_AXES
 10
184.4503635402
 20
301.0841146533
 30
0.0
  0
SEQEND
  5
56E
  8
02___PRT_ALL_AXES
  0
POLYLINE
  5
19B
  8
02___PRT_ALL_AXES
 66
     1
 10
0.0
 20
0.0
 30
0.0
  0
VERTEX
  5
422
  8
02___PRT_ALL_AXES
 10
212.1503635402
 20
308.5841146533
 30
0.0
 42
0.4142135623731065
  0
VERTEX
  5
423
  8
02___PRT_ALL_AXES
 10
213.1503635402
 20
309.5841146533
 30
0.0
  0
SEQEND
  5
56F
  8
02___PRT_ALL_AXES
  0
POLYLINE
  5
19C
  8
02___PRT_ALL_AXES
 66
     1
 10
0.0
 20
0.0
 30
0.0
 70
     1
  0
VERTEX
  5
424
  8
02___PRT_ALL_AXES
 10
198.9503635402
 20
326.2341146533
 30
0.0
 42
0.4142135623730951
  0
VERTEX
  5
425
  8
02___PRT_ALL_AXES
 10
197.4503635402
 20
324.7341146533
 30
0.0
 42
0.4142135623730951
  0
VERTEX
  5
426
  8
02___PRT_ALL_AXES
 10
198.9503635402
 20
323.2341146533
 30
0.0
 42
0.4142135623730951
  0
VERTEX
  5
427
  8
02___PRT_ALL_AXES
 10
200.4503635402
 20
324.7341146533
 30
0.0
 42
0.4142135623730951
  0
SEQEND
  5
570
  8
02___PRT_ALL_AXES
  0
POLYLINE
  5
19D
  8
02___PRT_ALL_AXES
 66
     1
 10
0.0
 20
0.0
 30
0.0
  0
VERTEX
  5
428
  8
02___PRT_ALL_AXES
 10
190.1503635402
 20
309.5841146533
 30
0.0
 42
0.4142135623731065
  0
VERTEX
  5
429
  8
02___PRT_ALL_AXES
 10
191.1503635402
 20
308.5841146533
 30
0.0
  0
SEQEND
  5
571
  8
02___PRT_ALL_AXES
  0
POLYLINE
  5
19E
  8
02___PRT_ALL_AXES
 66
     1
 10
0.0
 20
0.0
 30
0.0
 70
     1
  0
VERTEX
  5
42A
  8
02___PRT_ALL_AXES
 10
187.6003635402
 20
315.8341146533
 30
0.0
 42
0.4142135623730951
  0
VERTEX
  5
42B
  8
02___PRT_ALL_AXES
 10
186.6003635402
 20
314.8341146533
 30
0.0
 42
0.4142135623730951
  0
VERTEX
  5
42C
  8
02___PRT_ALL_AXES
 10
187.6003635402
 20
313.8341146533
 30
0.0
 42
0.4142135623730951
  0
VERTEX
  5
42D
  8
02___PRT_ALL_AXES
 10
188.6003635402
 20
314.8341146533
 30
0.0
 42
0.4142135623730951
  0
SEQEND
  5
572
  8
02___PRT_ALL_AXES
  0
POLYLINE
  5
19F
  8
02___PRT_ALL_AXES
 66
     1
 10
0.0
 20
0.0
 30
0.0
  0
VERTEX
  5
42E
  8
02___PRT_ALL_AXES
 10
184.4503635402
 20
328.3841146533
 30
0.0
 42
0.4142135623731065
  0
VERTEX
  5
42F
  8
02___PRT_ALL_AXES
 10
182.9503635402
 20
326.8841146533
 30
0.0
  0
SEQEND
  5
573
  8
02___PRT_ALL_AXES
  0
POLYLINE
  5
1A0
  8
02___PRT_ALL_AXES
 66
     1
 10
0.0
 20
0.0
 30
0.0
  0
VERTEX
  5
430
  8
02___PRT_ALL_AXES
 10
213.1503635402
 20
320.0841146533
 30
0.0
 42
0.4142135623731065
  0
VERTEX
  5
431
  8
02___PRT_ALL_AXES
 10
212.1503635402
 20
321.0841146533
 30
0.0
  0
SEQEND
  5
574
  8
02___PRT_ALL_AXES
  0
POLYLINE
  5
1A1
  8
02___PRT_ALL_AXES
 66
     1
 10
0.0
 20
0.0
 30
0.0
  0
VERTEX
  5
432
  8
02___PRT_ALL_AXES
 10
191.1503635402
 20
321.0841146533
 30
0.0
 42
0.4142135623731065
  0
VERTEX
  5
433
  8
02___PRT_ALL_AXES
 10
190.1503635402
 20
320.0841146533
 30
0.0
  0
SEQEND
  5
575
  8
02___PRT_ALL_AXES
  0
POLYLINE
  5
1A2
  8
02___PRT_ALL_AXES
 66
     1
 10
0.0
 20
0.0
 30
0.0
 70
     1
  0
VERTEX
  5
434
  8
02___PRT_ALL_AXES
 10
230.9503635402
 20
326.2341146533
 30
0.0
 42
0.4142135623730951
  0
VERTEX
  5
435
  8
02___PRT_ALL_AXES
 10
229.4503635402
 20
324.7341146533
 30
0.0
 42
0.4142135623730951
  0
VERTEX
  5
436
  8
02___PRT_ALL_AXES
 10
230.9503635402
 20
323.2341146533
 30
0.0
 42
0.4142135623730951
  0
VERTEX
  5
437
  8
02___PRT_ALL_AXES
 10
232.4503635402
 20
324.7341146533
 30
0.0
 42
0.4142135623730951
  0
SEQEND
  5
576
  8
02___PRT_ALL_AXES
  0
POLYLINE
  5
1A3
  8
02___PRT_ALL_AXES
 66
     1
 10
0.0
 20
0.0
 30
0.0
 70
     1
  0
VERTEX
  5
438
  8
02___PRT_ALL_AXES
 10
223.9503635402
 20
316.3341146533
 30
0.0
 42
0.4142135623730951
  0
VERTEX
  5
439
  8
02___PRT_ALL_AXES
 10
222.4503635402
 20
314.8341146533
 30
0.0
 42
0.4142135623730951
  0
VERTEX
  5
43A
  8
02___PRT_ALL_AXES
 10
223.9503635402
 20
313.3341146533
 30
0.0
 42
0.4142135623730951
  0
VERTEX
  5
43B
  8
02___PRT_ALL_AXES
 10
225.4503635402
 20
314.8341146533
 30
0.0
 42
0.4142135623730951
  0
SEQEND
  5
577
  8
02___PRT_ALL_AXES
  0
POLYLINE
  5
1A4
  8
02___PRT_ALL_AXES
 66
     1
 10
0.0
 20
0.0
 30
0.0
  0
VERTEX
  5
43C
  8
02___PRT_ALL_AXES
 10
245.4503635402
 20
301.0841146533
 30
0.0
 42
0.4142135623731065
  0
VERTEX
  5
43D
  8
02___PRT_ALL_AXES
 10
246.9503635402
 20
302.5841146533
 30
0.0
  0
SEQEND
  5
578
  8
02___PRT_ALL_AXES
  0
POLYLINE
  5
1A5
  8
02___PRT_ALL_AXES
 66
     1
 10
0.0
 20
0.0
 30
0.0
 70
     1
  0
VERTEX
  5
43E
  8
02___PRT_ALL_AXES
 10
215.7003635402
 20
315.8341146533
 30
0.0
 42
0.4142135623730951
  0
VERTEX
  5
43F
  8
02___PRT_ALL_AXES
 10
214.7003635402
 20
314.8341146533
 30
0.0
 42
0.4142135623730951
  0
VERTEX
  5
440
  8
02___PRT_ALL_AXES
 10
215.7003635402
 20
313.8341146533
 30
0.0
 42
0.4142135623730951
  0
VERTEX
  5
441
  8
02___PRT_ALL_AXES
 10
216.7003635402
 20
314.8341146533
 30
0.0
 42
0.4142135623730951
  0
SEQEND
  5
579
  8
02___PRT_ALL_AXES
  0
POLYLINE
  5
1A6
  8
02___PRT_ALL_AXES
 66
     1
 10
0.0
 20
0.0
 30
0.0
  0
VERTEX
  5
442
  8
02___PRT_ALL_AXES
 10
246.9503635402
 20
326.8841146533
 30
0.0
 42
0.4142135623731065
  0
VERTEX
  5
443
  8
02___PRT_ALL_AXES
 10
245.4503635402
 20
328.3841146533
 30
0.0
  0
SEQEND
  5
57A
  8
02___PRT_ALL_AXES
  0
ENDSEC
  0
EOF
