999
DXF file: D:\# Blueprint Robotics\01. Design\01.CAD Design files\DV4\HEW-DV4-5\Master Files\hew-grippers_flat_file.dxf
999
Pro/ENGINEER 2010480 by Parametric Technology Corporation
  0
SECTION
  2
HEADER
  9
$ACADVER
  1
AC1021
  9
$DWGCODEPAGE
  3
ANSI_1252
  9
$EXTMAX
 10
420.0
 20
297.0
 30
0.0
  9
$EXTMIN
 10
0.0
 20
0.0
 30
0.0
  9
$LIMMIN
 10
0.0
 20
0.0
  9
$LIMMAX
 10
420.0
 20
297.0
  9
$VIEWCTR
 10
210.0
 20
148.5
  9
$VIEWSIZE
 40
297.0
  9
$CLAYER
  8
0
  9
$LTSCALE
 40
23.1
  9
$CELTYPE
  6
BYLAYER
  9
$DIMSCALE
 40
1.0
  9
$DIMASZ
 40
3.5
  9
$DIMEXO
 40
2.625
  9
$DIMDLI
 40
15.96
  9
$DIMEXE
 40
7.56
  9
$DIMCEN
 40
3.78
  9
$DIMLFAC
 40
1.0
  9
$DIMBLK
  1
_FILLED
  9
$DIMTXT
 40
3.5
  9
$DIMTOL
 70
1
  9
$DIMLIM
 70
0
  9
$DIMTFAC
 40
1.0
  9
$DIMTP
 40
0.01
  9
$DIMTM
 40
0.01
  9
$PDMODE
 70
3
  9
$PDSIZE
 40
8.0
  9
$HANDSEED
  5
3B4
  9
$TILEMODE
 70
1
  9
$MEASUREMENT
 70
1
  9
$INSUNITS
 70
4
  0
ENDSEC
  0
SECTION
  2
CLASSES
  0
CLASS
  1
ACDBDICTIONARYWDFLT
  2
AcDbDictionaryWithDefault
  3
AutoCAD 2000
 90
0
 91
1
280
0
281
0
  0
CLASS
  1
ACDBPLACEHOLDER
  2
AcDbPlaceHolder
  3
AutoCAD 2000
 90
0
 91
1
280
0
281
0
  0
CLASS
  1
LAYOUT
  2
AcDbLayout
  3
AutoCAD 2000
 90
0
 91
0
280
0
281
0
  0
ENDSEC
  0
SECTION
  2
TABLES
  0
TABLE
  2
VPORT
  5
8
100
AcDbSymbolTable
 70
2
  0
VPORT
  5
1F4
100
AcDbSymbolTableRecord
100
AcDbViewportTableRecord
  2
*ACTIVE
 70
0
 10
0.0
 20
0.0
 11
1.0
 21
1.0
 12
210.0
 22
148.5
 13
0.0
 23
0.0
 14
1.0
 24
1.0
 15
0.0
 25
0.0
 16
0.0
 26
0.0
 36
1.0
 17
0.0
 27
0.0
 37
0.0
 40
297.0
 41
1.4141414141
 42
50.0
 43
0.0
 44
0.0
 50
0.0
 51
0.0
 71
0
 72
100
 73
1
 74
1
 75
0
 76
0
 77
0
 78
0
  0
ENDTAB
  0
TABLE
  2
LTYPE
  5
5
100
AcDbSymbolTable
 70
6
  0
LTYPE
  5
14
100
AcDbSymbolTableRecord
100
AcDbLinetypeTableRecord
  2
BYBLOCK
 70
0
  3

 72
65
 73
0
 40
0.0
  0
LTYPE
  5
15
100
AcDbSymbolTableRecord
100
AcDbLinetypeTableRecord
  2
BYLAYER
 70
0
  3

 72
65
 73
0
 40
0.0
  0
LTYPE
  5
16
100
AcDbSymbolTableRecord
100
AcDbLinetypeTableRecord
  2
CONTINUOUS
 70
64
  3
Solid line
 72
65
 73
0
 40
0.0
  0
LTYPE
  5
1F5
100
AcDbSymbolTableRecord
100
AcDbLinetypeTableRecord
  2
CENTER
 70
64
  3
____ _ ____ _ ____ _ ____ _ ____ _ ____ _ ____
 72
65
 73
4
 40
0.6
 49
0.375
 74
0
 49
-0.075
 74
0
 49
0.075
 74
0
 49
-0.075
 74
0
  0
LTYPE
  5
1F6
100
AcDbSymbolTableRecord
100
AcDbLinetypeTableRecord
  2
HIDDEN
 70
64
  3
- - - - - - - - - - - - - - - - - - - -
 72
65
 73
2
 40
0.2
 49
0.1
 74
0
 49
-0.1
 74
0
  0
LTYPE
  5
1F7
100
AcDbSymbolTableRecord
100
AcDbLinetypeTableRecord
  2
PHANTOM
 70
64
  3
_____ _ _ _____ _ _ _____ _ _ _____
 72
65
 73
6
 40
0.8
 49
0.45
 74
0
 49
-0.05
 74
0
 49
0.1
 74
0
 49
-0.05
 74
0
 49
0.1
 74
0
 49
-0.05
 74
0
  0
LTYPE
  5
1F8
100
AcDbSymbolTableRecord
100
AcDbLinetypeTableRecord
  2
DOT
 70
64
  3
. . . . . . . . . . . . . . . . . . . .
 72
65
 73
2
 40
0.2
 49
0.1
 74
0
 49
-0.1
 74
0
  0
LTYPE
  5
1F9
100
AcDbSymbolTableRecord
100
AcDbLinetypeTableRecord
  2
DASHED
 70
64
  3
- - - - - - - - - - - - - - - - - - - -
 72
65
 73
2
 40
0.2
 49
0.1
 74
0
 49
-0.1
 74
0
  0
ENDTAB
  0
TABLE
  2
LAYER
  5
2
100
AcDbSymbolTable
 70
36
  0
LAYER
  5
10
100
AcDbSymbolTableRecord
100
AcDbLayerTableRecord
  2
0
 70
0
 62
7
  6
CONTINUOUS
370
-3
390
F
  0
LAYER
  5
1FA
100
AcDbSymbolTableRecord
100
AcDbLayerTableRecord
  2
DEFAULT_1
 70
0
 62
7
  6
CENTER
370
-3
390
F
  0
LAYER
  5
1FB
100
AcDbSymbolTableRecord
100
AcDbLayerTableRecord
  2
DEFAULT_2
 70
0
 62
8
  6
HIDDEN
370
-3
390
F
  0
LAYER
  5
1FC
100
AcDbSymbolTableRecord
100
AcDbLayerTableRecord
  2
DEFAULT_3
 70
0
 62
7
  6
PHANTOM
370
-3
390
F
  0
LAYER
  5
1FD
100
AcDbSymbolTableRecord
100
AcDbLayerTableRecord
  2
01___PRT_ALL_DTM_PLN
 70
0
 62
7
  6
CONTINUOUS
370
-3
390
F
  0
LAYER
  5
1FE
100
AcDbSymbolTableRecord
100
AcDbLayerTableRecord
  2
01___PRT_DEF_DTM_PLN
 70
0
 62
7
  6
CONTINUOUS
370
-3
390
F
  0
LAYER
  5
1FF
100
AcDbSymbolTableRecord
100
AcDbLayerTableRecord
  2
02___PRT_ALL_AXES
 70
0
 62
7
  6
CONTINUOUS
370
-3
390
F
  0
LAYER
  5
200
100
AcDbSymbolTableRecord
100
AcDbLayerTableRecord
  2
03___PRT_ALL_CURVES
 70
0
 62
7
  6
CONTINUOUS
370
-3
390
F
  0
LAYER
  5
201
100
AcDbSymbolTableRecord
100
AcDbLayerTableRecord
  2
04___PRT_ALL_DTM_PNT
 70
0
 62
7
  6
CONTINUOUS
370
-3
390
F
  0
LAYER
  5
202
100
AcDbSymbolTableRecord
100
AcDbLayerTableRecord
  2
05___PRT_ALL_DTM_CSYS
 70
0
 62
7
  6
CONTINUOUS
370
-3
390
F
  0
LAYER
  5
203
100
AcDbSymbolTableRecord
100
AcDbLayerTableRecord
  2
05___PRT_DEF_DTM_CSYS
 70
0
 62
7
  6
CONTINUOUS
370
-3
390
F
  0
LAYER
  5
204
100
AcDbSymbolTableRecord
100
AcDbLayerTableRecord
  2
06___PRT_ALL_SURFS
 70
0
 62
7
  6
CONTINUOUS
370
-3
390
F
  0
LAYER
  5
205
100
AcDbSymbolTableRecord
100
AcDbLayerTableRecord
  2
3_ALL_SYMBOLS
 70
0
 62
7
  6
CONTINUOUS
370
-3
390
F
  0
ENDTAB
  0
TABLE
  2
STYLE
  5
3
100
AcDbSymbolTable
 70
1
  0
STYLE
  5
11
100
AcDbSymbolTableRecord
100
AcDbTextStyleTableRecord
  2
STANDARD
 70
0
 40
0.0
 41
0.85
 50
0.0
 71
0
 42
0.2
  3
txt
  4

  0
STYLE
  5
206
100
AcDbSymbolTableRecord
100
AcDbTextStyleTableRecord
  2
TEXTSTYLE_1
 70
0
 40
0.0
 41
0.8
 50
0.0
 71
0
 42
0.2
  3
gdt
  4

  0
ENDTAB
  0
TABLE
  2
VIEW
  5
6
100
AcDbSymbolTable
 70
0
  0
ENDTAB
  0
TABLE
  2
UCS
  5
7
100
AcDbSymbolTable
 70
0
  0
ENDTAB
  0
TABLE
  2
APPID
  5
9
100
AcDbSymbolTable
 70
1
  0
APPID
  5
207
100
AcDbSymbolTableRecord
100
AcDbRegAppTableRecord
  2
ACAD
 70
0
  0
ENDTAB
  0
TABLE
  2
BLOCK_RECORD
  5
1
100
AcDbSymbolTable
 70
0
  0
BLOCK_RECORD
  5
208
100
AcDbSymbolTableRecord
100
AcDbBlockTableRecord
  2
*Model_Space
  0
BLOCK_RECORD
  5
209
100
AcDbSymbolTableRecord
100
AcDbBlockTableRecord
  2
*Paper_Space
  0
ENDTAB
  0
TABLE
  2
DIMSTYLE
  5
A
100
AcDbSymbolTable
 70
1
100
AcDbDimStyleTable
 71
0
  0
DIMSTYLE
105
20A
100
AcDbSymbolTableRecord
100
AcDbDimStyleTableRecord
  2
STANDARD
 70
0
  3

  4

 40
1.0
 41
3.5
 42
0.0625
 43
0.38
 44
0.18
 45
0.0
 46
0.0
 47
0.01
 48
0.01
140
3.5
141
0.09
142
0.0
143
25.4
144
1.0
145
0.0
146
1.0
147
0.09
 71
1.0
 72
0.0
 73
0
 74
0
 75
0
 76
0
 77
1
 78
8
170
0
171
2
172
0
173
0
174
0
175
0
176
0
177
0
178
0
270
2
271
2
272
2
273
2
274
2
275
0
280
0
281
0
282
0
283
1
284
8
285
0
286
0
287
3
288
0
340
11
  0
ENDTAB
  0
ENDSEC
  0
SECTION
  2
BLOCKS
  0
BLOCK
  5
20
100
AcDbEntity
  8
0
100
AcDbBlockBegin
  2
*Model_Space
 70
0
 10
0.0
 20
0.0
 30
0.0
  3
*Model_Space
  1

  0
ENDBLK
  5
21
100
AcDbEntity
  8
0
100
AcDbBlockEnd
  0
BLOCK
  5
1C
100
AcDbEntity
  8
0
100
AcDbBlockBegin
  2
*Paper_Space
 70
0
 10
0.0
 20
0.0
 30
0.0
  3
*Paper_Space
  1

  0
ENDBLK
  5
1D
100
AcDbEntity
  8
0
100
AcDbBlockEnd
  0
ENDSEC
  0
SECTION
  2
ENTITIES
  0
LINE
  5
20B
100
AcDbEntity
  8
02___PRT_ALL_AXES
100
AcDbLine
 62
7
  6
CONTINUOUS
 10
275.2578471426
 20
260.0895044496
 11
299.0078471426
 21
260.0895044496
  0
LINE
  5
20C
100
AcDbEntity
  8
02___PRT_ALL_AXES
100
AcDbLine
 62
7
  6
CONTINUOUS
 10
272.2578471426
 20
265.0895044496
 11
275.2578471426
 21
265.0895044496
  0
LINE
  5
20D
100
AcDbEntity
  8
02___PRT_ALL_AXES
100
AcDbLine
 62
7
  6
CONTINUOUS
 10
275.2578471426
 20
275.0895044496
 11
272.2578471426
 21
275.0895044496
  0
LINE
  5
20E
100
AcDbEntity
  8
02___PRT_ALL_AXES
100
AcDbLine
 62
7
  6
CONTINUOUS
 10
272.2578471426
 20
319.5895044496
 11
272.2578471426
 21
309.5895044496
  0
LINE
  5
20F
100
AcDbEntity
  8
02___PRT_ALL_AXES
100
AcDbLine
 62
7
  6
CONTINUOUS
 10
272.2578471426
 20
275.0895044496
 11
272.2578471426
 21
265.0895044496
  0
LINE
  5
210
100
AcDbEntity
  8
02___PRT_ALL_AXES
100
AcDbLine
 62
7
  6
CONTINUOUS
 10
275.2578471426
 20
324.5895044496
 11
275.2578471426
 21
319.5895044496
  0
LINE
  5
211
100
AcDbEntity
  8
02___PRT_ALL_AXES
100
AcDbLine
 62
7
  6
CONTINUOUS
 10
275.2578471426
 20
309.5895044496
 11
275.2578471426
 21
293.8395044496
  0
LINE
  5
212
100
AcDbEntity
  8
02___PRT_ALL_AXES
100
AcDbLine
 62
7
  6
CONTINUOUS
 10
275.2578471426
 20
290.8395044496
 11
275.2578471426
 21
275.0895044496
  0
LINE
  5
213
100
AcDbEntity
  8
02___PRT_ALL_AXES
100
AcDbLine
 62
7
  6
CONTINUOUS
 10
275.2578471426
 20
265.0895044496
 11
275.2578471426
 21
260.0895044496
  0
LINE
  5
214
100
AcDbEntity
  8
02___PRT_ALL_AXES
100
AcDbLine
 62
7
  6
CONTINUOUS
 10
277.8578471426
 20
289.8895044496
 11
277.8578471426
 21
290.8395044496
  0
LINE
  5
215
100
AcDbEntity
  8
02___PRT_ALL_AXES
100
AcDbLine
 62
7
  6
CONTINUOUS
 10
277.8578471426
 20
293.8395044496
 11
277.8578471426
 21
294.7895044496
  0
LINE
  5
216
100
AcDbEntity
  8
02___PRT_ALL_AXES
100
AcDbLine
 62
7
  6
CONTINUOUS
 10
280.2578471426
 20
295.2895044496
 11
280.2578471426
 21
293.8395044496
  0
LINE
  5
217
100
AcDbEntity
  8
02___PRT_ALL_AXES
100
AcDbLine
 62
7
  6
CONTINUOUS
 10
280.2578471426
 20
290.8395044496
 11
280.2578471426
 21
289.3895044496
  0
LINE
  5
218
100
AcDbEntity
  8
02___PRT_ALL_AXES
100
AcDbLine
 62
7
  6
CONTINUOUS
 10
280.8578471426
 20
293.8395044496
 11
280.8578471426
 21
290.8395044496
  0
LINE
  5
219
100
AcDbEntity
  8
02___PRT_ALL_AXES
100
AcDbLine
 62
7
  6
CONTINUOUS
 10
281.0078471426
 20
295.1395044496
 11
281.0078471426
 21
316.1395044496
  0
LINE
  5
21A
100
AcDbEntity
  8
02___PRT_ALL_AXES
100
AcDbLine
 62
7
  6
CONTINUOUS
 10
298.5078471426
 20
287.3395044496
 11
295.5078471426
 21
287.3395044496
  0
LINE
  5
21B
100
AcDbEntity
  8
02___PRT_ALL_AXES
100
AcDbLine
 62
7
  6
CONTINUOUS
 10
280.2578471426
 20
289.3895044496
 11
278.3578471426
 21
289.3895044496
  0
LINE
  5
21C
100
AcDbEntity
  8
02___PRT_ALL_AXES
100
AcDbLine
 62
7
  6
CONTINUOUS
 10
280.8578471426
 20
290.8395044496
 11
280.2578471426
 21
290.8395044496
  0
LINE
  5
21D
100
AcDbEntity
  8
02___PRT_ALL_AXES
100
AcDbLine
 62
7
  6
CONTINUOUS
 10
277.8578471426
 20
290.8395044496
 11
275.2578471426
 21
290.8395044496
  0
LINE
  5
21E
100
AcDbEntity
  8
02___PRT_ALL_AXES
100
AcDbLine
 62
7
  6
CONTINUOUS
 10
275.2578471426
 20
293.8395044496
 11
277.8578471426
 21
293.8395044496
  0
LINE
  5
21F
100
AcDbEntity
  8
02___PRT_ALL_AXES
100
AcDbLine
 62
7
  6
CONTINUOUS
 10
280.2578471426
 20
293.8395044496
 11
280.8578471426
 21
293.8395044496
  0
LINE
  5
220
100
AcDbEntity
  8
02___PRT_ALL_AXES
100
AcDbLine
 62
7
  6
CONTINUOUS
 10
292.5078471426
 20
294.1395044496
 11
282.0078471426
 21
294.1395044496
  0
LINE
  5
221
100
AcDbEntity
  8
02___PRT_ALL_AXES
100
AcDbLine
 62
7
  6
CONTINUOUS
 10
278.3578471426
 20
295.2895044496
 11
280.2578471426
 21
295.2895044496
  0
LINE
  5
222
100
AcDbEntity
  8
02___PRT_ALL_AXES
100
AcDbLine
 62
7
  6
CONTINUOUS
 10
295.5078471426
 20
297.3395044496
 11
298.5078471426
 21
297.3395044496
  0
LINE
  5
223
100
AcDbEntity
  8
02___PRT_ALL_AXES
100
AcDbLine
 62
7
  6
CONTINUOUS
 10
293.5078471426
 20
316.1395044496
 11
293.5078471426
 21
295.1395044496
  0
LINE
  5
224
100
AcDbEntity
  8
02___PRT_ALL_AXES
100
AcDbLine
 62
7
  6
CONTINUOUS
 10
295.5078471426
 20
287.3395044496
 11
295.5078471426
 21
297.3395044496
  0
LINE
  5
225
100
AcDbEntity
  8
02___PRT_ALL_AXES
100
AcDbLine
 62
7
  6
CONTINUOUS
 10
298.5078471426
 20
297.3395044496
 11
298.5078471426
 21
287.3395044496
  0
LINE
  5
226
100
AcDbEntity
  8
02___PRT_ALL_AXES
100
AcDbLine
 62
7
  6
CONTINUOUS
 10
300.5078471426
 20
261.5895044496
 11
300.5078471426
 21
323.0895044496
  0
LINE
  5
227
100
AcDbEntity
  8
02___PRT_ALL_AXES
100
AcDbLine
 62
7
  6
CONTINUOUS
 10
272.2578471426
 20
309.5895044496
 11
275.2578471426
 21
309.5895044496
  0
LINE
  5
228
100
AcDbEntity
  8
02___PRT_ALL_AXES
100
AcDbLine
 62
7
  6
CONTINUOUS
 10
282.0078471426
 20
317.1395044496
 11
292.5078471426
 21
317.1395044496
  0
LINE
  5
229
100
AcDbEntity
  8
02___PRT_ALL_AXES
100
AcDbLine
 62
7
  6
CONTINUOUS
 10
275.2578471426
 20
319.5895044496
 11
272.2578471426
 21
319.5895044496
  0
LINE
  5
22A
100
AcDbEntity
  8
02___PRT_ALL_AXES
100
AcDbLine
 62
7
  6
CONTINUOUS
 10
299.0078471426
 20
324.5895044496
 11
275.2578471426
 21
324.5895044496
  0
LINE
  5
22B
100
AcDbEntity
  8
02___PRT_ALL_AXES
100
AcDbLine
 62
7
  6
CONTINUOUS
 10
186.9750696336
 20
308.1583595279
 11
186.9750696336
 21
286.1583595279
  0
LINE
  5
22C
100
AcDbEntity
  8
02___PRT_ALL_AXES
100
AcDbLine
 62
7
  6
CONTINUOUS
 10
191.9750696336
 20
290.8583595279
 11
191.9750696336
 21
294.1583595279
  0
LINE
  5
22D
100
AcDbEntity
  8
02___PRT_ALL_AXES
100
AcDbLine
 62
7
  6
CONTINUOUS
 10
201.9750696336
 20
294.1583595279
 11
201.9750696336
 21
290.8583595279
  0
LINE
  5
22E
100
AcDbEntity
  8
02___PRT_ALL_AXES
100
AcDbLine
 62
7
  6
CONTINUOUS
 10
186.9750696336
 20
286.1583595279
 11
251.4750696336
 21
286.1583595279
  0
LINE
  5
22F
100
AcDbEntity
  8
02___PRT_ALL_AXES
100
AcDbLine
 62
7
  6
CONTINUOUS
 10
246.4750696336
 20
290.8583595279
 11
236.4750696336
 21
290.8583595279
  0
LINE
  5
230
100
AcDbEntity
  8
02___PRT_ALL_AXES
100
AcDbLine
 62
7
  6
CONTINUOUS
 10
201.9750696336
 20
290.8583595279
 11
191.9750696336
 21
290.8583595279
  0
LINE
  5
231
100
AcDbEntity
  8
02___PRT_ALL_AXES
100
AcDbLine
 62
7
  6
CONTINUOUS
 10
191.9750696336
 20
294.1583595279
 11
201.9750696336
 21
294.1583595279
  0
LINE
  5
232
100
AcDbEntity
  8
02___PRT_ALL_AXES
100
AcDbLine
 62
7
  6
CONTINUOUS
 10
236.4750696336
 20
294.1583595279
 11
246.4750696336
 21
294.1583595279
  0
LINE
  5
233
100
AcDbEntity
  8
02___PRT_ALL_AXES
100
AcDbLine
 62
7
  6
CONTINUOUS
 10
251.4750696336
 20
308.1583595279
 11
186.9750696336
 21
308.1583595279
  0
LINE
  5
234
100
AcDbEntity
  8
02___PRT_ALL_AXES
100
AcDbLine
 62
7
  6
CONTINUOUS
 10
236.4750696336
 20
290.8583595279
 11
236.4750696336
 21
294.1583595279
  0
LINE
  5
235
100
AcDbEntity
  8
02___PRT_ALL_AXES
100
AcDbLine
 62
7
  6
CONTINUOUS
 10
246.4750696336
 20
294.1583595279
 11
246.4750696336
 21
290.8583595279
  0
LINE
  5
236
100
AcDbEntity
  8
02___PRT_ALL_AXES
100
AcDbLine
 62
7
  6
CONTINUOUS
 10
251.4750696336
 20
286.1583595279
 11
251.4750696336
 21
308.1583595279
  0
LINE
  5
237
100
AcDbEntity
  8
02___PRT_ALL_AXES
100
AcDbLine
 62
7
  6
CONTINUOUS
 10
184.5192972128
 20
326.5485286301
 11
184.0172801346
 21
332.2866100908
  0
LINE
  5
238
100
AcDbEntity
  8
02___PRT_ALL_AXES
100
AcDbLine
 62
7
  6
CONTINUOUS
 10
185.6289796784
 20
334.8449551842
 11
216.1525705802
 21
346.3058602578
  0
LINE
  5
239
100
AcDbEntity
  8
02___PRT_ALL_AXES
100
AcDbLine
 62
7
  6
CONTINUOUS
 10
212.6033012049
 20
326.656622187
 11
204.8097927151
 21
325.9747785447
  0
LINE
  5
23A
100
AcDbEntity
  8
02___PRT_ALL_AXES
100
AcDbLine
 62
7
  6
CONTINUOUS
 10
194.8478457344
 20
325.1032211168
 11
187.0543372441
 21
324.4213774744
  0
LINE
  5
23B
100
AcDbEntity
  8
02___PRT_ALL_AXES
100
AcDbLine
 62
7
  6
CONTINUOUS
 10
249.7138724084
 20
331.6576660769
 11
248.659331537
 21
331.6343759639
  0
LINE
  5
23C
100
AcDbEntity
  8
02___PRT_ALL_AXES
100
AcDbLine
 62
7
  6
CONTINUOUS
 10
248.1043798637
 20
337.977502615
 11
249.1469441754
 21
338.1376854318
  0
LINE
  5
23D
100
AcDbEntity
  8
02___PRT_ALL_AXES
100
AcDbLine
 62
7
  6
CONTINUOUS
 10
216.1566289869
 20
332.2566341113
 11
214.2664343191
 21
327.8592031632
  0
LINE
  5
23E
100
AcDbEntity
  8
02___PRT_ALL_AXES
100
AcDbLine
 62
7
  6
CONTINUOUS
 10
248.5156330955
 20
329.1095163738
 11
247.5055080873
 21
329.4132372106
  0
LINE
  5
23F
100
AcDbEntity
  8
02___PRT_ALL_AXES
100
AcDbLine
 62
7
  6
CONTINUOUS
 10
248.9378516149
 20
335.6173986439
 11
249.9788884098
 21
335.4475714656
  0
LINE
  5
240
100
AcDbEntity
  8
02___PRT_ALL_AXES
100
AcDbLine
 62
7
  6
CONTINUOUS
 10
246.5886182264
 20
327.0563583052
 11
245.7217871553
 21
327.6573597802
  0
LINE
  5
241
100
AcDbEntity
  8
02___PRT_ALL_AXES
100
AcDbLine
 62
7
  6
CONTINUOUS
 10
246.582388888
 20
339.9645379404
 11
247.5244272578
 21
340.4390509421
  0
LINE
  5
242
100
AcDbEntity
  8
02___PRT_ALL_AXES
100
AcDbLine
 62
7
  6
CONTINUOUS
 10
250.0660441525
 20
334.4513767675
 11
249.0703132258
 21
334.1033555032
  0
LINE
  5
243
100
AcDbEntity
  8
02___PRT_ALL_AXES
100
AcDbLine
 62
7
  6
CONTINUOUS
 10
249.0012181195
 20
333.1152494477
 11
249.9388234627
 21
332.6320361417
  0
LINE
  5
244
100
AcDbEntity
  8
02___PRT_ALL_AXES
100
AcDbLine
 62
7
  6
CONTINUOUS
 10
235.5587325685
 20
328.3680297871
 11
234.6166941988
 21
327.8935167853
  0
LINE
  5
245
100
AcDbEntity
  8
02___PRT_ALL_AXES
100
AcDbLine
 62
7
  6
CONTINUOUS
 10
244.1214574429
 20
325.6991692881
 11
243.4827717735
 21
326.5386211894
  0
LINE
  5
246
100
AcDbEntity
  8
02___PRT_ALL_AXES
100
AcDbLine
 62
7
  6
CONTINUOUS
 10
233.9606351698
 20
328.6482263655
 11
234.5563524882
 21
329.5074360393
  0
LINE
  5
247
100
AcDbEntity
  8
02___PRT_ALL_AXES
100
AcDbLine
 62
7
  6
CONTINUOUS
 10
249.5376753039
 20
337.2171805783
 11
248.6982234026
 21
336.578494909
  0
LINE
  5
248
100
AcDbEntity
  8
02___PRT_ALL_AXES
100
AcDbLine
 62
7
  6
CONTINUOUS
 10
248.2882766224
 20
330.7159828231
 11
249.0306711704
 21
329.9666836745
  0
LINE
  5
249
100
AcDbEntity
  8
02___PRT_ALL_AXES
100
AcDbLine
 62
7
  6
CONTINUOUS
 10
238.5619429415
 20
325.5229721836
 11
238.5386528285
 21
326.577513055
  0
LINE
  5
24A
100
AcDbEntity
  8
02___PRT_ALL_AXES
100
AcDbLine
 62
7
  6
CONTINUOUS
 10
236.0137932384
 20
326.7212114965
 11
236.3175140752
 21
327.7313365047
  0
LINE
  5
24B
100
AcDbEntity
  8
02___PRT_ALL_AXES
100
AcDbLine
 62
7
  6
CONTINUOUS
 10
237.6202596876
 20
326.9485679695
 11
236.8709605391
 21
326.2061734216
  0
LINE
  5
24C
100
AcDbEntity
  8
02___PRT_ALL_AXES
100
AcDbLine
 62
7
  6
CONTINUOUS
 10
241.3556536321
 20
325.1708004394
 11
241.0076323678
 21
326.1665313662
  0
LINE
  5
24D
100
AcDbEntity
  8
02___PRT_ALL_AXES
100
AcDbLine
 62
7
  6
CONTINUOUS
 10
248.1804862868
 20
339.6843413619
 11
247.5794848118
 21
338.8175102907
  0
LINE
  5
24E
100
AcDbEntity
  8
02___PRT_ALL_AXES
100
AcDbLine
 62
7
  6
CONTINUOUS
 10
246.8688148049
 20
328.654455704
 11
247.3433278067
 21
327.7124173342
  0
LINE
  5
24F
100
AcDbEntity
  8
02___PRT_ALL_AXES
100
AcDbLine
 62
7
  6
CONTINUOUS
 10
240.0195263123
 20
326.2356264725
 11
239.5363130062
 21
325.2980211292
  0
LINE
  5
250
100
AcDbEntity
  8
02___PRT_ALL_AXES
100
AcDbLine
 62
7
  6
CONTINUOUS
 10
242.5216755085
 20
326.2989929771
 11
242.3518483302
 21
325.2579561822
  0
LINE
  5
251
100
AcDbEntity
  8
02___PRT_ALL_AXES
100
AcDbLine
 62
7
  6
CONTINUOUS
 10
244.8817794796
 20
327.1324647283
 11
245.0419622963
 21
326.0899004166
  0
LINE
  5
252
100
AcDbEntity
  8
02___PRT_ALL_AXES
100
AcDbLine
 62
7
  6
CONTINUOUS
 10
256.5869264814
 20
257.9706205281
 11
256.738559197
 21
259.014462661
  0
LINE
  5
253
100
AcDbEntity
  8
02___PRT_ALL_AXES
100
AcDbLine
 62
7
  6
CONTINUOUS
 10
254.2417280534
 20
257.0960862249
 11
254.0633743771
 21
258.1356961734
  0
LINE
  5
254
100
AcDbEntity
  8
02___PRT_ALL_AXES
100
AcDbLine
 62
7
  6
CONTINUOUS
 10
259.0875886902
 20
258.0776459063
 11
259.554364931
 21
259.0235416828
  0
LINE
  5
255
100
AcDbEntity
  8
02___PRT_ALL_AXES
100
AcDbLine
 62
7
  6
CONTINUOUS
 10
251.1625841078
 20
244.488550931
 11
251.7483657592
 21
245.3657389016
  0
LINE
  5
256
100
AcDbEntity
  8
02___PRT_ALL_AXES
100
AcDbLine
 62
7
  6
CONTINUOUS
 10
252.2815577682
 20
255.5396485077
 11
251.7906762006
 21
256.4732620067
  0
LINE
  5
257
100
AcDbEntity
  8
02___PRT_ALL_AXES
100
AcDbLine
 62
7
  6
CONTINUOUS
 10
260.5325125317
 20
258.815629992
 11
260.5742033734
 21
257.7616562008
  0
LINE
  5
258
100
AcDbEntity
  8
02___PRT_ALL_AXES
100
AcDbLine
 62
7
  6
CONTINUOUS
 10
263.1011862988
 20
257.662044521
 11
262.8151408323
 21
256.6467727003
  0
LINE
  5
259
100
AcDbEntity
  8
02___PRT_ALL_AXES
100
AcDbLine
 62
7
  6
CONTINUOUS
 10
261.4989324397
 20
257.4066859701
 11
262.235160895
 21
258.162044521
  0
LINE
  5
25A
100
AcDbEntity
  8
02___PRT_ALL_AXES
100
AcDbLine
 62
7
  6
CONTINUOUS
 10
249.7625439044
 20
246.9316497397
 11
250.5907213512
 21
247.5848885899
  0
LINE
  5
25B
100
AcDbEntity
  8
02___PRT_ALL_AXES
100
AcDbLine
 62
7
  6
CONTINUOUS
 10
250.8982907508
 20
253.4536623446
 11
250.1429321998
 21
254.1898907999
  0
LINE
  5
25C
100
AcDbEntity
  8
02___PRT_ALL_AXES
100
AcDbLine
 62
7
  6
CONTINUOUS
 10
257.7330810924
 20
259.1189911242
 11
258.0984272521
 21
258.1294856607
  0
LINE
  5
25D
100
AcDbEntity
  8
02___PRT_ALL_AXES
100
AcDbLine
 62
7
  6
CONTINUOUS
 10
265.1876627081
 20
255.7711556947
 11
264.6070313968
 21
254.901680182
  0
LINE
  5
25E
100
AcDbEntity
  8
02___PRT_ALL_AXES
100
AcDbLine
 62
7
  6
CONTINUOUS
 10
263.5849186028
 20
256.0234189526
 11
264.5185321018
 21
256.5143005202
  0
LINE
  5
25F
100
AcDbEntity
  8
02___PRT_ALL_AXES
100
AcDbLine
 62
7
  6
CONTINUOUS
 10
254.9769198348
 20
258.5424328165
 11
255.630158685
 21
257.7142553697
  0
LINE
  5
260
100
AcDbEntity
  8
02___PRT_ALL_AXES
100
AcDbLine
 62
7
  6
CONTINUOUS
 10
249.1859855966
 20
249.6878109973
 11
250.1754910602
 21
250.0531571571
  0
LINE
  5
261
100
AcDbEntity
  8
02___PRT_ALL_AXES
100
AcDbLine
 62
7
  6
CONTINUOUS
 10
250.2273308145
 20
251.0423185952
 11
249.2814350381
 21
251.5090948359
  0
LINE
  5
262
100
AcDbEntity
  8
02___PRT_ALL_AXES
100
AcDbLine
 62
7
  6
CONTINUOUS
 10
252.7653282131
 20
244.2362876732
 11
251.8317147142
 21
243.7454061055
  0
LINE
  5
263
100
AcDbEntity
  8
02___PRT_ALL_AXES
100
AcDbLine
 62
7
  6
CONTINUOUS
 10
252.5338210261
 20
257.142392613
 11
253.4110089967
 21
256.5566109617
  0
LINE
  5
264
100
AcDbEntity
  8
02___PRT_ALL_AXES
100
AcDbLine
 62
7
  6
CONTINUOUS
 10
250.3343561928
 20
248.5416563863
 11
249.2905140599
 21
248.6932891019
  0
LINE
  5
265
100
AcDbEntity
  8
02___PRT_ALL_AXES
100
AcDbLine
 62
7
  6
CONTINUOUS
 10
250.6429321998
 20
255.0559162037
 11
251.6582040206
 21
254.7698707372
  0
LINE
  5
266
100
AcDbEntity
  8
02___PRT_ALL_AXES
100
AcDbLine
 62
7
  6
CONTINUOUS
 10
283.0519326532
 20
252.4740202791
 11
284.865093683
 21
256.9037699228
  0
LINE
  5
267
100
AcDbEntity
  8
02___PRT_ALL_AXES
100
AcDbLine
 62
7
  6
CONTINUOUS
 10
251.2088904959
 20
246.1964579583
 11
250.1692805474
 21
246.018104282
  0
LINE
  5
268
100
AcDbEntity
  8
02___PRT_ALL_AXES
100
AcDbLine
 62
7
  6
CONTINUOUS
 10
249.4893467289
 20
252.4872424367
 11
250.5433205201
 21
252.5289332783
  0
LINE
  5
269
100
AcDbEntity
  8
02___PRT_ALL_AXES
100
AcDbLine
 62
7
  6
CONTINUOUS
 10
286.5069855621
 20
258.1351934151
 11
294.2874072504
 21
258.952948687
  0
LINE
  5
26A
100
AcDbEntity
  8
02___PRT_ALL_AXES
100
AcDbLine
 62
7
  6
CONTINUOUS
 10
304.2326262038
 20
259.9982333201
 11
312.0130478927
 21
260.8159885921
  0
LINE
  5
26B
100
AcDbEntity
  8
02___PRT_ALL_AXES
100
AcDbLine
 62
7
  6
CONTINUOUS
 10
313.6201048842
 20
250.4188743633
 11
283.3011832467
 21
238.4270047268
  0
LINE
  5
26C
100
AcDbEntity
  8
02___PRT_ALL_AXES
100
AcDbLine
 62
7
  6
CONTINUOUS
 10
314.5848257317
 20
258.7334039609
 11
315.1869096801
 21
253.0049578438
  0
LINE
  5
26D
100
AcDbEntity
  8
02___PRT_ALL_AXES
100
AcDbLine
 62
7
  6
CONTINUOUS
 10
182.2496376743
 20
250.3876039448
 11
182.7516547526
 21
256.1256854059
  0
LINE
  5
26E
100
AcDbEntity
  8
02___PRT_ALL_AXES
100
AcDbLine
 62
7
  6
CONTINUOUS
 10
214.3849281079
 20
236.3683537824
 11
183.8613372182
 21
247.8292588514
  0
LINE
  5
26F
100
AcDbEntity
  8
02___PRT_ALL_AXES
100
AcDbLine
 62
7
  6
CONTINUOUS
 10
247.9011321128
 20
245.8488478717
 11
246.8463453845
 21
245.8439655818
  0
LINE
  5
270
100
AcDbEntity
  8
02___PRT_ALL_AXES
100
AcDbLine
 62
7
  6
CONTINUOUS
 10
246.4021810575
 20
252.1958113861
 11
247.4473821572
 21
252.3377745501
  0
LINE
  5
271
100
AcDbEntity
  8
02___PRT_ALL_AXES
100
AcDbLine
 62
7
  6
CONTINUOUS
 10
212.498791859
 20
254.8150108728
 11
214.3889865267
 21
250.4175799247
  0
LINE
  5
272
100
AcDbEntity
  8
02___PRT_ALL_AXES
100
AcDbLine
 62
7
  6
CONTINUOUS
 10
244.9151004365
 20
254.2091064815
 11
245.865276723
 21
254.6671063761
  0
LINE
  5
273
100
AcDbEntity
  8
02___PRT_ALL_AXES
100
AcDbLine
 62
7
  6
CONTINUOUS
 10
246.6586039532
 20
243.3219984236
 11
245.6539334515
 21
243.6433021145
  0
LINE
  5
274
100
AcDbEntity
  8
02___PRT_ALL_AXES
100
AcDbLine
 62
7
  6
CONTINUOUS
 10
232.9672676815
 20
253.3925521193
 11
233.6017419618
 21
254.1201123368
  0
LINE
  5
275
100
AcDbEntity
  8
02___PRT_ALL_AXES
100
AcDbLine
 62
7
  6
CONTINUOUS
 10
248.3020071939
 20
248.6359868221
 11
247.3003541132
 21
248.3053964641
  0
LINE
  5
276
100
AcDbEntity
  8
02___PRT_ALL_AXES
100
AcDbLine
 62
7
  6
CONTINUOUS
 10
185.2866947844
 20
258.2528365614
 11
193.0802032742
 21
257.5709929191
  0
LINE
  5
277
100
AcDbEntity
  8
02___PRT_ALL_AXES
100
AcDbLine
 62
7
  6
CONTINUOUS
 10
203.0421502549
 20
256.6994354912
 11
210.8356587447
 21
256.0175918489
  0
LINE
  5
278
100
AcDbEntity
  8
02___PRT_ALL_AXES
100
AcDbLine
 62
7
  6
CONTINUOUS
 10
247.1943363731
 20
249.8215207826
 11
248.2322507201
 21
249.6335508724
  0
LINE
  5
279
100
AcDbEntity
  8
02___PRT_ALL_AXES
100
AcDbLine
 62
7
  6
CONTINUOUS
 10
242.8786603225
 20
255.6643307172
 11
243.6408019205
 21
256.3935351216
  0
LINE
  5
27A
100
AcDbEntity
  8
02___PRT_ALL_AXES
100
AcDbLine
 62
7
  6
CONTINUOUS
 10
244.6960500288
 20
241.3027841077
 11
243.8386030621
 21
241.9197122347
  0
LINE
  5
27B
100
AcDbEntity
  8
02___PRT_ALL_AXES
100
AcDbLine
 62
7
  6
CONTINUOUS
 10
247.8219887506
 20
251.4105906956
 11
246.9715181
 21
250.7866527569
  0
LINE
  5
27C
100
AcDbEntity
  8
02___PRT_ALL_AXES
100
AcDbLine
 62
7
  6
CONTINUOUS
 10
247.2140247019
 20
247.3186467778
 11
248.1430540084
 21
246.819143598
  0
LINE
  5
27D
100
AcDbEntity
  8
02___PRT_ALL_AXES
100
AcDbLine
 62
7
  6
CONTINUOUS
 10
240.4922016626
 20
256.4190366061
 11
240.9917048424
 21
257.3480659125
  0
LINE
  5
27E
100
AcDbEntity
  8
02___PRT_ALL_AXES
100
AcDbLine
 62
7
  6
CONTINUOUS
 10
233.9097865075
 20
255.7130762367
 11
234.765996634
 21
255.0970380091
  0
LINE
  5
27F
100
AcDbEntity
  8
02___PRT_ALL_AXES
100
AcDbLine
 62
7
  6
CONTINUOUS
 10
237.9893276578
 20
256.3993482773
 11
238.1772975679
 21
257.4372626243
  0
LINE
  5
280
100
AcDbEntity
  8
02___PRT_ALL_AXES
100
AcDbLine
 62
7
  6
CONTINUOUS
 10
246.5080643327
 20
253.9010619329
 11
245.892026105
 21
253.0448518063
  0
LINE
  5
281
100
AcDbEntity
  8
02___PRT_ALL_AXES
100
AcDbLine
 62
7
  6
CONTINUOUS
 10
243.8386030621
 20
241.9197122347
 11
243.7137557788
 21
241.8337626247
  0
LINE
  5
282
100
AcDbEntity
  8
02___PRT_ALL_AXES
100
AcDbLine
 62
7
  6
CONTINUOUS
 10
233.6017419618
 20
254.1201123368
 11
233.1437420651
 21
255.0702886277
  0
LINE
  5
283
100
AcDbEntity
  8
02___PRT_ALL_AXES
100
AcDbLine
 62
7
  6
CONTINUOUS
 10
246.4593188131
 20
244.9321881178
 11
247.1885232175
 21
244.1700465198
  0
LINE
  5
284
100
AcDbEntity
  8
02___PRT_ALL_AXES
100
AcDbLine
 62
7
  6
CONTINUOUS
 10
236.4002577448
 20
257.0270006548
 11
237.0241956834
 21
256.1765300042
  0
LINE
  5
285
100
AcDbEntity
  8
02___PRT_ALL_AXES
100
AcDbLine
 62
7
  6
CONTINUOUS
 10
235.6150370542
 20
255.6071929616
 11
235.4730738902
 21
256.6523940614
  0
LINE
  5
286
100
AcDbEntity
  8
02___PRT_ALL_AXES
100
AcDbLine
 62
7
  6
CONTINUOUS
 10
244.4888500167
 20
255.8636158574
 11
244.1675463258
 21
254.8589453556
  0
LINE
  5
287
100
AcDbEntity
  8
02___PRT_ALL_AXES
100
AcDbLine
 62
7
  6
CONTINUOUS
 10
245.0040945773
 20
242.8957480038
 11
245.4620944719
 21
241.9455717174
  0
LINE
  5
288
100
AcDbEntity
  8
02___PRT_ALL_AXES
100
AcDbLine
 62
7
  6
CONTINUOUS
 10
241.9620005687
 20
257.1061440169
 11
241.9668828586
 21
256.0513572887
  0
LINE
  5
289
100
AcDbEntity
  8
02___PRT_ALL_AXES
100
AcDbLine
 62
7
  6
CONTINUOUS
 10
239.1748616182
 20
257.507019098
 11
239.5054519762
 21
256.5053660174
  0
LINE
  5
28A
100
AcDbEntity
  8
02___PRT_ALL_AXES
100
AcDbLine
 62
7
  6
CONTINUOUS
 10
254.8784426348
 20
320.9005171157
 11
255.0567963111
 21
321.9401270642
  0
LINE
  5
28B
100
AcDbEntity
  8
02___PRT_ALL_AXES
100
AcDbLine
 62
7
  6
CONTINUOUS
 10
260.3694331887
 20
320.0126716063
 11
259.9026569479
 21
320.9585673827
  0
LINE
  5
28C
100
AcDbEntity
  8
02___PRT_ALL_AXES
100
AcDbLine
 62
7
  6
CONTINUOUS
 10
257.5536274547
 20
320.0217506281
 11
257.4019947391
 21
321.065592761
  0
LINE
  5
28D
100
AcDbEntity
  8
02___PRT_ALL_AXES
100
AcDbLine
 62
7
  6
CONTINUOUS
 10
252.5634340168
 20
333.6704743874
 11
251.9776523655
 21
334.547662358
  0
LINE
  5
28E
100
AcDbEntity
  8
02___PRT_ALL_AXES
100
AcDbLine
 62
7
  6
CONTINUOUS
 10
261.3892716311
 20
321.2745570883
 11
261.3475807894
 21
320.2205832971
  0
LINE
  5
28F
100
AcDbEntity
  8
02___PRT_ALL_AXES
100
AcDbLine
 62
7
  6
CONTINUOUS
 10
252.6057444583
 20
322.5629512824
 11
253.0966260259
 21
323.4965647813
  0
LINE
  5
290
100
AcDbEntity
  8
02___PRT_ALL_AXES
100
AcDbLine
 62
7
  6
CONTINUOUS
 10
253.5817451241
 20
334.7992165119
 11
253.6934155284
 21
334.9017050497
  0
LINE
  5
291
100
AcDbEntity
  8
02___PRT_ALL_AXES
100
AcDbLine
 62
7
  6
CONTINUOUS
 10
263.0502291527
 20
320.874168768
 11
262.3140006974
 21
321.629527319
  0
LINE
  5
292
100
AcDbEntity
  8
02___PRT_ALL_AXES
100
AcDbLine
 62
7
  6
CONTINUOUS
 10
263.63020909
 20
322.3894405888
 11
263.9162545564
 21
321.374168768
  0
LINE
  5
293
100
AcDbEntity
  8
02___PRT_ALL_AXES
100
AcDbLine
 62
7
  6
CONTINUOUS
 10
258.9134955098
 20
320.9067276284
 11
258.5481493501
 21
319.9172221648
  0
LINE
  5
294
100
AcDbEntity
  8
02___PRT_ALL_AXES
100
AcDbLine
 62
7
  6
CONTINUOUS
 10
251.4057896089
 20
331.4513246991
 11
250.577612162
 21
332.1045635493
  0
LINE
  5
295
100
AcDbEntity
  8
02___PRT_ALL_AXES
100
AcDbLine
 62
7
  6
CONTINUOUS
 10
265.4169493144
 20
324.1422455649
 11
266.0027309658
 21
323.2650575943
  0
LINE
  5
296
100
AcDbEntity
  8
02___PRT_ALL_AXES
100
AcDbLine
 62
7
  6
CONTINUOUS
 10
250.9580004575
 20
324.8463224892
 11
251.7133590085
 21
325.5825509444
  0
LINE
  5
297
100
AcDbEntity
  8
02___PRT_ALL_AXES
100
AcDbLine
 62
7
  6
CONTINUOUS
 10
265.3336003595
 20
322.5219127688
 11
264.3999868605
 21
323.0127943365
  0
LINE
  5
298
100
AcDbEntity
  8
02___PRT_ALL_AXES
100
AcDbLine
 62
7
  6
CONTINUOUS
 10
256.4452269427
 20
321.3219579194
 11
255.7919880925
 21
320.4937804726
  0
LINE
  5
299
100
AcDbEntity
  8
02___PRT_ALL_AXES
100
AcDbLine
 62
7
  6
CONTINUOUS
 10
250.9905593179
 20
328.9830561318
 11
250.0010538543
 21
329.3484022916
  0
LINE
  5
29A
100
AcDbEntity
  8
02___PRT_ALL_AXES
100
AcDbLine
 62
7
  6
CONTINUOUS
 10
258.4822098471
 20
332.5208384271
 11
268.8698203409
 21
339.1632082855
  0
LINE
  5
29B
100
AcDbEntity
  8
02___PRT_ALL_AXES
100
AcDbLine
 62
7
  6
CONTINUOUS
 10
252.6467829718
 20
335.2908071835
 11
253.5817451241
 21
334.7992165119
  0
LINE
  5
29C
100
AcDbEntity
  8
02___PRT_ALL_AXES
100
AcDbLine
 62
7
  6
CONTINUOUS
 10
265.9439921138
 20
324.9510269552
 11
265.4169493144
 21
324.1422455649
  0
LINE
  5
29D
100
AcDbEntity
  8
02___PRT_ALL_AXES
100
AcDbLine
 62
7
  6
CONTINUOUS
 10
271.3324662422
 20
336.0111652711
 11
262.3744127348
 21
327.5390459102
  0
LINE
  5
29E
100
AcDbEntity
  8
02___PRT_ALL_AXES
100
AcDbLine
 62
7
  6
CONTINUOUS
 10
250.0965032957
 20
327.5271184533
 11
251.0423990722
 21
327.9938946941
  0
LINE
  5
29F
100
AcDbEntity
  8
02___PRT_ALL_AXES
100
AcDbLine
 62
7
  6
CONTINUOUS
 10
254.2260772544
 20
322.4796023274
 11
253.3488892838
 21
321.893820676
  0
LINE
  5
2A0
100
AcDbEntity
  8
02___PRT_ALL_AXES
100
AcDbLine
 62
7
  6
CONTINUOUS
 10
313.8369618163
 20
326.7738956705
 11
306.0244049213
 21
326.3644569134
  0
LINE
  5
2A1
100
AcDbEntity
  8
02___PRT_ALL_AXES
100
AcDbLine
 62
7
  6
CONTINUOUS
 10
296.0381095739
 20
325.8410973515
 11
288.2255526789
 21
325.4316585944
  0
LINE
  5
2A2
100
AcDbEntity
  8
02___PRT_ALL_AXES
100
AcDbLine
 62
7
  6
CONTINUOUS
 10
251.3583887778
 20
326.5072800108
 11
250.3044149865
 21
326.5489708525
  0
LINE
  5
2A3
100
AcDbEntity
  8
02___PRT_ALL_AXES
100
AcDbLine
 62
7
  6
CONTINUOUS
 10
250.9843488051
 20
333.018109007
 11
252.0239587536
 21
332.8397553307
  0
LINE
  5
2A4
100
AcDbEntity
  8
02___PRT_ALL_AXES
100
AcDbLine
 62
7
  6
CONTINUOUS
 10
286.4112381382
 20
326.3910727424
 11
283.9274346137
 21
330.4826439414
  0
LINE
  5
2A5
100
AcDbEntity
  8
02___PRT_ALL_AXES
100
AcDbLine
 62
7
  6
CONTINUOUS
 10
252.4732722782
 20
324.2663425519
 11
251.4580004575
 21
323.9802970854
  0
LINE
  5
2A6
100
AcDbEntity
  8
02___PRT_ALL_AXES
100
AcDbLine
 62
7
  6
CONTINUOUS
 10
250.1055823176
 20
330.3429241871
 11
251.1494244505
 21
330.4945569027
  0
LINE
  5
2A7
100
AcDbEntity
  8
02___PRT_ALL_AXES
100
AcDbLine
 62
7
  6
CONTINUOUS
 10
281.976179168
 20
344.3957088034
 11
313.7977662677
 21
337.2944032713
  0
LINE
  5
2A8
100
AcDbEntity
  8
02___PRT_ALL_AXES
100
AcDbLine
 62
7
  6
CONTINUOUS
 10
315.7498336823
 20
334.9852610398
 11
316.0512887903
 21
329.2331549195
  0
LINE
  5
2A9
100
AcDbEntity
  8
02___PRT_ALL_AXES
100
AcDbLine
 62
7
  6
CONTINUOUS
 10
186.8750359189
 20
323.1982121161
 11
186.8750359189
 21
311.6982121161
  0
LINE
  5
2AA
100
AcDbEntity
  8
02___PRT_ALL_AXES
100
AcDbLine
 62
7
  6
CONTINUOUS
 10
197.4200359189
 20
318.1982121161
 11
197.4200359189
 21
320.0982173161
  0
LINE
  5
2AB
100
AcDbEntity
  8
02___PRT_ALL_AXES
100
AcDbLine
 62
7
  6
CONTINUOUS
 10
198.8700359189
 20
317.5982121161
 11
198.8700359189
 21
318.1982121161
  0
LINE
  5
2AC
100
AcDbEntity
  8
02___PRT_ALL_AXES
100
AcDbLine
 62
7
  6
CONTINUOUS
 10
198.9998359293
 20
320.5982173161
 11
198.9998359293
 21
323.1982121161
  0
LINE
  5
2AD
100
AcDbEntity
  8
02___PRT_ALL_AXES
100
AcDbLine
 62
7
  6
CONTINUOUS
 10
201.7402359085
 20
323.1982121161
 11
201.7402359085
 21
320.5982173161
  0
LINE
  5
2AE
100
AcDbEntity
  8
02___PRT_ALL_AXES
100
AcDbLine
 62
7
  6
CONTINUOUS
 10
201.8700359189
 20
318.1982121161
 11
201.8700359189
 21
317.5982121161
  0
LINE
  5
2AF
100
AcDbEntity
  8
02___PRT_ALL_AXES
100
AcDbLine
 62
7
  6
CONTINUOUS
 10
203.3200359189
 20
320.0982173161
 11
203.3200359189
 21
318.1982121161
  0
LINE
  5
2B0
100
AcDbEntity
  8
02___PRT_ALL_AXES
100
AcDbLine
 62
7
  6
CONTINUOUS
 10
189.3750359189
 20
309.1982121161
 11
248.3750359189
 21
309.1982121161
  0
LINE
  5
2B1
100
AcDbEntity
  8
02___PRT_ALL_AXES
100
AcDbLine
 62
7
  6
CONTINUOUS
 10
213.8750359189
 20
326.1982121161
 11
213.8750359189
 21
323.1982121161
  0
LINE
  5
2B2
100
AcDbEntity
  8
02___PRT_ALL_AXES
100
AcDbLine
 62
7
  6
CONTINUOUS
 10
238.8800359189
 20
317.5982121161
 11
235.8800359189
 21
317.5982121161
  0
LINE
  5
2B3
100
AcDbEntity
  8
02___PRT_ALL_AXES
100
AcDbLine
 62
7
  6
CONTINUOUS
 10
201.8700359189
 20
317.5982121161
 11
198.8700359189
 21
317.5982121161
  0
LINE
  5
2B4
100
AcDbEntity
  8
02___PRT_ALL_AXES
100
AcDbLine
 62
7
  6
CONTINUOUS
 10
240.3300359189
 20
318.1982121161
 11
238.8800359189
 21
318.1982121161
  0
LINE
  5
2B5
100
AcDbEntity
  8
02___PRT_ALL_AXES
100
AcDbLine
 62
7
  6
CONTINUOUS
 10
235.8800359189
 20
318.1982121161
 11
234.4300359189
 21
318.1982121161
  0
LINE
  5
2B6
100
AcDbEntity
  8
02___PRT_ALL_AXES
100
AcDbLine
 62
7
  6
CONTINUOUS
 10
203.3200359189
 20
318.1982121161
 11
201.8700359189
 21
318.1982121161
  0
LINE
  5
2B7
100
AcDbEntity
  8
02___PRT_ALL_AXES
100
AcDbLine
 62
7
  6
CONTINUOUS
 10
198.8700359189
 20
318.1982121161
 11
197.4200359189
 21
318.1982121161
  0
LINE
  5
2B8
100
AcDbEntity
  8
02___PRT_ALL_AXES
100
AcDbLine
 62
7
  6
CONTINUOUS
 10
197.9200359189
 20
320.5982173161
 11
198.9998359293
 21
320.5982173161
  0
LINE
  5
2B9
100
AcDbEntity
  8
02___PRT_ALL_AXES
100
AcDbLine
 62
7
  6
CONTINUOUS
 10
201.7402359085
 20
320.5982173161
 11
202.8200359189
 21
320.5982173161
  0
LINE
  5
2BA
100
AcDbEntity
  8
02___PRT_ALL_AXES
100
AcDbLine
 62
7
  6
CONTINUOUS
 10
234.9300359189
 20
320.5982173161
 11
236.0098359293
 21
320.5982173161
  0
LINE
  5
2BB
100
AcDbEntity
  8
02___PRT_ALL_AXES
100
AcDbLine
 62
7
  6
CONTINUOUS
 10
238.7502359085
 20
320.5982173161
 11
239.8300359189
 21
320.5982173161
  0
LINE
  5
2BC
100
AcDbEntity
  8
02___PRT_ALL_AXES
100
AcDbLine
 62
7
  6
CONTINUOUS
 10
223.8750359189
 20
323.1982121161
 11
223.8750359189
 21
326.1982121161
  0
LINE
  5
2BD
100
AcDbEntity
  8
02___PRT_ALL_AXES
100
AcDbLine
 62
7
  6
CONTINUOUS
 10
250.8750359189
 20
323.1982121161
 11
238.7502359085
 21
323.1982121161
  0
LINE
  5
2BE
100
AcDbEntity
  8
02___PRT_ALL_AXES
100
AcDbLine
 62
7
  6
CONTINUOUS
 10
236.0098359293
 20
323.1982121161
 11
223.8750359189
 21
323.1982121161
  0
LINE
  5
2BF
100
AcDbEntity
  8
02___PRT_ALL_AXES
100
AcDbLine
 62
7
  6
CONTINUOUS
 10
213.8750359189
 20
323.1982121161
 11
201.7402359085
 21
323.1982121161
  0
LINE
  5
2C0
100
AcDbEntity
  8
02___PRT_ALL_AXES
100
AcDbLine
 62
7
  6
CONTINUOUS
 10
198.9998359293
 20
323.1982121161
 11
186.8750359189
 21
323.1982121161
  0
LINE
  5
2C1
100
AcDbEntity
  8
02___PRT_ALL_AXES
100
AcDbLine
 62
7
  6
CONTINUOUS
 10
223.8750359189
 20
326.1982121161
 11
213.8750359189
 21
326.1982121161
  0
LINE
  5
2C2
100
AcDbEntity
  8
02___PRT_ALL_AXES
100
AcDbLine
 62
7
  6
CONTINUOUS
 10
234.4300359189
 20
318.1982121161
 11
234.4300359189
 21
320.0982173161
  0
LINE
  5
2C3
100
AcDbEntity
  8
02___PRT_ALL_AXES
100
AcDbLine
 62
7
  6
CONTINUOUS
 10
235.8800359189
 20
317.5982121161
 11
235.8800359189
 21
318.1982121161
  0
LINE
  5
2C4
100
AcDbEntity
  8
02___PRT_ALL_AXES
100
AcDbLine
 62
7
  6
CONTINUOUS
 10
236.0098359293
 20
320.5982173161
 11
236.0098359293
 21
323.1982121161
  0
LINE
  5
2C5
100
AcDbEntity
  8
02___PRT_ALL_AXES
100
AcDbLine
 62
7
  6
CONTINUOUS
 10
238.7502359085
 20
323.1982121161
 11
238.7502359085
 21
320.5982173161
  0
LINE
  5
2C6
100
AcDbEntity
  8
02___PRT_ALL_AXES
100
AcDbLine
 62
7
  6
CONTINUOUS
 10
238.8800359189
 20
318.1982121161
 11
238.8800359189
 21
317.5982121161
  0
LINE
  5
2C7
100
AcDbEntity
  8
02___PRT_ALL_AXES
100
AcDbLine
 62
7
  6
CONTINUOUS
 10
240.3300359189
 20
320.0982173161
 11
240.3300359189
 21
318.1982121161
  0
LINE
  5
2C8
100
AcDbEntity
  8
02___PRT_ALL_AXES
100
AcDbLine
 62
7
  6
CONTINUOUS
 10
250.8750359189
 20
311.6982121161
 11
250.8750359189
 21
323.1982121161
  0
LINE
  5
2C9
100
AcDbEntity
  8
02___PRT_ALL_AXES
100
AcDbLine
 62
7
  6
CONTINUOUS
 10
244.6672762875
 20
260.244769829
 11
247.7148225408
 21
257.1972235756
  0
LINE
  5
2CA
100
AcDbEntity
  8
02___PRT_ALL_AXES
100
AcDbLine
 62
7
  6
CONTINUOUS
 10
248.421929322
 20
284.4985324255
 11
245.3743830687
 21
281.4509861721
  0
LINE
  5
2CB
100
AcDbEntity
  8
02___PRT_ALL_AXES
100
AcDbLine
 62
7
  6
CONTINUOUS
 10
248.4519004565
 20
267.4704314756
 11
244.5286595724
 21
261.7357841424
  0
LINE
  5
2CC
100
AcDbEntity
  8
02___PRT_ALL_AXES
100
AcDbLine
 62
7
  6
CONTINUOUS
 10
268.1371313518
 20
285.3442559218
 11
262.4024840185
 21
281.4210150376
  0
LINE
  5
2CD
100
AcDbEntity
  8
02___PRT_ALL_AXES
100
AcDbLine
 62
7
  6
CONTINUOUS
 10
262.6552445011
 20
261.0322811031
 11
267.4300245706
 21
257.7657136417
  0
LINE
  5
2CE
100
AcDbEntity
  8
02___PRT_ALL_AXES
100
AcDbLine
 62
7
  6
CONTINUOUS
 10
245.2357663537
 20
279.9599718588
 11
248.502333815
 21
275.1851917904
  0
LINE
  5
2CF
100
AcDbEntity
  8
02___PRT_ALL_AXES
100
AcDbLine
 62
7
  6
CONTINUOUS
 10
268.8910677494
 20
274.9324313067
 11
272.8143086336
 21
280.6670786399
  0
LINE
  5
2D0
100
AcDbEntity
  8
02___PRT_ALL_AXES
100
AcDbLine
 62
7
  6
CONTINUOUS
 10
249.2058368542
 20
257.0586068605
 11
254.9404841875
 21
260.9818477447
  0
LINE
  5
2D1
100
AcDbEntity
  8
02___PRT_ALL_AXES
100
AcDbLine
 62
7
  6
CONTINUOUS
 10
254.6877237048
 20
281.3705816792
 11
249.9129436354
 21
284.6371491406
  0
LINE
  5
2D2
100
AcDbEntity
  8
02___PRT_ALL_AXES
100
AcDbLine
 62
7
  6
CONTINUOUS
 10
272.1072018524
 20
262.4428909235
 11
268.840634391
 21
267.217670993
  0
LINE
  5
2D3
100
AcDbEntity
  8
02___PRT_ALL_AXES
100
AcDbLine
 62
7
  6
CONTINUOUS
 10
268.921038884
 20
257.9043303568
 11
271.9685851373
 21
260.9518766101
  0
LINE
  5
2D4
100
AcDbEntity
  8
02___PRT_ALL_AXES
100
AcDbLine
 62
7
  6
CONTINUOUS
 10
272.6756919185
 20
282.1580929533
 11
269.6281456652
 21
285.2056392067
  0
LINE
  5
2D5
100
AcDbEntity
  8
02___PRT_ALL_AXES
100
AcDbLine
 62
7
  6
CONTINUOUS
 10
254.5177536053
 20
283.8178141381
 11
258.5677172062
 21
282.3437479375
  0
LINE
  5
2D6
100
AcDbEntity
  8
02___PRT_ALL_AXES
100
AcDbLine
 62
7
  6
CONTINUOUS
 10
254.8940913957
 20
291.9659388426
 11
253.7619943197
 21
285.1105500657
  0
LINE
  5
2D7
100
AcDbEntity
  8
02___PRT_ALL_AXES
100
AcDbLine
 62
7
  6
CONTINUOUS
 10
265.1811648276
 20
316.4844631852
 11
261.6418425364
 21
310.5052327338
  0
LINE
  5
2D8
100
AcDbEntity
  8
02___PRT_ALL_AXES
100
AcDbLine
 62
7
  6
CONTINUOUS
 10
270.2646904761
 20
307.3667727491
 11
271.3967875522
 21
314.222161526
  0
LINE
  5
2D9
100
AcDbEntity
  8
02___PRT_ALL_AXES
100
AcDbLine
 62
7
  6
CONTINUOUS
 10
259.9776170442
 20
282.8482484065
 11
263.5169393354
 21
288.827478858
  0
LINE
  5
2DA
100
AcDbEntity
  8
02___PRT_ALL_AXES
100
AcDbLine
 62
7
  6
CONTINUOUS
 10
270.6410282665
 20
315.5148974536
 11
266.5910646656
 21
316.9889636542
  0
LINE
  5
2DB
100
AcDbEntity
  8
02___PRT_ALL_AXES
100
AcDbLine
 62
7
  6
CONTINUOUS
 10
187.3531670838
 20
282.9211508943
 11
187.3531670838
 21
273.9211508943
  0
LINE
  5
2DC
100
AcDbEntity
  8
02___PRT_ALL_AXES
100
AcDbLine
 62
7
  6
CONTINUOUS
 10
188.8531670838
 20
272.4211508943
 11
241.8531670838
 21
272.4211508943
  0
LINE
  5
2DD
100
AcDbEntity
  8
02___PRT_ALL_AXES
100
AcDbLine
 62
7
  6
CONTINUOUS
 10
241.8531670838
 20
284.4211508943
 11
188.8531670838
 21
284.4211508943
  0
LINE
  5
2DE
100
AcDbEntity
  8
02___PRT_ALL_AXES
100
AcDbLine
 62
7
  6
CONTINUOUS
 10
243.3531670838
 20
273.9211508943
 11
243.3531670838
 21
282.9211508943
  0
LINE
  5
2DF
100
AcDbEntity
  8
02___PRT_ALL_AXES
100
AcDbLine
 62
7
  6
CONTINUOUS
 10
187.3531670838
 20
269.4234144318
 11
187.3531670838
 21
260.4234144318
  0
LINE
  5
2E0
100
AcDbEntity
  8
02___PRT_ALL_AXES
100
AcDbLine
 62
7
  6
CONTINUOUS
 10
188.8531670838
 20
258.9234144318
 11
241.8531670838
 21
258.9234144318
  0
LINE
  5
2E1
100
AcDbEntity
  8
02___PRT_ALL_AXES
100
AcDbLine
 62
7
  6
CONTINUOUS
 10
241.8531670838
 20
270.9234144318
 11
188.8531670838
 21
270.9234144318
  0
LINE
  5
2E2
100
AcDbEntity
  8
02___PRT_ALL_AXES
100
AcDbLine
 62
7
  6
CONTINUOUS
 10
243.3531670838
 20
260.4234144318
 11
243.3531670838
 21
269.4234144318
  0
CIRCLE
  5
2E3
100
AcDbEntity
  8
02___PRT_ALL_AXES
100
AcDbCircle
 62
7
  6
CONTINUOUS
 10
287.2578471426
 20
283.3395044496
 40
1.5
  0
CIRCLE
  5
2E4
100
AcDbEntity
  8
02___PRT_ALL_AXES
100
AcDbCircle
 62
7
  6
CONTINUOUS
 10
296.8578471426
 20
273.7143044496
 40
1.5
  0
CIRCLE
  5
2E5
100
AcDbEntity
  8
02___PRT_ALL_AXES
100
AcDbCircle
 62
7
  6
CONTINUOUS
 10
296.8578471426
 20
310.9647044496
 40
1.5
  0
ARC
  5
2E6
100
AcDbEntity
  8
02___PRT_ALL_AXES
100
AcDbCircle
 62
7
  6
CONTINUOUS
 10
299.0078471426
 20
323.0895044496
 40
1.5
100
AcDbArc
 50
0.0
 51
90.0
  0
ARC
  5
2E7
100
AcDbEntity
  8
02___PRT_ALL_AXES
100
AcDbCircle
 62
7
  6
CONTINUOUS
 10
299.0078471426
 20
261.5895044496
 40
1.5
100
AcDbArc
 50
270.0
 51
360.0
  0
CIRCLE
  5
2E8
100
AcDbEntity
  8
02___PRT_ALL_AXES
100
AcDbCircle
 62
7
  6
CONTINUOUS
 10
287.2578471426
 20
291.5895044496
 40
1.0
  0
CIRCLE
  5
2E9
100
AcDbEntity
  8
02___PRT_ALL_AXES
100
AcDbCircle
 62
7
  6
CONTINUOUS
 10
287.2578471426
 20
319.6895044496
 40
1.0
  0
ARC
  5
2EA
100
AcDbEntity
  8
02___PRT_ALL_AXES
100
AcDbCircle
 62
7
  6
CONTINUOUS
 10
292.5078471426
 20
295.1395044496
 40
1.0
100
AcDbArc
 50
270.0
 51
360.0
  0
ARC
  5
2EB
100
AcDbEntity
  8
02___PRT_ALL_AXES
100
AcDbCircle
 62
7
  6
CONTINUOUS
 10
292.5078471426
 20
316.1395044496
 40
1.0
100
AcDbArc
 50
0.0
 51
90.0
  0
ARC
  5
2EC
100
AcDbEntity
  8
02___PRT_ALL_AXES
100
AcDbCircle
 62
7
  6
CONTINUOUS
 10
282.0078471426
 20
316.1395044496
 40
1.0
100
AcDbArc
 50
90.0
 51
180.0
  0
ARC
  5
2ED
100
AcDbEntity
  8
02___PRT_ALL_AXES
100
AcDbCircle
 62
7
  6
CONTINUOUS
 10
282.0078471426
 20
295.1395044496
 40
1.0
100
AcDbArc
 50
180.0
 51
270.0
  0
ARC
  5
2EE
100
AcDbEntity
  8
02___PRT_ALL_AXES
100
AcDbCircle
 62
7
  6
CONTINUOUS
 10
278.3578471426
 20
289.8895044496
 40
0.5
100
AcDbArc
 50
180.0
 51
270.0
  0
ARC
  5
2EF
100
AcDbEntity
  8
02___PRT_ALL_AXES
100
AcDbCircle
 62
7
  6
CONTINUOUS
 10
278.3578471426
 20
294.7895044496
 40
0.5
100
AcDbArc
 50
90.0
 51
180.0
  0
CIRCLE
  5
2F0
100
AcDbEntity
  8
02___PRT_ALL_AXES
100
AcDbCircle
 62
7
  6
CONTINUOUS
 10
219.2250696336
 20
292.6583595279
 40
1.5
  0
ARC
  5
2F1
100
AcDbEntity
  8
02___PRT_ALL_AXES
100
AcDbCircle
 62
7
  6
CONTINUOUS
 10
200.5836100982
 20
316.9117006741
 40
10.0
100
AcDbArc
 50
65.0000000034
 51
125.0000000019
  0
ARC
  5
2F2
100
AcDbEntity
  8
02___PRT_ALL_AXES
100
AcDbCircle
 62
7
  6
CONTINUOUS
 10
186.5077668798
 20
332.5044994477
 40
2.5
100
AcDbArc
 50
110.58
 51
184.9999999999
  0
ARC
  5
2F3
100
AcDbEntity
  8
02___PRT_ALL_AXES
100
AcDbCircle
 62
7
  6
CONTINUOUS
 10
186.8503928064
 20
326.7524730681
 40
2.3400000001
100
AcDbArc
 50
184.9999999999
 51
274.9999999915
  0
ARC
  5
2F4
100
AcDbEntity
  8
02___PRT_ALL_AXES
100
AcDbCircle
 62
7
  6
CONTINUOUS
 10
212.4289897194
 20
328.6490115822
 40
1.999999999
100
AcDbArc
 50
275.0000000026
 51
336.7399999989
  0
CIRCLE
  5
2F5
100
AcDbEntity
  8
02___PRT_ALL_AXES
100
AcDbCircle
 62
7
  6
CONTINUOUS
 10
190.4961385124
 20
329.9624356197
 40
1.5
  0
CIRCLE
  5
2F6
100
AcDbEntity
  8
02___PRT_ALL_AXES
100
AcDbCircle
 62
7
  6
CONTINUOUS
 10
207.5847275402
 20
331.4574934353
 40
1.5
  0
ARC
  5
2F7
100
AcDbEntity
  8
02___PRT_ALL_AXES
100
AcDbCircle
 62
7
  6
CONTINUOUS
 10
224.5478657915
 20
311.9802202619
 40
35.6615911822
100
AcDbArc
 50
53.558425515
 51
94.9999999962
  0
ARC
  5
2F8
100
AcDbEntity
  8
02___PRT_ALL_AXES
100
AcDbCircle
 62
7
  6
CONTINUOUS
 10
223.1828681805
 20
327.5822143614
 40
20.0
100
AcDbArc
 50
94.9999999962
 51
110.5799999667
  0
ARC
  5
2F9
100
AcDbEntity
  8
02___PRT_ALL_AXES
100
AcDbCircle
 62
7
  6
CONTINUOUS
 10
224.2552722836
 20
324.1737150765
 40
11.6000358918
100
AcDbArc
 50
27.3743386702
 51
130.956368714
  0
ARC
  5
2FA
100
AcDbEntity
  8
02___PRT_ALL_AXES
100
AcDbCircle
 62
7
  6
CONTINUOUS
 10
217.8842324479
 20
331.514039881
 40
1.8804414134
100
AcDbArc
 50
130.956368714
 51
156.7399999989
  0
ARC
  5
2FB
100
AcDbEntity
  8
02___PRT_ALL_AXES
100
AcDbCircle
 62
7
  6
CONTINUOUS
 10
241.0705607283
 20
334.1662838637
 40
9.0
100
AcDbArc
 50
217.8152614633
 51
224.1847385367
  0
ARC
  5
2FC
100
AcDbEntity
  8
02___PRT_ALL_AXES
100
AcDbCircle
 62
7
  6
CONTINUOUS
 10
241.0705607283
 20
334.1662838637
 40
9.0
100
AcDbArc
 50
235.8152614633
 51
242.1847385367
  0
ARC
  5
2FD
100
AcDbEntity
  8
02___PRT_ALL_AXES
100
AcDbCircle
 62
7
  6
CONTINUOUS
 10
241.0705607283
 20
334.1662838637
 40
9.0
100
AcDbArc
 50
253.8152614633
 51
260.1847385367
  0
ARC
  5
2FE
100
AcDbEntity
  8
02___PRT_ALL_AXES
100
AcDbCircle
 62
7
  6
CONTINUOUS
 10
241.0705607283
 20
334.1662838637
 40
9.0
100
AcDbArc
 50
271.8152614633
 51
278.1847385367
  0
ARC
  5
2FF
100
AcDbEntity
  8
02___PRT_ALL_AXES
100
AcDbCircle
 62
7
  6
CONTINUOUS
 10
241.0705607283
 20
334.1662838637
 40
9.0
100
AcDbArc
 50
289.8152614633
 51
296.1847385367
  0
ARC
  5
300
100
AcDbEntity
  8
02___PRT_ALL_AXES
100
AcDbCircle
 62
7
  6
CONTINUOUS
 10
241.0705607283
 20
334.1662838637
 40
9.0
100
AcDbArc
 50
307.8152614633
 51
314.1847385367
  0
ARC
  5
301
100
AcDbEntity
  8
02___PRT_ALL_AXES
100
AcDbCircle
 62
7
  6
CONTINUOUS
 10
241.0705607283
 20
334.1662838637
 40
9.0
100
AcDbArc
 50
325.8152614633
 51
332.1847385367
  0
ARC
  5
302
100
AcDbEntity
  8
02___PRT_ALL_AXES
100
AcDbCircle
 62
7
  6
CONTINUOUS
 10
241.0705607283
 20
334.1662838637
 40
9.0
100
AcDbArc
 50
343.8152614633
 51
350.1847385367
  0
ARC
  5
303
100
AcDbEntity
  8
02___PRT_ALL_AXES
100
AcDbCircle
 62
7
  6
CONTINUOUS
 10
241.0705607283
 20
334.1662838637
 40
9.0
100
AcDbArc
 50
1.8152614633
 51
8.1847385367
  0
ARC
  5
304
100
AcDbEntity
  8
02___PRT_ALL_AXES
100
AcDbCircle
 62
7
  6
CONTINUOUS
 10
241.0705607283
 20
334.1662838637
 40
9.0
100
AcDbArc
 50
19.8152614633
 51
26.1847385367
  0
ARC
  5
305
100
AcDbEntity
  8
02___PRT_ALL_AXES
100
AcDbCircle
 62
7
  6
CONTINUOUS
 10
241.0705607283
 20
334.1662838637
 40
9.0
100
AcDbArc
 50
37.8152614633
 51
44.1847385367
  0
ARC
  5
306
100
AcDbEntity
  8
02___PRT_ALL_AXES
100
AcDbCircle
 62
7
  6
CONTINUOUS
 10
241.0705607283
 20
334.1662838637
 40
8.0
100
AcDbArc
 50
46.450695831
 51
54.3700000011
  0
ARC
  5
307
100
AcDbEntity
  8
02___PRT_ALL_AXES
100
AcDbCircle
 62
7
  6
CONTINUOUS
 10
241.0705607283
 20
334.1662838637
 40
8.0
100
AcDbArc
 50
226.4506958311
 51
233.5493041689
  0
ARC
  5
308
100
AcDbEntity
  8
02___PRT_ALL_AXES
100
AcDbCircle
 62
7
  6
CONTINUOUS
 10
241.0705607283
 20
334.1662838637
 40
8.0
100
AcDbArc
 50
244.4506958311
 51
251.5493041689
  0
ARC
  5
309
100
AcDbEntity
  8
02___PRT_ALL_AXES
100
AcDbCircle
 62
7
  6
CONTINUOUS
 10
241.0705607283
 20
334.1662838637
 40
8.0
100
AcDbArc
 50
262.4506958311
 51
269.5493041689
  0
ARC
  5
30A
100
AcDbEntity
  8
02___PRT_ALL_AXES
100
AcDbCircle
 62
7
  6
CONTINUOUS
 10
241.0705607283
 20
334.1662838637
 40
8.0
100
AcDbArc
 50
280.4506958311
 51
287.5493041689
  0
ARC
  5
30B
100
AcDbEntity
  8
02___PRT_ALL_AXES
100
AcDbCircle
 62
7
  6
CONTINUOUS
 10
241.0705607283
 20
334.1662838637
 40
8.0
100
AcDbArc
 50
298.4506958311
 51
305.5493041689
  0
ARC
  5
30C
100
AcDbEntity
  8
02___PRT_ALL_AXES
100
AcDbCircle
 62
7
  6
CONTINUOUS
 10
241.0705607283
 20
334.1662838637
 40
8.0
100
AcDbArc
 50
316.4506958311
 51
323.5493041689
  0
ARC
  5
30D
100
AcDbEntity
  8
02___PRT_ALL_AXES
100
AcDbCircle
 62
7
  6
CONTINUOUS
 10
241.0705607283
 20
334.1662838637
 40
8.0
100
AcDbArc
 50
334.4506958311
 51
341.5493041689
  0
ARC
  5
30E
100
AcDbEntity
  8
02___PRT_ALL_AXES
100
AcDbCircle
 62
7
  6
CONTINUOUS
 10
241.0705607283
 20
334.1662838637
 40
8.0
100
AcDbArc
 50
352.4506958311
 51
359.5493041689
  0
ARC
  5
30F
100
AcDbEntity
  8
02___PRT_ALL_AXES
100
AcDbCircle
 62
7
  6
CONTINUOUS
 10
241.0705607283
 20
334.1662838637
 40
8.0
100
AcDbArc
 50
10.4506958311
 51
17.5493041689
  0
ARC
  5
310
100
AcDbEntity
  8
02___PRT_ALL_AXES
100
AcDbCircle
 62
7
  6
CONTINUOUS
 10
241.0705607283
 20
334.1662838637
 40
8.0
100
AcDbArc
 50
28.4506958311
 51
35.5493041689
  0
CIRCLE
  5
311
100
AcDbEntity
  8
02___PRT_ALL_AXES
100
AcDbCircle
 62
7
  6
CONTINUOUS
 10
241.0705607283
 20
334.1662838637
 40
1.5
  0
ARC
  5
312
100
AcDbEntity
  8
02___PRT_ALL_AXES
100
AcDbCircle
 62
7
  6
CONTINUOUS
 10
258.175123408
 20
250.1298533129
 40
9.0
100
AcDbArc
 50
38.8152614633
 51
45.1847385367
  0
ARC
  5
313
100
AcDbEntity
  8
02___PRT_ALL_AXES
100
AcDbCircle
 62
7
  6
CONTINUOUS
 10
258.175123408
 20
250.1298533129
 40
9.0
100
AcDbArc
 50
56.8152614633
 51
63.1847385367
  0
ARC
  5
314
100
AcDbEntity
  8
02___PRT_ALL_AXES
100
AcDbCircle
 62
7
  6
CONTINUOUS
 10
258.175123408
 20
250.1298533129
 40
9.0
100
AcDbArc
 50
74.8152614633
 51
81.1847385367
  0
ARC
  5
315
100
AcDbEntity
  8
02___PRT_ALL_AXES
100
AcDbCircle
 62
7
  6
CONTINUOUS
 10
258.175123408
 20
250.1298533129
 40
9.0
100
AcDbArc
 50
92.8152614633
 51
99.1847385367
  0
ARC
  5
316
100
AcDbEntity
  8
02___PRT_ALL_AXES
100
AcDbCircle
 62
7
  6
CONTINUOUS
 10
258.175123408
 20
250.1298533129
 40
9.0
100
AcDbArc
 50
110.8152614633
 51
117.1847385367
  0
ARC
  5
317
100
AcDbEntity
  8
02___PRT_ALL_AXES
100
AcDbCircle
 62
7
  6
CONTINUOUS
 10
258.175123408
 20
250.1298533129
 40
9.0
100
AcDbArc
 50
128.8152614633
 51
135.1847385367
  0
ARC
  5
318
100
AcDbEntity
  8
02___PRT_ALL_AXES
100
AcDbCircle
 62
7
  6
CONTINUOUS
 10
258.175123408
 20
250.1298533129
 40
9.0
100
AcDbArc
 50
146.8152614633
 51
153.1847385367
  0
ARC
  5
319
100
AcDbEntity
  8
02___PRT_ALL_AXES
100
AcDbCircle
 62
7
  6
CONTINUOUS
 10
258.175123408
 20
250.1298533129
 40
9.0
100
AcDbArc
 50
164.8152614633
 51
171.1847385367
  0
ARC
  5
31A
100
AcDbEntity
  8
02___PRT_ALL_AXES
100
AcDbCircle
 62
7
  6
CONTINUOUS
 10
258.175123408
 20
250.1298533129
 40
9.0
100
AcDbArc
 50
182.8152614633
 51
189.1847385367
  0
ARC
  5
31B
100
AcDbEntity
  8
02___PRT_ALL_AXES
100
AcDbCircle
 62
7
  6
CONTINUOUS
 10
258.175123408
 20
250.1298533129
 40
9.0
100
AcDbArc
 50
200.8152614633
 51
207.1847385367
  0
ARC
  5
31C
100
AcDbEntity
  8
02___PRT_ALL_AXES
100
AcDbCircle
 62
7
  6
CONTINUOUS
 10
258.175123408
 20
250.1298533129
 40
9.0
100
AcDbArc
 50
218.8152614633
 51
225.1847385367
  0
ARC
  5
31D
100
AcDbEntity
  8
02___PRT_ALL_AXES
100
AcDbCircle
 62
7
  6
CONTINUOUS
 10
258.175123408
 20
250.1298533129
 40
8.0
100
AcDbArc
 50
227.450695831
 51
235.3700000011
  0
ARC
  5
31E
100
AcDbEntity
  8
02___PRT_ALL_AXES
100
AcDbCircle
 62
7
  6
CONTINUOUS
 10
258.175123408
 20
250.1298533129
 40
8.0
100
AcDbArc
 50
47.4506958311
 51
54.5493041689
  0
ARC
  5
31F
100
AcDbEntity
  8
02___PRT_ALL_AXES
100
AcDbCircle
 62
7
  6
CONTINUOUS
 10
258.175123408
 20
250.1298533129
 40
8.0
100
AcDbArc
 50
65.4506958311
 51
72.5493041689
  0
ARC
  5
320
100
AcDbEntity
  8
02___PRT_ALL_AXES
100
AcDbCircle
 62
7
  6
CONTINUOUS
 10
258.175123408
 20
250.1298533129
 40
8.0
100
AcDbArc
 50
83.4506958311
 51
90.5493041689
  0
ARC
  5
321
100
AcDbEntity
  8
02___PRT_ALL_AXES
100
AcDbCircle
 62
7
  6
CONTINUOUS
 10
258.175123408
 20
250.1298533129
 40
8.0
100
AcDbArc
 50
101.4506958311
 51
108.5493041689
  0
ARC
  5
322
100
AcDbEntity
  8
02___PRT_ALL_AXES
100
AcDbCircle
 62
7
  6
CONTINUOUS
 10
258.175123408
 20
250.1298533129
 40
8.0
100
AcDbArc
 50
119.4506958311
 51
126.5493041689
  0
ARC
  5
323
100
AcDbEntity
  8
02___PRT_ALL_AXES
100
AcDbCircle
 62
7
  6
CONTINUOUS
 10
258.175123408
 20
250.1298533129
 40
8.0
100
AcDbArc
 50
137.4506958311
 51
144.5493041689
  0
ARC
  5
324
100
AcDbEntity
  8
02___PRT_ALL_AXES
100
AcDbCircle
 62
7
  6
CONTINUOUS
 10
258.175123408
 20
250.1298533129
 40
8.0
100
AcDbArc
 50
155.4506958311
 51
162.5493041689
  0
ARC
  5
325
100
AcDbEntity
  8
02___PRT_ALL_AXES
100
AcDbCircle
 62
7
  6
CONTINUOUS
 10
258.175123408
 20
250.1298533129
 40
8.0
100
AcDbArc
 50
173.4506958311
 51
180.5493041689
  0
ARC
  5
326
100
AcDbEntity
  8
02___PRT_ALL_AXES
100
AcDbCircle
 62
7
  6
CONTINUOUS
 10
258.175123408
 20
250.1298533129
 40
8.0
100
AcDbArc
 50
191.4506958311
 51
198.5493041689
  0
ARC
  5
327
100
AcDbEntity
  8
02___PRT_ALL_AXES
100
AcDbCircle
 62
7
  6
CONTINUOUS
 10
258.175123408
 20
250.1298533129
 40
8.0
100
AcDbArc
 50
209.4506958311
 51
216.5493041689
  0
CIRCLE
  5
328
100
AcDbEntity
  8
02___PRT_ALL_AXES
100
AcDbCircle
 62
7
  6
CONTINUOUS
 10
258.175123408
 20
250.1298533129
 40
1.5
  0
ARC
  5
329
100
AcDbEntity
  8
02___PRT_ALL_AXES
100
AcDbCircle
 62
7
  6
CONTINUOUS
 10
281.3116322583
 20
253.1863505709
 40
1.8804414134
100
AcDbArc
 50
311.956368714
 51
337.7399999989
  0
ARC
  5
32A
100
AcDbEntity
  8
02___PRT_ALL_AXES
100
AcDbCircle
 62
7
  6
CONTINUOUS
 10
275.9451837166
 20
257.0251033101
 40
20.0
100
AcDbArc
 50
275.9999999962
 51
291.5799999667
  0
ARC
  5
32B
100
AcDbEntity
  8
02___PRT_ALL_AXES
100
AcDbCircle
 62
7
  6
CONTINUOUS
 10
274.8134564309
 20
260.4143674318
 40
11.6000358918
100
AcDbArc
 50
208.3743386702
 51
311.956368714
  0
ARC
  5
32C
100
AcDbEntity
  8
02___PRT_ALL_AXES
100
AcDbCircle
 62
7
  6
CONTINUOUS
 10
274.308101659
 20
272.6008986572
 40
35.6615911822
100
AcDbArc
 50
234.558425515
 51
275.9999999962
  0
ARC
  5
32D
100
AcDbEntity
  8
02___PRT_ALL_AXES
100
AcDbCircle
 62
7
  6
CONTINUOUS
 10
312.7006049416
 20
252.7436366857
 40
2.5
100
AcDbArc
 50
291.58
 51
5.9999999999
  0
ARC
  5
32E
100
AcDbEntity
  8
02___PRT_ALL_AXES
100
AcDbCircle
 62
7
  6
CONTINUOUS
 10
312.2576444964
 20
258.4888073569
 40
2.3400000001
100
AcDbArc
 50
5.9999999999
 51
95.9999999915
  0
ARC
  5
32F
100
AcDbEntity
  8
02___PRT_ALL_AXES
100
AcDbCircle
 62
7
  6
CONTINUOUS
 10
286.7160424886
 20
256.1461496254
 40
1.999999999
100
AcDbArc
 50
96.0000000026
 51
157.7399999989
  0
CIRCLE
  5
330
100
AcDbEntity
  8
02___PRT_ALL_AXES
100
AcDbCircle
 62
7
  6
CONTINUOUS
 10
308.6684756262
 20
255.2157066623
 40
1.5
  0
CIRCLE
  5
331
100
AcDbEntity
  8
02___PRT_ALL_AXES
100
AcDbCircle
 62
7
  6
CONTINUOUS
 10
291.6085816299
 20
253.4226395501
 40
1.5
  0
ARC
  5
332
100
AcDbEntity
  8
02___PRT_ALL_AXES
100
AcDbCircle
 62
7
  6
CONTINUOUS
 10
298.3547736806
 20
268.0884032637
 40
10.0
100
AcDbArc
 50
246.0000000034
 51
306.0000000019
  0
ARC
  5
333
100
AcDbEntity
  8
02___PRT_ALL_AXES
100
AcDbCircle
 62
7
  6
CONTINUOUS
 10
184.7401244196
 20
250.1697145879
 40
2.5
100
AcDbArc
 50
175.0000000001
 51
249.42
  0
ARC
  5
334
100
AcDbEntity
  8
02___PRT_ALL_AXES
100
AcDbCircle
 62
7
  6
CONTINUOUS
 10
185.0827503462
 20
255.9217409678
 40
2.3400000001
100
AcDbArc
 50
84.999999995
 51
175.0000000001
  0
ARC
  5
335
100
AcDbEntity
  8
02___PRT_ALL_AXES
100
AcDbCircle
 62
7
  6
CONTINUOUS
 10
210.6613472592
 20
254.0252024538
 40
1.999999999
100
AcDbArc
 50
23.2600000011
 51
84.9999999974
  0
CIRCLE
  5
336
100
AcDbEntity
  8
02___PRT_ALL_AXES
100
AcDbCircle
 62
7
  6
CONTINUOUS
 10
188.7284960522
 20
252.7117784163
 40
1.5
  0
CIRCLE
  5
337
100
AcDbEntity
  8
02___PRT_ALL_AXES
100
AcDbCircle
 62
7
  6
CONTINUOUS
 10
205.81708508
 20
251.2167206007
 40
1.5
  0
ARC
  5
338
100
AcDbEntity
  8
02___PRT_ALL_AXES
100
AcDbCircle
 62
7
  6
CONTINUOUS
 10
198.815967638
 20
265.7625133618
 40
10.0
100
AcDbArc
 50
234.999999998
 51
294.9999999967
  0
ARC
  5
339
100
AcDbEntity
  8
02___PRT_ALL_AXES
100
AcDbCircle
 62
7
  6
CONTINUOUS
 10
216.1165899877
 20
251.1601741549
 40
1.8804414134
100
AcDbArc
 50
203.2600000011
 51
229.0436312861
  0
ARC
  5
33A
100
AcDbEntity
  8
02___PRT_ALL_AXES
100
AcDbCircle
 62
7
  6
CONTINUOUS
 10
221.4152257191
 20
255.0919996746
 40
20.0
100
AcDbArc
 50
249.4199999998
 51
265.0
  0
ARC
  5
33B
100
AcDbEntity
  8
02___PRT_ALL_AXES
100
AcDbCircle
 62
7
  6
CONTINUOUS
 10
222.5179799493
 20
258.5354665296
 40
11.6463377395
100
AcDbArc
 50
229.0436312861
 51
333.7945819627
  0
ARC
  5
33C
100
AcDbEntity
  8
02___PRT_ALL_AXES
100
AcDbCircle
 62
7
  6
CONTINUOUS
 10
239.3029182681
 20
248.5079301722
 40
8.9999999999
100
AcDbArc
 50
126.8152614632
 51
133.1847385305
  0
ARC
  5
33D
100
AcDbEntity
  8
02___PRT_ALL_AXES
100
AcDbCircle
 62
7
  6
CONTINUOUS
 10
239.3029182681
 20
248.5079301722
 40
9.0
100
AcDbArc
 50
306.8152614633
 51
313.1847385367
  0
ARC
  5
33E
100
AcDbEntity
  8
02___PRT_ALL_AXES
100
AcDbCircle
 62
7
  6
CONTINUOUS
 10
239.3029182681
 20
248.5079301722
 40
9.0
100
AcDbArc
 50
324.8152614633
 51
331.1847385368
  0
ARC
  5
33F
100
AcDbEntity
  8
02___PRT_ALL_AXES
100
AcDbCircle
 62
7
  6
CONTINUOUS
 10
239.3029182681
 20
248.5079301722
 40
9.0
100
AcDbArc
 50
342.8152614633
 51
349.184738537
  0
ARC
  5
340
100
AcDbEntity
  8
02___PRT_ALL_AXES
100
AcDbCircle
 62
7
  6
CONTINUOUS
 10
239.3029182681
 20
248.5079301722
 40
9.0
100
AcDbArc
 50
0.815261463
 51
7.1847385367
  0
ARC
  5
341
100
AcDbEntity
  8
02___PRT_ALL_AXES
100
AcDbCircle
 62
7
  6
CONTINUOUS
 10
239.3029182681
 20
248.5079301722
 40
9.0
100
AcDbArc
 50
18.8152614632
 51
25.1847385367
  0
ARC
  5
342
100
AcDbEntity
  8
02___PRT_ALL_AXES
100
AcDbCircle
 62
7
  6
CONTINUOUS
 10
239.3029182681
 20
248.5079301722
 40
9.0
100
AcDbArc
 50
36.8152614633
 51
43.1847385367
  0
ARC
  5
343
100
AcDbEntity
  8
02___PRT_ALL_AXES
100
AcDbCircle
 62
7
  6
CONTINUOUS
 10
239.3029182681
 20
248.5079301722
 40
9.0
100
AcDbArc
 50
54.8152614633
 51
61.1847385367
  0
ARC
  5
344
100
AcDbEntity
  8
02___PRT_ALL_AXES
100
AcDbCircle
 62
7
  6
CONTINUOUS
 10
239.3029182681
 20
248.5079301722
 40
9.0
100
AcDbArc
 50
72.8152614633
 51
79.1847385367
  0
ARC
  5
345
100
AcDbEntity
  8
02___PRT_ALL_AXES
100
AcDbCircle
 62
7
  6
CONTINUOUS
 10
239.3029182681
 20
248.5079301722
 40
9.0
100
AcDbArc
 50
90.8152614633
 51
97.1847385367
  0
ARC
  5
346
100
AcDbEntity
  8
02___PRT_ALL_AXES
100
AcDbCircle
 62
7
  6
CONTINUOUS
 10
239.3029182681
 20
248.5079301722
 40
9.0
100
AcDbArc
 50
108.8152614633
 51
115.1847385367
  0
ARC
  5
347
100
AcDbEntity
  8
02___PRT_ALL_AXES
100
AcDbCircle
 62
7
  6
CONTINUOUS
 10
239.3029182681
 20
248.5079301722
 40
8.0
100
AcDbArc
 50
315.4506958311
 51
322.5493041689
  0
ARC
  5
348
100
AcDbEntity
  8
02___PRT_ALL_AXES
100
AcDbCircle
 62
7
  6
CONTINUOUS
 10
239.3029182681
 20
248.5079301722
 40
8.0
100
AcDbArc
 50
333.4506958311
 51
340.549304169
  0
ARC
  5
349
100
AcDbEntity
  8
02___PRT_ALL_AXES
100
AcDbCircle
 62
7
  6
CONTINUOUS
 10
239.3029182681
 20
248.5079301722
 40
8.0
100
AcDbArc
 50
351.4506958314
 51
358.5493041686
  0
ARC
  5
34A
100
AcDbEntity
  8
02___PRT_ALL_AXES
100
AcDbCircle
 62
7
  6
CONTINUOUS
 10
239.3029182681
 20
248.5079301722
 40
8.0
100
AcDbArc
 50
9.450695831
 51
16.5493041689
  0
ARC
  5
34B
100
AcDbEntity
  8
02___PRT_ALL_AXES
100
AcDbCircle
 62
7
  6
CONTINUOUS
 10
239.3029182681
 20
248.5079301722
 40
8.0
100
AcDbArc
 50
27.450695831
 51
34.5493041689
  0
ARC
  5
34C
100
AcDbEntity
  8
02___PRT_ALL_AXES
100
AcDbCircle
 62
7
  6
CONTINUOUS
 10
239.3029182681
 20
248.5079301722
 40
8.0
100
AcDbArc
 50
45.4506958311
 51
52.5493041689
  0
ARC
  5
34D
100
AcDbEntity
  8
02___PRT_ALL_AXES
100
AcDbCircle
 62
7
  6
CONTINUOUS
 10
239.3029182681
 20
248.5079301722
 40
8.0
100
AcDbArc
 50
63.4506958311
 51
70.5493041689
  0
ARC
  5
34E
100
AcDbEntity
  8
02___PRT_ALL_AXES
100
AcDbCircle
 62
7
  6
CONTINUOUS
 10
239.3029182681
 20
248.5079301722
 40
8.0
100
AcDbArc
 50
81.4506958311
 51
88.549304169
  0
ARC
  5
34F
100
AcDbEntity
  8
02___PRT_ALL_AXES
100
AcDbCircle
 62
7
  6
CONTINUOUS
 10
239.3029182681
 20
248.5079301722
 40
8.0
100
AcDbArc
 50
99.4506958311
 51
106.5493041689
  0
ARC
  5
350
100
AcDbEntity
  8
02___PRT_ALL_AXES
100
AcDbCircle
 62
7
  6
CONTINUOUS
 10
239.3029182681
 20
248.5079301722
 40
8.0
100
AcDbArc
 50
117.4506958311
 51
124.549304169
  0
CIRCLE
  5
351
100
AcDbEntity
  8
02___PRT_ALL_AXES
100
AcDbCircle
 62
7
  6
CONTINUOUS
 10
239.3029182681
 20
248.5079301722
 40
1.25
  0
ARC
  5
352
100
AcDbEntity
  8
02___PRT_ALL_AXES
100
AcDbCircle
 62
7
  6
CONTINUOUS
 10
222.7771136829
 20
270.6584503308
 40
35.6259119688
100
AcDbArc
 50
265.0
 51
305.992558454
  0
ARC
  5
353
100
AcDbEntity
  8
02___PRT_ALL_AXES
100
AcDbCircle
 62
7
  6
CONTINUOUS
 10
278.437924835
 20
309.2713546271
 40
35.6259119688
100
AcDbArc
 50
93.0
 51
133.9925584541
  0
ARC
  5
354
100
AcDbEntity
  8
02___PRT_ALL_AXES
100
AcDbCircle
 62
7
  6
CONTINUOUS
 10
277.0073434484
 20
321.3124228286
 40
11.6463377395
100
AcDbArc
 50
57.0436312861
 51
161.7945820543
  0
ARC
  5
355
100
AcDbEntity
  8
02___PRT_ALL_AXES
100
AcDbCircle
 62
7
  6
CONTINUOUS
 10
258.9901916657
 20
328.9063599762
 40
9.0
100
AcDbArc
 50
314.8152614633
 51
321.1847385366
  0
ARC
  5
356
100
AcDbEntity
  8
02___PRT_ALL_AXES
100
AcDbCircle
 62
7
  6
CONTINUOUS
 10
258.9901916657
 20
328.9063599762
 40
9.0
100
AcDbArc
 50
134.8152614633
 51
141.1847385369
  0
ARC
  5
357
100
AcDbEntity
  8
02___PRT_ALL_AXES
100
AcDbCircle
 62
7
  6
CONTINUOUS
 10
258.9901916657
 20
328.9063599762
 40
9.0
100
AcDbArc
 50
152.8152614635
 51
159.184738537
  0
ARC
  5
358
100
AcDbEntity
  8
02___PRT_ALL_AXES
100
AcDbCircle
 62
7
  6
CONTINUOUS
 10
258.9901916657
 20
328.9063599762
 40
9.0
100
AcDbArc
 50
170.8152614637
 51
177.184738538
  0
ARC
  5
359
100
AcDbEntity
  8
02___PRT_ALL_AXES
100
AcDbCircle
 62
7
  6
CONTINUOUS
 10
258.9901916657
 20
328.9063599762
 40
9.0
100
AcDbArc
 50
188.8152614621
 51
195.1847385363
  0
ARC
  5
35A
100
AcDbEntity
  8
02___PRT_ALL_AXES
100
AcDbCircle
 62
7
  6
CONTINUOUS
 10
258.9901916657
 20
328.9063599762
 40
9.0
100
AcDbArc
 50
206.8152614632
 51
213.1847385367
  0
ARC
  5
35B
100
AcDbEntity
  8
02___PRT_ALL_AXES
100
AcDbCircle
 62
7
  6
CONTINUOUS
 10
258.9901916657
 20
328.9063599762
 40
9.0
100
AcDbArc
 50
224.8152614631
 51
231.1847385367
  0
ARC
  5
35C
100
AcDbEntity
  8
02___PRT_ALL_AXES
100
AcDbCircle
 62
7
  6
CONTINUOUS
 10
258.9901916657
 20
328.9063599762
 40
9.0
100
AcDbArc
 50
242.8152614633
 51
249.1847385367
  0
ARC
  5
35D
100
AcDbEntity
  8
02___PRT_ALL_AXES
100
AcDbCircle
 62
7
  6
CONTINUOUS
 10
258.9901916657
 20
328.9063599762
 40
9.0
100
AcDbArc
 50
260.8152614634
 51
267.1847385367
  0
ARC
  5
35E
100
AcDbEntity
  8
02___PRT_ALL_AXES
100
AcDbCircle
 62
7
  6
CONTINUOUS
 10
258.9901916657
 20
328.9063599762
 40
9.0
100
AcDbArc
 50
278.8152614633
 51
285.1847385368
  0
ARC
  5
35F
100
AcDbEntity
  8
02___PRT_ALL_AXES
100
AcDbCircle
 62
7
  6
CONTINUOUS
 10
258.9901916657
 20
328.9063599762
 40
9.0
100
AcDbArc
 50
296.8152614633
 51
303.1847385367
  0
ARC
  5
360
100
AcDbEntity
  8
02___PRT_ALL_AXES
100
AcDbCircle
 62
7
  6
CONTINUOUS
 10
258.9901916657
 20
328.9063599762
 40
8.0
100
AcDbArc
 50
143.4506958313
 51
150.5493041692
  0
ARC
  5
361
100
AcDbEntity
  8
02___PRT_ALL_AXES
100
AcDbCircle
 62
7
  6
CONTINUOUS
 10
258.9901916657
 20
328.9063599762
 40
8.0
100
AcDbArc
 50
161.4506958314
 51
168.5493041694
  0
ARC
  5
362
100
AcDbEntity
  8
02___PRT_ALL_AXES
100
AcDbCircle
 62
7
  6
CONTINUOUS
 10
258.9901916657
 20
328.9063599762
 40
8.0
100
AcDbArc
 50
179.4506958325
 51
186.5493041676
  0
ARC
  5
363
100
AcDbEntity
  8
02___PRT_ALL_AXES
100
AcDbCircle
 62
7
  6
CONTINUOUS
 10
258.9901916657
 20
328.9063599762
 40
8.0
100
AcDbArc
 50
197.4506958306
 51
204.5493041688
  0
ARC
  5
364
100
AcDbEntity
  8
02___PRT_ALL_AXES
100
AcDbCircle
 62
7
  6
CONTINUOUS
 10
258.9901916657
 20
328.9063599762
 40
8.0
100
AcDbArc
 50
215.450695831
 51
222.5493041688
  0
ARC
  5
365
100
AcDbEntity
  8
02___PRT_ALL_AXES
100
AcDbCircle
 62
7
  6
CONTINUOUS
 10
258.9901916657
 20
328.9063599762
 40
8.0
100
AcDbArc
 50
233.4506958311
 51
240.5493041689
  0
ARC
  5
366
100
AcDbEntity
  8
02___PRT_ALL_AXES
100
AcDbCircle
 62
7
  6
CONTINUOUS
 10
258.9901916657
 20
328.9063599762
 40
8.0
100
AcDbArc
 50
251.4506958311
 51
258.549304169
  0
ARC
  5
367
100
AcDbEntity
  8
02___PRT_ALL_AXES
100
AcDbCircle
 62
7
  6
CONTINUOUS
 10
258.9901916657
 20
328.9063599762
 40
8.0
100
AcDbArc
 50
269.4506958311
 51
276.549304169
  0
ARC
  5
368
100
AcDbEntity
  8
02___PRT_ALL_AXES
100
AcDbCircle
 62
7
  6
CONTINUOUS
 10
258.9901916657
 20
328.9063599762
 40
8.0
100
AcDbArc
 50
287.4506958312
 51
294.5493041689
  0
ARC
  5
369
100
AcDbEntity
  8
02___PRT_ALL_AXES
100
AcDbCircle
 62
7
  6
CONTINUOUS
 10
258.9901916657
 20
328.9063599762
 40
8.0
100
AcDbArc
 50
305.4506958311
 51
312.5493041689
  0
ARC
  5
36A
100
AcDbEntity
  8
02___PRT_ALL_AXES
100
AcDbCircle
 62
7
  6
CONTINUOUS
 10
258.9901916657
 20
328.9063599762
 40
3.65
100
AcDbArc
 50
98.0
 51
338.0
  0
ARC
  5
36B
100
AcDbEntity
  8
02___PRT_ALL_AXES
100
AcDbCircle
 62
7
  6
CONTINUOUS
 10
270.1011432915
 20
337.5871867783
 40
2.0
100
AcDbArc
 50
308.0
 51
128.0
  0
ARC
  5
36C
100
AcDbEntity
  8
02___PRT_ALL_AXES
100
AcDbCircle
 62
7
  6
CONTINUOUS
 10
277.6201277899
 20
324.8758518266
 40
20.0
100
AcDbArc
 50
77.4199999998
 51
93.0
  0
ARC
  5
36D
100
AcDbEntity
  8
02___PRT_ALL_AXES
100
AcDbCircle
 62
7
  6
CONTINUOUS
 10
282.3199932126
 20
329.5068406563
 40
1.8804414134
100
AcDbArc
 50
31.2600000011
 51
57.0436312861
  0
ARC
  5
36E
100
AcDbEntity
  8
02___PRT_ALL_AXES
100
AcDbCircle
 62
7
  6
CONTINUOUS
 10
301.4844999236
 20
317.4543916717
 40
10.0
100
AcDbArc
 50
62.999999998
 51
122.9999999967
  0
ARC
  5
36F
100
AcDbEntity
  8
02___PRT_ALL_AXES
100
AcDbCircle
 62
7
  6
CONTINUOUS
 10
313.2532598454
 20
334.8544211492
 40
2.5
100
AcDbArc
 50
3.0000000001
 51
77.42
  0
ARC
  5
370
100
AcDbEntity
  8
02___PRT_ALL_AXES
100
AcDbCircle
 62
7
  6
CONTINUOUS
 10
313.7144956789
 20
329.1106887819
 40
2.3400000001
100
AcDbArc
 50
272.9999999949
 51
3.0000000001
  0
ARC
  5
371
100
AcDbEntity
  8
02___PRT_ALL_AXES
100
AcDbCircle
 62
7
  6
CONTINUOUS
 10
288.1208807666
 20
327.4289176629
 40
1.999999999
100
AcDbArc
 50
211.2600000011
 51
272.9999999974
  0
CIRCLE
  5
372
100
AcDbEntity
  8
02___PRT_ALL_AXES
100
AcDbCircle
 62
7
  6
CONTINUOUS
 10
309.6574896772
 20
331.7820224634
 40
1.5
  0
CIRCLE
  5
373
100
AcDbEntity
  8
02___PRT_ALL_AXES
100
AcDbCircle
 62
7
  6
CONTINUOUS
 10
292.5271337908
 20
330.884258553
 40
1.5
  0
CIRCLE
  5
374
100
AcDbEntity
  8
02___PRT_ALL_AXES
100
AcDbCircle
 62
7
  6
CONTINUOUS
 10
218.8750359189
 20
314.1982121161
 40
3.675
  0
ARC
  5
375
100
AcDbEntity
  8
02___PRT_ALL_AXES
100
AcDbCircle
 62
7
  6
CONTINUOUS
 10
248.3750359189
 20
311.6982121161
 40
2.5
100
AcDbArc
 50
270.0
 51
360.0
  0
ARC
  5
376
100
AcDbEntity
  8
02___PRT_ALL_AXES
100
AcDbCircle
 62
7
  6
CONTINUOUS
 10
189.3750359189
 20
311.6982121161
 40
2.5
100
AcDbArc
 50
180.0
 51
270.0
  0
CIRCLE
  5
377
100
AcDbEntity
  8
02___PRT_ALL_AXES
100
AcDbCircle
 62
7
  6
CONTINUOUS
 10
231.6750359189
 20
314.1982121161
 40
1.1
  0
CIRCLE
  5
378
100
AcDbEntity
  8
02___PRT_ALL_AXES
100
AcDbCircle
 62
7
  6
CONTINUOUS
 10
206.0750359189
 20
314.1982121161
 40
1.1
  0
ARC
  5
379
100
AcDbEntity
  8
02___PRT_ALL_AXES
100
AcDbCircle
 62
7
  6
CONTINUOUS
 10
197.9200359189
 20
320.0982173161
 40
0.5
100
AcDbArc
 50
90.0
 51
180.0
  0
ARC
  5
37A
100
AcDbEntity
  8
02___PRT_ALL_AXES
100
AcDbCircle
 62
7
  6
CONTINUOUS
 10
202.8200359189
 20
320.0982173161
 40
0.5
100
AcDbArc
 50
0.0
 51
90.0
  0
ARC
  5
37B
100
AcDbEntity
  8
02___PRT_ALL_AXES
100
AcDbCircle
 62
7
  6
CONTINUOUS
 10
234.9300359189
 20
320.0982173161
 40
0.5
100
AcDbArc
 50
90.0
 51
180.0
  0
ARC
  5
37C
100
AcDbEntity
  8
02___PRT_ALL_AXES
100
AcDbCircle
 62
7
  6
CONTINUOUS
 10
239.8300359189
 20
320.0982173161
 40
0.5
100
AcDbArc
 50
0.0
 51
90.0
  0
ARC
  5
37D
100
AcDbEntity
  8
02___PRT_ALL_AXES
100
AcDbCircle
 62
7
  6
CONTINUOUS
 10
246.3885543033
 20
268.8820272576
 40
2.5
100
AcDbArc
 50
325.6228211257
 51
10.6933361756
  0
ARC
  5
37E
100
AcDbEntity
  8
02___PRT_ALL_AXES
100
AcDbCircle
 62
7
  6
CONTINUOUS
 10
256.3520799695
 20
258.9185015914
 40
2.5
100
AcDbArc
 50
79.3066638244
 51
124.3771788743
  0
CIRCLE
  5
37F
100
AcDbEntity
  8
02___PRT_ALL_AXES
100
AcDbCircle
 62
7
  6
CONTINUOUS
 10
248.9134105226
 20
261.4433578108
 40
1.5
  0
ARC
  5
380
100
AcDbEntity
  8
02___PRT_ALL_AXES
100
AcDbCircle
 62
7
  6
CONTINUOUS
 10
248.5438458544
 20
258.0262468892
 40
1.1724160136
100
AcDbArc
 50
225.0
 51
304.3771788743
  0
ARC
  5
381
100
AcDbEntity
  8
02___PRT_ALL_AXES
100
AcDbCircle
 62
7
  6
CONTINUOUS
 10
245.4962996011
 20
261.0737931425
 40
1.1724160136
100
AcDbArc
 50
145.6228211257
 51
225.0
  0
ARC
  5
382
100
AcDbEntity
  8
02___PRT_ALL_AXES
100
AcDbCircle
 62
7
  6
CONTINUOUS
 10
246.4389876619
 20
273.7735960083
 40
2.5
100
AcDbArc
 50
348.1252366144
 51
34.3771788796
  0
ARC
  5
383
100
AcDbEntity
  8
02___PRT_ALL_AXES
100
AcDbCircle
 62
7
  6
CONTINUOUS
 10
256.0993194868
 20
283.4339278325
 40
2.5
100
AcDbArc
 50
235.6228211257
 51
281.8747633811
  0
ARC
  5
384
100
AcDbEntity
  8
02___PRT_ALL_AXES
100
AcDbCircle
 62
7
  6
CONTINUOUS
 10
246.2034063823
 20
280.6219628587
 40
1.1724160135
100
AcDbArc
 50
135.0000000055
 51
214.3771788796
  0
ARC
  5
385
100
AcDbEntity
  8
02___PRT_ALL_AXES
100
AcDbCircle
 62
7
  6
CONTINUOUS
 10
249.2509526356
 20
283.6695091119
 40
1.1724160136
100
AcDbArc
 50
55.6228211257
 51
135.0
  0
CIRCLE
  5
386
100
AcDbEntity
  8
02___PRT_ALL_AXES
100
AcDbCircle
 62
7
  6
CONTINUOUS
 10
249.6205173038
 20
280.2523981903
 40
1.0
  0
ARC
  5
387
100
AcDbEntity
  8
02___PRT_ALL_AXES
100
AcDbCircle
 62
7
  6
CONTINUOUS
 10
270.9039805443
 20
268.629266775
 40
2.5
100
AcDbArc
 50
168.1252366189
 51
214.3771788743
  0
ARC
  5
388
100
AcDbEntity
  8
02___PRT_ALL_AXES
100
AcDbCircle
 62
7
  6
CONTINUOUS
 10
261.2436487192
 20
258.9689349498
 40
2.5
100
AcDbArc
 50
55.6228211257
 51
101.8747633811
  0
ARC
  5
389
100
AcDbEntity
  8
02___PRT_ALL_AXES
100
AcDbCircle
 62
7
  6
CONTINUOUS
 10
271.1395618237
 20
261.7808999237
 40
1.1724160136
100
AcDbArc
 50
315.0
 51
34.3771788743
  0
ARC
  5
38A
100
AcDbEntity
  8
02___PRT_ALL_AXES
100
AcDbCircle
 62
7
  6
CONTINUOUS
 10
268.0920155704
 20
258.7333536704
 40
1.1724160136
100
AcDbArc
 50
235.6228211257
 51
315.0
  0
CIRCLE
  5
38B
100
AcDbEntity
  8
02___PRT_ALL_AXES
100
AcDbCircle
 62
7
  6
CONTINUOUS
 10
267.7224509022
 20
262.150464592
 40
1.0
  0
ARC
  5
38C
100
AcDbEntity
  8
02___PRT_ALL_AXES
100
AcDbCircle
 62
7
  6
CONTINUOUS
 10
258.671484103
 20
271.2014313911
 40
10.0
100
AcDbArc
 50
168.1252366144
 51
190.6933361756
  0
ARC
  5
38D
100
AcDbEntity
  8
02___PRT_ALL_AXES
100
AcDbCircle
 62
7
  6
CONTINUOUS
 10
258.671484103
 20
271.2014313911
 40
10.0
100
AcDbArc
 50
79.3066638244
 51
101.8747633811
  0
ARC
  5
38E
100
AcDbEntity
  8
02___PRT_ALL_AXES
100
AcDbCircle
 62
7
  6
CONTINUOUS
 10
258.671484103
 20
271.2014313911
 40
10.0
100
AcDbArc
 50
348.1252366189
 51
10.6933361756
  0
ARC
  5
38F
100
AcDbEntity
  8
02___PRT_ALL_AXES
100
AcDbCircle
 62
7
  6
CONTINUOUS
 10
258.671484103
 20
271.2014313911
 40
10.0
100
AcDbArc
 50
259.3066638244
 51
281.8747633811
  0
CIRCLE
  5
390
100
AcDbEntity
  8
02___PRT_ALL_AXES
100
AcDbCircle
 62
7
  6
CONTINUOUS
 10
258.671484103
 20
271.2014313911
 40
3.675
  0
ARC
  5
391
100
AcDbEntity
  8
02___PRT_ALL_AXES
100
AcDbCircle
 62
7
  6
CONTINUOUS
 10
260.9908882365
 20
283.4843611909
 40
2.5
100
AcDbArc
 50
259.3066638244
 51
304.3771788743
  0
ARC
  5
392
100
AcDbEntity
  8
02___PRT_ALL_AXES
100
AcDbCircle
 62
7
  6
CONTINUOUS
 10
270.9544139027
 20
273.5208355247
 40
2.5
100
AcDbArc
 50
145.6228211257
 51
190.6933361756
  0
CIRCLE
  5
393
100
AcDbEntity
  8
02___PRT_ALL_AXES
100
AcDbCircle
 62
7
  6
CONTINUOUS
 10
268.4295576834
 20
280.9595049715
 40
1.5
  0
ARC
  5
394
100
AcDbEntity
  8
02___PRT_ALL_AXES
100
AcDbCircle
 62
7
  6
CONTINUOUS
 10
268.7991223516
 20
284.3766158931
 40
1.1724160136
100
AcDbArc
 50
45.0
 51
124.3771788743
  0
ARC
  5
395
100
AcDbEntity
  8
02___PRT_ALL_AXES
100
AcDbCircle
 62
7
  6
CONTINUOUS
 10
271.8466686049
 20
281.3290696397
 40
1.1724160136
100
AcDbArc
 50
325.6228211257
 51
45.0
  0
ARC
  5
396
100
AcDbEntity
  8
02___PRT_ALL_AXES
100
AcDbCircle
 62
7
  6
CONTINUOUS
 10
262.5793909359
 20
299.6663557959
 40
10.0
100
AcDbArc
 50
284.3066638244
 51
35.6933361756
  0
ARC
  5
397
100
AcDbEntity
  8
02___PRT_ALL_AXES
100
AcDbCircle
 62
7
  6
CONTINUOUS
 10
262.5793909359
 20
299.6663557959
 40
10.0
100
AcDbArc
 50
104.3066638244
 51
215.6933361756
  0
ARC
  5
398
100
AcDbEntity
  8
02___PRT_ALL_AXES
100
AcDbCircle
 62
7
  6
CONTINUOUS
 10
272.7312833178
 20
306.9594402644
 40
2.5
100
AcDbArc
 50
170.6228211257
 51
215.6933361756
  0
ARC
  5
399
100
AcDbEntity
  8
02___PRT_ALL_AXES
100
AcDbCircle
 62
7
  6
CONTINUOUS
 10
265.6682873494
 20
287.5540183275
 40
2.5
100
AcDbArc
 50
104.3066638245
 51
149.3771788743
  0
ARC
  5
39A
100
AcDbEntity
  8
02___PRT_ALL_AXES
100
AcDbCircle
 62
7
  6
CONTINUOUS
 10
252.427498554
 20
292.3732713273
 40
2.5
100
AcDbArc
 50
350.6228211257
 51
35.6933361756
  0
ARC
  5
39B
100
AcDbEntity
  8
02___PRT_ALL_AXES
100
AcDbCircle
 62
7
  6
CONTINUOUS
 10
259.4904945224
 20
311.7786932642
 40
2.5
100
AcDbArc
 50
284.3066638244
 51
329.3771788743
  0
CIRCLE
  5
39C
100
AcDbEntity
  8
02___PRT_ALL_AXES
100
AcDbCircle
 62
7
  6
CONTINUOUS
 10
267.2992689138
 20
312.6341139627
 40
1.5
  0
CIRCLE
  5
39D
100
AcDbEntity
  8
02___PRT_ALL_AXES
100
AcDbCircle
 62
7
  6
CONTINUOUS
 10
262.5793909359
 20
299.6663557959
 40
1.5
  0
CIRCLE
  5
39E
100
AcDbEntity
  8
02___PRT_ALL_AXES
100
AcDbCircle
 62
7
  6
CONTINUOUS
 10
257.859512958
 20
286.698597629
 40
1.5
  0
ARC
  5
39F
100
AcDbEntity
  8
02___PRT_ALL_AXES
100
AcDbCircle
 62
7
  6
CONTINUOUS
 10
258.9687070992
 20
283.445458614
 40
1.1724160136
100
AcDbArc
 50
250.0
 51
329.3771788743
  0
ARC
  5
3A0
100
AcDbEntity
  8
02___PRT_ALL_AXES
100
AcDbCircle
 62
7
  6
CONTINUOUS
 10
254.9187434983
 20
284.9195248146
 40
1.1724160136
100
AcDbArc
 50
170.6228211257
 51
250.0
  0
ARC
  5
3A1
100
AcDbEntity
  8
02___PRT_ALL_AXES
100
AcDbCircle
 62
7
  6
CONTINUOUS
 10
266.1900747726
 20
315.8872529778
 40
1.1724160136
100
AcDbArc
 50
70.0
 51
149.3771788743
  0
ARC
  5
3A2
100
AcDbEntity
  8
02___PRT_ALL_AXES
100
AcDbCircle
 62
7
  6
CONTINUOUS
 10
270.2400383735
 20
314.4131867772
 40
1.1724160136
100
AcDbArc
 50
350.6228211257
 51
70.0
  0
CIRCLE
  5
3A3
100
AcDbEntity
  8
02___PRT_ALL_AXES
100
AcDbCircle
 62
7
  6
CONTINUOUS
 10
191.3531670838
 20
278.4211508943
 40
1.5
  0
CIRCLE
  5
3A4
100
AcDbEntity
  8
02___PRT_ALL_AXES
100
AcDbCircle
 62
7
  6
CONTINUOUS
 10
239.3531670838
 20
278.4211508943
 40
1.5
  0
ARC
  5
3A5
100
AcDbEntity
  8
02___PRT_ALL_AXES
100
AcDbCircle
 62
7
  6
CONTINUOUS
 10
188.8531670838
 20
273.9211508943
 40
1.5
100
AcDbArc
 50
180.0
 51
270.0
  0
ARC
  5
3A6
100
AcDbEntity
  8
02___PRT_ALL_AXES
100
AcDbCircle
 62
7
  6
CONTINUOUS
 10
188.8531670838
 20
282.9211508943
 40
1.5
100
AcDbArc
 50
90.0
 51
180.0
  0
ARC
  5
3A7
100
AcDbEntity
  8
02___PRT_ALL_AXES
100
AcDbCircle
 62
7
  6
CONTINUOUS
 10
241.8531670838
 20
282.9211508943
 40
1.5
100
AcDbArc
 50
0.0
 51
90.0
  0
ARC
  5
3A8
100
AcDbEntity
  8
02___PRT_ALL_AXES
100
AcDbCircle
 62
7
  6
CONTINUOUS
 10
241.8531670838
 20
273.9211508943
 40
1.5
100
AcDbArc
 50
270.0
 51
360.0
  0
CIRCLE
  5
3A9
100
AcDbEntity
  8
02___PRT_ALL_AXES
100
AcDbCircle
 62
7
  6
CONTINUOUS
 10
215.3531670838
 20
264.9234144318
 40
3.675
  0
CIRCLE
  5
3AA
100
AcDbEntity
  8
02___PRT_ALL_AXES
100
AcDbCircle
 62
7
  6
CONTINUOUS
 10
191.3531670838
 20
264.9234144318
 40
1.5
  0
CIRCLE
  5
3AB
100
AcDbEntity
  8
02___PRT_ALL_AXES
100
AcDbCircle
 62
7
  6
CONTINUOUS
 10
239.3531670838
 20
264.9234144318
 40
1.5
  0
ARC
  5
3AC
100
AcDbEntity
  8
02___PRT_ALL_AXES
100
AcDbCircle
 62
7
  6
CONTINUOUS
 10
188.8531670838
 20
260.4234144318
 40
1.5
100
AcDbArc
 50
180.0
 51
270.0
  0
ARC
  5
3AD
100
AcDbEntity
  8
02___PRT_ALL_AXES
100
AcDbCircle
 62
7
  6
CONTINUOUS
 10
188.8531670838
 20
269.4234144318
 40
1.5
100
AcDbArc
 50
90.0
 51
180.0
  0
ARC
  5
3AE
100
AcDbEntity
  8
02___PRT_ALL_AXES
100
AcDbCircle
 62
7
  6
CONTINUOUS
 10
241.8531670838
 20
269.4234144318
 40
1.5
100
AcDbArc
 50
0.0
 51
90.0
  0
ARC
  5
3AF
100
AcDbEntity
  8
02___PRT_ALL_AXES
100
AcDbCircle
 62
7
  6
CONTINUOUS
 10
241.8531670838
 20
260.4234144318
 40
1.5
100
AcDbArc
 50
270.0
 51
360.0
  0
CIRCLE
  5
3B0
100
AcDbEntity
  8
02___PRT_ALL_AXES
100
AcDbCircle
 62
7
  6
CONTINUOUS
 10
202.5531670838
 20
264.9234144318
 40
1.0
  0
CIRCLE
  5
3B1
100
AcDbEntity
  8
02___PRT_ALL_AXES
100
AcDbCircle
 62
7
  6
CONTINUOUS
 10
228.1531670838
 20
264.9234144318
 40
1.0
  0
ENDSEC
  0
SECTION
  2
OBJECTS
  0
DICTIONARY
  5
C
100
AcDbDictionary
280
0
281
1
  3
ACAD_GROUP
350
D
  3
ACAD_MLINESTYLE
350
17
  3
ACAD_LAYOUT
350
1A
  3
ACAD_PLOTSETTINGS
350
19
  3
ACAD_PLOTSTYLENAME
350
E
  0
DICTIONARY
  5
D
102
{ACAD_REACTORS
330
C
102
}
100
AcDbDictionary
280
0
281
1
  0
ACDBDICTIONARYWDFLT
  5
E
102
{ACAD_REACTORS
330
C
102
}
100
AcDbDictionary
281
1
  3
Normal
350
F
100
AcDbDictionaryWithDefault
340
F
  0
DICTIONARY
  5
17
102
{ACAD_REACTORS
330
C
102
}
100
AcDbDictionary
280
0
281
1
  3
Standard
350
18
  0
DICTIONARY
  5
19
102
{ACAD_REACTORS
330
C
102
}
100
AcDbDictionary
281
1
  0
DICTIONARY
  5
1A
102
{ACAD_REACTORS
330
C
102
}
100
AcDbDictionary
281
1
  3
Model
350
3B2
  3
Layout1
350
3B3
  0
ACDBPLACEHOLDER
  5
F
102
{ACAD_REACTORS
330
E
102
}
  0
MLINESTYLE
  5
18
102
{ACAD_REACTORS
330
17
102
}
100
AcDbMlineStyle
  2
STANDARD
 70
0
  3

 62
256
 51
90.0
 52
90.0
 71
2
 49
0.5
 62
256
  6
BYLAYER
 49
-0.5
 62
256
  6
BYLAYER
  0
LAYOUT
  5
3B2
102
{ACAD_REACTORS
330
1A
102
}
100
AcDbPlotSettings
  1

  2
none_device
  4
ISO_A3_(420.00_x_297.00_MM)
  6

 40
0.0
 41
0.0
 42
0.0
 43
0.0
 44
420.0
 45
297.0
 46
0.0
 47
0.0
 48
0.0
 49
0.0
140
0.0
141
0.0
142
1.0
143
1.0
 70
1024
 72
1
 73
0
 74
0
  7

 75
0
147
1.0
148
0.0
149
0.0
100
AcDbLayout
  1
Model
 70
0
 71
0
 10
0.0
 20
0.0
 11
420.0
 21
297.0
 12
0.0
 22
0.0
 32
0.0
 14
0.0
 24
0.0
 34
0.0
 15
0.0
 25
0.0
 35
0.0
146
0.0
 13
0.0
 23
0.0
 33
0.0
 16
1.0
 26
0.0
 36
0.0
 17
0.0
 27
1.0
 37
0.0
 76
0
330
208
345
0
346
0
  0
LAYOUT
  5
3B3
102
{ACAD_REACTORS
330
1A
102
}
100
AcDbPlotSettings
  1

  2
none_device
  4
ISO_A3_(420.00_x_297.00_MM)
  6

 40
0.0
 41
0.0
 42
0.0
 43
0.0
 44
420.0
 45
297.0
 46
0.0
 47
0.0
 48
0.0
 49
0.0
140
0.0
141
0.0
142
1.0
143
1.0
 70
0
 72
1
 73
0
 74
0
  7

 75
0
147
1.0
148
0.0
149
0.0
100
AcDbLayout
  1
Layout1
 70
0
 71
1
 10
0.0
 20
0.0
 11
420.0
 21
297.0
 12
0.0
 22
0.0
 32
0.0
 14
0.0
 24
0.0
 34
0.0
 15
0.0
 25
0.0
 35
0.0
146
0.0
 13
0.0
 23
0.0
 33
0.0
 16
1.0
 26
0.0
 36
0.0
 17
0.0
 27
1.0
 37
0.0
 76
0
330
209
345
0
346
0
  0
ENDSEC
  0
EOF
